<?xml version="1.0" encoding="UTF-8" standalone="no"?>
<!DOCTYPE svg PUBLIC "-//W3C//DTD SVG 1.1//EN" "http://www.w3.org/Graphics/SVG/1.1/DTD/svg11.dtd"
[
<!ATTLIST g
  xmlns:vectornator CDATA #FIXED "http://vectornator.io"
  vectornator:layerName CDATA #IMPLIED >
<!ATTLIST g
  xmlns:vectornator CDATA #FIXED "http://vectornator.io"
  vectornator:mask CDATA #IMPLIED >
<!ATTLIST text
  xmlns:vectornator CDATA #FIXED "http://vectornator.io"
  vectornator:width CDATA #IMPLIED >
<!ATTLIST text
  xmlns:vectornator CDATA #FIXED "http://vectornator.io"
  vectornator:text CDATA #IMPLIED >

<!ATTLIST path
  xmlns:vectornator CDATA #FIXED "http://vectornator.io"
  vectornator:blendMode CDATA #IMPLIED >
<!ATTLIST path
  xmlns:vectornator CDATA #FIXED "http://vectornator.io"
  vectornator:shadowColor CDATA #IMPLIED >
<!ATTLIST path
  xmlns:vectornator CDATA #FIXED "http://vectornator.io"
  vectornator:shadowOpacity CDATA #IMPLIED >
<!ATTLIST path
  xmlns:vectornator CDATA #FIXED "http://vectornator.io"
  vectornator:shadowRadius CDATA #IMPLIED >
<!ATTLIST path
  xmlns:vectornator CDATA #FIXED "http://vectornator.io"
  vectornator:shadowOffset CDATA #IMPLIED >
<!ATTLIST path
  xmlns:vectornator CDATA #FIXED "http://vectornator.io"
  vectornator:shadowAngle CDATA #IMPLIED >

<!ATTLIST image
  xmlns:vectornator CDATA #FIXED "http://vectornator.io"
  vectornator:blendMode CDATA #IMPLIED >
<!ATTLIST image
  xmlns:vectornator CDATA #FIXED "http://vectornator.io"
  vectornator:shadowColor CDATA #IMPLIED >
<!ATTLIST image
  xmlns:vectornator CDATA #FIXED "http://vectornator.io"
  vectornator:shadowOpacity CDATA #IMPLIED >
<!ATTLIST image
  xmlns:vectornator CDATA #FIXED "http://vectornator.io"
  vectornator:shadowRadius CDATA #IMPLIED >
<!ATTLIST image
  xmlns:vectornator CDATA #FIXED "http://vectornator.io"
  vectornator:shadowOffset CDATA #IMPLIED >
<!ATTLIST image
  xmlns:vectornator CDATA #FIXED "http://vectornator.io"
  vectornator:shadowAngle CDATA #IMPLIED >

<!ATTLIST g
  xmlns:vectornator CDATA #FIXED "http://vectornator.io"
  vectornator:blendMode CDATA #IMPLIED >
<!ATTLIST g
  xmlns:vectornator CDATA #FIXED "http://vectornator.io"
  vectornator:shadowColor CDATA #IMPLIED >
<!ATTLIST g
  xmlns:vectornator CDATA #FIXED "http://vectornator.io"
  vectornator:shadowOpacity CDATA #IMPLIED >
<!ATTLIST g
  xmlns:vectornator CDATA #FIXED "http://vectornator.io"
  vectornator:shadowRadius CDATA #IMPLIED >
<!ATTLIST g
  xmlns:vectornator CDATA #FIXED "http://vectornator.io"
  vectornator:shadowOffset CDATA #IMPLIED >
<!ATTLIST g
  xmlns:vectornator CDATA #FIXED "http://vectornator.io"
  vectornator:shadowAngle CDATA #IMPLIED >

<!ENTITY % SVG.filter.extra.content  "| feDropShadow" >
<!ELEMENT feDropShadow EMPTY>
<!ATTLIST feDropShadow
  xmlns:svg CDATA #FIXED "http://www.w3.org/Graphics/SVG/1.1/DTD/svg11.dtd"
  dx CDATA #IMPLIED>
<!ATTLIST feDropShadow
  xmlns:svg CDATA #FIXED "http://www.w3.org/Graphics/SVG/1.1/DTD/svg11.dtd"
  dy CDATA #IMPLIED>
<!ATTLIST feDropShadow
  xmlns:svg CDATA #FIXED "http://www.w3.org/Graphics/SVG/1.1/DTD/svg11.dtd"
  stdDeviation CDATA #IMPLIED>
<!ATTLIST feDropShadow
  xmlns:svg CDATA #FIXED "http://www.w3.org/Graphics/SVG/1.1/DTD/svg11.dtd"
  flood-opacity CDATA #IMPLIED>
<!ATTLIST feDropShadow
  xmlns:svg CDATA #FIXED "http://www.w3.org/Graphics/SVG/1.1/DTD/svg11.dtd"
  in CDATA #IMPLIED>
<!ATTLIST feDropShadow
  xmlns:svg CDATA #FIXED "http://www.w3.org/Graphics/SVG/1.1/DTD/svg11.dtd"
  result CDATA #IMPLIED>
<!ATTLIST feDropShadow
  xmlns:svg CDATA #FIXED "http://www.w3.org/Graphics/SVG/1.1/DTD/svg11.dtd"
  flood-color CDATA #IMPLIED>
]
>
<!-- Created with Vectornator (http://vectornator.io/) -->
<svg height="100%" stroke-miterlimit="10" style="fill-rule:nonzero;clip-rule:evenodd;stroke-linecap:round;stroke-linejoin:round;" version="1.1" viewBox="0 0 64 64" width="100%" xml:space="preserve" xmlns="http://www.w3.org/2000/svg" xmlns:vectornator="http://vectornator.io" xmlns:xlink="http://www.w3.org/1999/xlink">
<defs>
<linearGradient gradientTransform="matrix(1 0 0 1 0 0)" gradientUnits="userSpaceOnUse" id="LinearGradient" x1="32" x2="32" y1="59" y2="5">
<stop offset="0" stop-color="#9dd5df"/>
<stop offset="1" stop-color="#c3e1f5"/>
</linearGradient>
<linearGradient gradientTransform="matrix(0.90556 0 0 0.891732 -8.97191 -17.5522)" gradientUnits="userSpaceOnUse" id="LinearGradient_2" x1="38.1878" x2="53.7602" y1="50.3168" y2="50.3168">
<stop offset="0" stop-color="#d4d8e1"/>
<stop offset="1" stop-color="#f3f4f5"/>
</linearGradient>
</defs>
<g id="Apps-Covid" vectornator:layerName="Apps Covid">
<path d="M16 1L48 1C50.2091 1 52 2.79086 52 5L52 59C52 61.2091 50.2091 63 48 63L16 63C13.7909 63 12 61.2091 12 59L12 5C12 2.79086 13.7909 1 16 1Z" fill="#2f4e56" fill-rule="evenodd" opacity="1" stroke="none"/>
<path d="M48 6L48 58C48 58.5523 47.5523 59 47 59L17 59C16.4477 59 16 58.5523 16 58L16 6C16 5.44772 16.4477 5 17 5L24 5C24 6.10457 24.8954 7 26 7L38 7C39.1046 7 40 6.10457 40 5L47 5C47.5523 5 48 5.44772 48 6Z" fill="url(#LinearGradient)" fill-rule="evenodd" opacity="1" stroke="none"/>
<path d="M48 56L48 58C48 58.5523 47.5523 59 47 59L17 59C16.4477 59 16 58.5523 16 58L16 56C16 56.5523 16.4477 57 17 57L47 57C47.5523 57 48 56.5523 48 56Z" fill="#77cacb" fill-rule="evenodd" opacity="1" stroke="none"/>
<path d="M27 4C27 3.44772 27.4477 3 28 3C28.5523 3 29 3.44772 29 4C29 4.55228 28.5523 5 28 5C27.4477 5 27 4.55228 27 4Z" fill="#8288a1" fill-rule="evenodd" opacity="1" stroke="none"/>
<path d="M35 4C35 3.44772 35.4477 3 36 3C36.5523 3 37 3.44772 37 4C37 4.55228 36.5523 5 36 5C35.4477 5 35 4.55228 35 4Z" fill="#8288a1" fill-rule="evenodd" opacity="1" stroke="none"/>
<path d="M32.6603 38.0073L32.6603 38.0073C27.4724 36.3673 23.9321 31.446 23.9308 25.8724L23.9308 18.0123L24.384 18.0123C27.1971 18.0125 29.9917 17.5468 32.6603 16.6334L32.6603 16.6334C35.329 17.5468 38.1236 18.0125 40.9366 18.0123L41.3899 18.0123L41.3899 25.8724C41.3885 31.446 37.8482 36.3673 32.6603 38.0073Z" fill="#319695" fill-rule="evenodd" opacity="1" stroke="none"/>
<path d="M32.6603 36.1905C28.4179 34.633 25.5927 30.4985 25.6095 25.8724L25.6095 19.7085C28.0032 19.6017 30.3733 19.1764 32.6603 18.4433C34.9474 19.1764 37.3174 19.6017 39.7111 19.7085L39.7111 25.8724C39.728 30.4985 36.9027 34.633 32.6603 36.1905Z" fill="url(#LinearGradient_2)" fill-rule="evenodd" opacity="1" stroke="none"/>
<path d="M35.1848 25.7522L33.3737 25.7522L33.3737 23.9688C33.3737 23.4763 32.9683 23.077 32.4681 23.077C31.968 23.077 31.5626 23.4763 31.5626 23.9688L31.5626 25.7522L29.7515 25.7522C29.2513 25.7522 28.8459 26.1515 28.8459 26.644C28.8459 27.1364 29.2513 27.5357 29.7515 27.5357L31.5626 27.5357L31.5626 29.3191C31.5626 29.8116 31.968 30.2109 32.4681 30.2109C32.9683 30.2109 33.3737 29.8116 33.3737 29.3191L33.3737 27.5357L35.1848 27.5357C35.685 27.5357 36.0904 27.1364 36.0904 26.644C36.0904 26.1515 35.685 25.7522 35.1848 25.7522Z" fill="#f9941e" fill-rule="evenodd" opacity="1" stroke="none"/>
<path d="M42.5669 43.5348L22.8913 43.5348C22.4386 43.5348 22.0715 43.1677 22.0715 42.715C22.0715 42.2622 22.4386 41.8952 22.8913 41.8952L42.5669 41.8952C43.0197 41.8952 43.3867 42.2622 43.3867 42.715C43.3867 43.1677 43.0197 43.5348 42.5669 43.5348Z" fill="#9ca0ad" fill-rule="evenodd" opacity="1" stroke="none"/>
<path d="M42.5669 46.8141L22.8913 46.8141C22.4386 46.8141 22.0715 46.447 22.0715 45.9942C22.0715 45.5415 22.4386 45.1744 22.8913 45.1744L42.5669 45.1744C43.0197 45.1744 43.3867 45.5415 43.3867 45.9942C43.3867 46.447 43.0197 46.8141 42.5669 46.8141Z" fill="#9ca0ad" fill-rule="evenodd" opacity="1" stroke="none"/>
<path d="M38.4678 50.0933L22.8913 50.0933C22.4386 50.0933 22.0715 49.7263 22.0715 49.2735C22.0715 48.8207 22.4386 48.4537 22.8913 48.4537L38.4678 48.4537C38.9206 48.4537 39.2876 48.8207 39.2876 49.2735C39.2876 49.7263 38.9206 50.0933 38.4678 50.0933Z" fill="#9ca0ad" fill-rule="evenodd" opacity="1" stroke="none"/>
</g>
</svg>
