<?xml version="1.0" encoding="UTF-8" standalone="no"?>
<!DOCTYPE svg PUBLIC "-//W3C//DTD SVG 1.1//EN" "http://www.w3.org/Graphics/SVG/1.1/DTD/svg11.dtd">

<!-- Created with Vectornator (http://vectornator.io/) -->
<svg height="100%" stroke-miterlimit="10" style="fill-rule:nonzero;clip-rule:evenodd;stroke-linecap:round;stroke-linejoin:round;" version="1.1" viewBox="0 0 900 600" width="100%" xml:space="preserve" xmlns="http://www.w3.org/2000/svg" xmlns:vectornator="http://vectornator.io" xmlns:xlink="http://www.w3.org/1999/xlink">
<metadata>
<vectornator:setting key="IsTimeLapseWatermarkDisabled" value="false"/>
<vectornator:setting key="UndoHistoryDisabled" value="true"/>
<vectornator:setting key="VNDimensionsVisible" value="true"/>
<vectornator:setting key="VNSnapToGuides" value="true"/>
<vectornator:setting key="WDCMYKEnabledKey" value="false"/>
<vectornator:setting key="WDDisplayWhiteBackground" value="false"/>
<vectornator:setting key="WDDynamicGuides" value="false"/>
<vectornator:setting key="WDGuidesVisible" value="true"/>
<vectornator:setting key="WDIsolateActiveLayer" value="false"/>
<vectornator:setting key="WDOutlineMode" value="false"/>
<vectornator:setting key="WDRulersVisible" value="true"/>
<vectornator:setting key="WDSnapToEdges" value="false"/>
<vectornator:setting key="WDSnapToGrid" value="false"/>
<vectornator:setting key="WDSnapToPoints" value="false"/>
<vectornator:setting key="WDUnits" value="Points"/>
</metadata>
<defs>
<linearGradient gradientTransform="matrix(-1.1905 -0.0118396 0.0118396 -1.1905 1052.84 714.249)" gradientUnits="userSpaceOnUse" id="LinearGradient" x1="217.125" x2="581.727" y1="301.404" y2="301.404">
<stop offset="0" stop-color="#ead6b6"/>
<stop offset="0.972483" stop-color="#f9941e"/>
</linearGradient>
<linearGradient gradientTransform="matrix(1 0 0 1 0 0)" gradientUnits="userSpaceOnUse" id="LinearGradient_2" x1="241.027" x2="237.97" y1="526.092" y2="263.546">
<stop offset="0" stop-color="#ffffff"/>
<stop offset="1" stop-color="#eeeeee"/>
</linearGradient>
<linearGradient gradientTransform="matrix(1 0 0 1 0 0)" gradientUnits="userSpaceOnUse" id="LinearGradient_3" x1="701.557" x2="697.985" y1="535.453" y2="228.689">
<stop offset="0" stop-color="#ffffff"/>
<stop offset="1" stop-color="#eeeeee"/>
</linearGradient>
<linearGradient gradientTransform="matrix(1 0 0 1 0 0)" gradientUnits="userSpaceOnUse" id="LinearGradient_4" x1="650.491" x2="648.335" y1="316.667" y2="131.504">
<stop offset="0" stop-color="#ffffff"/>
<stop offset="1" stop-color="#eeeeee"/>
</linearGradient>
<linearGradient gradientTransform="matrix(1 0 0 1 0 0)" gradientUnits="userSpaceOnUse" id="LinearGradient_5" x1="351.101" x2="348.817" y1="572.573" y2="376.355">
<stop offset="0" stop-color="#ffffff"/>
<stop offset="1" stop-color="#eeeeee"/>
</linearGradient>
<linearGradient gradientTransform="matrix(1 0 0 1 0 0)" gradientUnits="userSpaceOnUse" id="LinearGradient_6" x1="607.708" x2="605.552" y1="206.059" y2="20.895">
<stop offset="0" stop-color="#ffffff"/>
<stop offset="1" stop-color="#eeeeee"/>
</linearGradient>
<linearGradient gradientTransform="matrix(1 0 0 1 0 0)" gradientUnits="userSpaceOnUse" id="LinearGradient_7" x1="226.151" x2="223.48" y1="334.376" y2="104.994">
<stop offset="0" stop-color="#ffffff"/>
<stop offset="1" stop-color="#eeeeee"/>
</linearGradient>
<linearGradient gradientTransform="matrix(0.243799 0 0 0.243799 359.842 100.327)" gradientUnits="userSpaceOnUse" id="LinearGradient_8" x1="248.98" x2="404.1" y1="457.81" y2="457.81">
<stop offset="0.000665432" stop-color="#9cd7a8"/>
<stop offset="0.997021" stop-color="#44983b"/>
</linearGradient>
</defs>
<g id="Untitled" vectornator:layerName="Untitled">
<path d="M807.778 430.533C772.851 362.463 795.151 402.096 762.585 353.26C743.716 242.548 743.085 93.4558 630.348 83.5621C495.801 71.7546 366.143 63.4254 248.591 87.8754C164.864 105.29 98.3603 137.141 91.7332 212.195C87.6371 258.585 163.577 509.373 228.096 547.08C278.332 576.441 293.616 590.003 409.01 586.181C494.706 583.343 553.456 587.573 616.638 586.202C649.788 585.483 688.042 566.079 726.003 542.143C815.474 485.727 819.616 466.382 807.778 430.533Z" fill="#96c5da" fill-opacity="0.362009" fill-rule="evenodd" opacity="1" stroke="none"/>
<path d="M370.607 469.133C388.235 528.781 561.996 624.522 687.355 530.347C745.657 486.546 708.596 487.964 742.536 425.424C762.766 388.149 800.663 301.902 798.74 258.856C797.089 221.699 777.991 187.92 751.873 170.817C693.131 132.356 599.529 124.996 549.451 236.302C499.372 347.606 325.16 315.293 370.607 469.133Z" fill="url(#LinearGradient)" fill-rule="evenodd" opacity="1" stroke="none"/>
<path d="M626.322 531.413L512.244 531.413L502.781 505.956C499.427 496.939 492.569 489.689 483.797 485.722C475.535 481.988 464.416 475.205 453.638 463.118C432.663 439.592 421.532 414.356 421.532 414.356L492.23 414.009C492.23 414.009 485.867 374.494 521.005 322.015C524.759 316.393 526.483 309.658 525.891 302.924L522.56 264.649C522.56 264.649 498.682 237.985 513.331 204.908C513.331 204.908 527.339 185.529 532.898 192.622C532.898 192.622 575.213 293.308 579.065 308.279C582.917 323.25 588.055 332.661 582.917 379.712C581.558 392.169 581.068 402.554 581.085 411.098C581.122 427.496 584.781 443.683 591.801 458.502C591.801 458.502 626.322 531.413 626.322 531.413Z" fill="#f8ae9d" fill-rule="evenodd" opacity="1" stroke="none"/>
<path d="M351.733 248.724C350.264 248.214 348.805 247.674 347.357 247.106L347.783 246.028C349.178 246.577 350.635 247.114 352.114 247.63C352.114 247.63 351.733 248.724 351.733 248.724Z" fill="#2f4e56" fill-rule="evenodd" opacity="1" stroke="none"/>
<path d="M357.593 140.145C357.593 140.145 335.719 125.522 330.726 135.157C325.732 144.79 359.143 178.877 359.143 178.877C359.143 178.877 357.593 140.145 357.593 140.145ZM357.594 204.324C357.594 204.324 335.72 189.703 330.726 199.336C325.733 208.969 359.144 243.056 359.144 243.056C359.144 243.056 357.594 204.324 357.594 204.324ZM357.594 247.713C357.594 247.713 335.72 233.092 330.726 242.725C325.733 252.358 359.144 286.445 359.144 286.445C359.144 286.445 357.594 247.713 357.594 247.713Z" fill="#f8ae9d" fill-rule="evenodd" opacity="1" stroke="none"/>
<path d="M374.438 107.384L507.087 107.384C516.965 107.384 524.975 115.384 524.975 125.257L524.975 396.139C524.975 406.091 516.881 414.013 507.087 414.013L374.438 414.013C364.562 414.013 356.55 406.015 356.55 396.139L356.55 125.255C356.55 115.295 364.655 107.384 374.438 107.384Z" fill="#2f4e56" fill-rule="evenodd" opacity="1" stroke="none"/>
<path d="M365.109 131.872L516.067 131.872L516.067 384.072L365.109 384.072L365.109 131.872ZM409.614 123.637L471.666 123.637C472.384 123.637 472.965 123.056 472.966 122.338L472.966 121.702C472.965 120.984 472.384 120.403 471.666 120.403L409.614 120.403C408.897 120.403 408.314 120.986 408.314 121.702L408.314 122.338C408.314 123.054 408.897 123.637 409.614 123.637Z" fill="#e3efee" fill-rule="evenodd" opacity="1" stroke="none"/>
<path d="M527.981 287.747C527.981 287.747 527.07 291.131 525.008 292.8L522.56 264.65C522.56 264.65 504.994 245.035 509.238 218.584C510.692 209.528 515.2 201.195 522.092 195.14C526.028 191.683 530.351 189.373 532.897 192.626C532.897 192.626 552.797 239.974 566.544 274.559C566.544 274.559 527.981 287.747 527.981 287.747Z" fill="#f8ae9d" fill-rule="evenodd" opacity="1" stroke="none"/>
<path d="M434.713 398.534C434.713 402.029 437.546 404.862 441.041 404.862C444.536 404.862 447.369 402.029 447.369 398.534C447.369 395.039 444.536 392.206 441.041 392.206C437.546 392.206 434.713 395.039 434.713 398.534Z" fill="#ffffff" fill-rule="evenodd" opacity="1" stroke="none"/>
<path d="M207.209 371.383L270.617 371.383C280.481 371.383 288.478 379.38 288.478 389.244L288.478 452.652C288.478 462.516 280.481 470.513 270.617 470.513L207.209 470.513C197.345 470.513 189.348 462.516 189.348 452.652L189.348 389.244C189.348 379.38 197.345 371.383 207.209 371.383Z" fill="url(#LinearGradient_2)" fill-rule="evenodd" opacity="1" stroke="none"/>
<path d="M662.044 354.688L736.13 354.688C747.656 354.688 757 364.032 757 375.558L757 449.644C757 461.17 747.656 470.514 736.13 470.514L662.044 470.514C650.518 470.514 641.174 461.17 641.174 449.644L641.174 375.558C641.174 364.032 650.518 354.688 662.044 354.688Z" fill="url(#LinearGradient_3)" fill-rule="evenodd" opacity="1" stroke="none"/>
<path d="M634.913 207.557L663.086 207.557C674.612 207.557 683.956 216.901 683.956 228.427L683.956 256.6C683.956 268.126 674.612 277.47 663.086 277.47L634.913 277.47C623.387 277.47 614.043 268.126 614.043 256.6L614.043 228.427C614.043 216.901 623.387 207.557 634.913 207.557Z" fill="url(#LinearGradient_4)" fill-rule="evenodd" opacity="1" stroke="none"/>
<path d="M334.594 456.949L364.449 456.949C376.663 456.949 386.565 466.851 386.565 479.065L386.565 508.92C386.565 521.134 376.663 531.036 364.449 531.036L334.594 531.036C322.38 531.036 312.478 521.134 312.478 508.92L312.478 479.065C312.478 466.851 322.38 456.949 334.594 456.949Z" fill="url(#LinearGradient_5)" fill-rule="evenodd" opacity="1" stroke="none"/>
<path d="M592.131 96.949L620.304 96.949C631.83 96.949 641.174 106.293 641.174 117.819L641.174 145.992C641.174 157.518 631.83 166.862 620.304 166.862L592.131 166.862C580.605 166.862 571.261 157.518 571.261 145.992L571.261 117.819C571.261 106.293 580.605 96.949 592.131 96.949Z" fill="url(#LinearGradient_6)" fill-rule="evenodd" opacity="1" stroke="none"/>
<path d="M201.87 199.209L246.739 199.209C258.265 199.209 267.609 208.553 267.609 220.079L267.609 264.948C267.609 276.474 258.265 285.818 246.739 285.818L201.87 285.818C190.344 285.818 181 276.474 181 264.948L181 220.079C181 208.553 190.344 199.209 201.87 199.209Z" fill="url(#LinearGradient_7)" fill-rule="evenodd" opacity="1" stroke="none"/>
<path d="M619.862 124.589L596.701 147.75C595.858 148.593 594.49 148.593 593.646 147.75L593.647 147.751C592.804 146.907 592.804 145.539 593.647 144.696L616.808 121.535C617.651 120.692 619.019 120.692 619.862 121.535L619.862 121.535C620.705 122.378 620.705 123.746 619.862 124.589Z" fill="#e1e4e5" fill-rule="evenodd" opacity="1" stroke="none"/>
<path d="M605.647 124.486L598.968 131.165C598.124 132.009 596.757 132.009 595.913 131.165L595.914 131.166C595.071 130.322 595.07 128.955 595.914 128.111L602.593 121.432C603.436 120.589 604.804 120.589 605.647 121.432L605.647 121.432C606.49 122.275 606.49 123.643 605.647 124.486Z" fill="#e1e4e5" fill-rule="evenodd" opacity="1" stroke="none"/>
<path d="M681.853 422.581L713.242 391.192C714.385 390.049 716.238 390.049 717.381 391.192L717.381 391.192C718.524 392.335 718.524 394.188 717.381 395.332L685.992 426.721C684.849 427.864 682.996 427.864 681.853 426.721L681.853 426.721C680.71 425.578 680.71 423.724 681.853 422.581Z" fill="#e1e4e5" fill-rule="evenodd" opacity="1" stroke="none"/>
<path d="M701.117 422.72L710.169 413.668C711.312 412.525 713.165 412.525 714.308 413.668L714.308 413.668C715.452 414.811 715.452 416.664 714.308 417.807L705.256 426.86C704.113 428.003 702.26 428.003 701.117 426.86L701.117 426.86C699.974 425.717 699.974 423.863 701.117 422.72Z" fill="#e1e4e5" fill-rule="evenodd" opacity="1" stroke="none"/>
<path d="M662.565 169.992C666.311 169.992 669.348 173.029 669.348 176.775C669.348 180.521 666.311 183.558 662.565 183.558C658.819 183.558 655.782 180.521 655.782 176.775C655.782 173.029 658.819 169.992 662.565 169.992Z" fill="#e1e4e5" fill-rule="evenodd" opacity="1" stroke="none"/>
<path d="M261.775 153.603L239.615 175.763C238.808 176.57 237.5 176.57 236.693 175.763L236.693 175.762C235.886 174.955 235.886 173.647 236.693 172.84L258.853 150.68C259.659 149.874 260.968 149.874 261.774 150.68L261.775 150.681C262.582 151.488 262.582 152.796 261.775 153.603Z" fill="#e1e4e5" fill-rule="evenodd" opacity="1" stroke="none"/>
<path d="M248.175 153.505L241.784 159.896C240.977 160.703 239.669 160.703 238.863 159.896L238.862 159.895C238.055 159.088 238.055 157.78 238.862 156.973L245.253 150.582C246.059 149.776 247.368 149.776 248.174 150.582L248.175 150.583C248.982 151.39 248.982 152.698 248.175 153.505Z" fill="#e1e4e5" fill-rule="evenodd" opacity="1" stroke="none"/>
<path d="M221.569 432.166L251.639 402.096C252.734 401.001 254.51 401.001 255.605 402.096L255.605 402.096C256.7 403.191 256.7 404.966 255.605 406.061L225.534 436.132C224.439 437.227 222.664 437.227 221.569 436.132L221.569 436.132C220.474 435.037 220.474 433.261 221.569 432.166Z" fill="#e1e4e5" fill-rule="evenodd" opacity="1" stroke="none"/>
<path d="M240.024 432.298L248.696 423.626C249.791 422.531 251.566 422.531 252.661 423.626L252.661 423.626C253.756 424.721 253.756 426.497 252.661 427.592L243.989 436.264C242.894 437.359 241.119 437.359 240.024 436.264L240.024 436.264C238.929 435.169 238.929 433.393 240.024 432.298Z" fill="#e1e4e5" fill-rule="evenodd" opacity="1" stroke="none"/>
<path d="M236.746 329.973C236.746 336.15 231.74 341.151 225.556 341.151C219.373 341.151 214.391 336.126 214.391 329.973C214.391 323.796 219.397 318.795 225.581 318.795C231.765 318.795 236.746 323.796 236.746 329.973Z" fill="none" fill-rule="evenodd" opacity="1" stroke="#e1e4e5" stroke-linecap="butt" stroke-linejoin="miter" stroke-width="5.612"/>
<path d="M249.669 220.067L249.896 220.067C251.243 237.957 265.434 238.232 265.434 238.232C265.434 238.232 249.785 238.518 249.785 259.189C249.785 238.518 234.137 238.232 234.137 238.232C234.137 238.232 248.322 237.957 249.669 220.067Z" fill="#e1e4e5" fill-rule="evenodd" opacity="1" stroke="none"/>
</g>
<g id="Layer-3" vectornator:layerName="Layer 3">
<path d="M435.544 239.78L422.104 208.313C416.704 195.667 425.98 181.617 439.731 181.617L439.731 181.617C453.084 181.617 462.092 195.27 456.848 207.54L443.078 239.78C442.434 241.288 440.951 242.268 439.311 242.268C437.671 242.268 436.189 241.288 435.544 239.78Z" fill="url(#LinearGradient_8)" fill-rule="evenodd" opacity="1" stroke="none"/>
<path d="M429.02 200.782C429.02 195.01 433.7 190.33 439.472 190.33C445.244 190.33 449.924 195.01 449.924 200.782C449.924 206.554 445.244 211.234 439.472 211.234C433.7 211.234 429.02 206.554 429.02 200.782Z" fill="#ffffff" fill-rule="evenodd" opacity="1" stroke="none"/>
<path d="M515.749 383.942L361.563 383.412C362.678 382.414 363.805 381.448 364.944 380.513C368.597 377.509 373.935 373.495 380.664 369.465C394.125 361.404 413.132 353.291 435.335 353.067C457.639 352.841 477.676 360.681 492.558 368.794C499.996 372.85 506.142 376.971 510.635 380.182C512.347 381.411 514.052 382.664 515.749 383.942Z" fill="#b6d2b2" fill-rule="evenodd" opacity="1" stroke="none"/>
<path d="M393.674 280.886L393.395 374.683L492.891 375.109L492.891 280.015L393.674 280.886Z" fill="#e9edfa" fill-rule="evenodd" opacity="1" stroke="none"/>
<path d="M392.845 370.316L493.732 370.316L493.732 370.316L493.732 375.47L493.732 375.47L392.845 375.47L392.845 375.47L392.845 370.316L392.845 370.316Z" fill="#bac6f2" fill-rule="evenodd" opacity="1" stroke="none"/>
<path d="M388.174 280.797L498.515 280.797L498.515 280.797L498.515 287.01L498.515 287.01L388.174 287.01L388.174 287.01L388.174 280.797L388.174 280.797Z" fill="#bac6f2" fill-rule="evenodd" opacity="1" stroke="none"/>
<path d="M389.918 281.809C389.918 281.809 391.095 253.883 402.566 253.349C412.013 252.908 460.436 253.288 477.117 253.531C486.941 253.677 495.353 265.245 496.55 280.778C496.575 281.119 496.599 281.462 496.621 281.809L389.918 281.809Z" fill="#bac6f2" fill-rule="evenodd" opacity="1" stroke="none"/>
<g opacity="1">
<path d="M486.823 323.085L492.706 323.085L492.706 329.176L487.117 329.176L486.823 323.085Z" fill="#b1c1f2" fill-rule="evenodd" opacity="1" stroke="none"/>
<path d="M489.25 297.642L492.779 297.642L492.779 303.733L489.544 303.733L489.25 297.642Z" fill="#b1c1f2" fill-rule="evenodd" opacity="1" stroke="none"/>
<path d="M397.977 343.116L407.39 343.116L407.39 343.116L407.39 348.739L407.39 348.739L397.977 348.739L397.977 348.739L397.977 343.116L397.977 343.116Z" fill="#b1c1f2" fill-rule="evenodd" opacity="1" stroke="none"/>
<path d="M394.648 318.418L404.06 318.418L404.06 318.418L404.06 324.041L404.06 324.041L394.648 324.041L394.648 324.041L394.648 318.418L394.648 318.418Z" fill="#b1c1f2" fill-rule="evenodd" opacity="1" stroke="none"/>
<path d="M400.495 298.415L409.907 298.415L409.907 298.415L409.907 304.038L409.907 304.038L400.495 304.038L400.495 304.038L400.495 298.415L400.495 298.415Z" fill="#b1c1f2" fill-rule="evenodd" opacity="1" stroke="none"/>
<path d="M433.964 293.486L443.377 293.486L443.377 293.486L443.377 299.108L443.377 299.108L433.964 299.108L433.964 299.108L433.964 293.486L433.964 293.486Z" fill="#b1c1f2" fill-rule="evenodd" opacity="1" stroke="none"/>
<path d="M481.455 312.186L490.867 312.186L490.867 312.186L490.867 317.809L490.867 317.809L481.455 317.809L481.455 317.809L481.455 312.186L481.455 312.186Z" fill="#b1c1f2" fill-rule="evenodd" opacity="1" stroke="none"/>
<path d="M476.364 355.608L485.776 355.608L485.776 355.608L485.776 361.23L485.776 361.23L476.364 361.23L476.364 361.23L476.364 355.608L476.364 355.608Z" fill="#b1c1f2" fill-rule="evenodd" opacity="1" stroke="none"/>
<path d="M454.018 288.992L463.431 288.992L463.431 288.992L463.431 294.615L463.431 294.615L454.018 294.615L454.018 294.615L454.018 288.992L454.018 288.992Z" fill="#b1c1f2" fill-rule="evenodd" opacity="1" stroke="none"/>
</g>
<g opacity="1">
<path d="M411.737 329.19L416.822 329.19L473.59 329.157C473.59 329.157 478.199 317.762 465.743 311.539C453.286 305.317 432.8 307.088 423.467 309.96C414.134 312.833 411.39 316.253 411.737 329.19Z" fill="#bac6f2" fill-rule="evenodd" opacity="1" stroke="none"/>
<path d="M412.481 329.42L411.984 370.246L473.425 370.246L473.425 328.389L411.487 327.546L412.481 329.42" fill="#bac6f2" fill-rule="evenodd" opacity="1" stroke="none"/>
<path d="M434.55 329.973L469.596 329.973L469.596 329.973L469.596 350.763L469.596 350.763L434.55 350.763L434.55 350.763L434.55 329.973L434.55 329.973Z" fill="#ffffff" fill-rule="evenodd" opacity="1" stroke="none"/>
<path d="M434.55 354.113L450.142 354.113L450.142 354.113L450.142 364.332L450.142 364.332L434.55 364.332L434.55 364.332L434.55 354.113L434.55 354.113Z" fill="#ffffff" fill-rule="evenodd" opacity="1" stroke="none"/>
<path d="M415.831 330.362L431.423 330.362L431.423 330.362L431.423 364.51L431.423 364.51L415.831 364.51L415.831 364.51L415.831 330.362L415.831 330.362Z" fill="#ffffff" fill-rule="evenodd" opacity="1" stroke="none"/>
<path d="M453.495 354.291L469.087 354.291L469.087 354.291L469.087 364.51L469.087 364.51L453.495 364.51L453.495 364.51L453.495 354.291L453.495 354.291Z" fill="#ffffff" fill-rule="evenodd" opacity="1" stroke="none"/>
<path d="M417.484 313.189L416.375 327.953L421.673 327.761L422.611 309.871L419.508 311.057L417.79 312.181" fill="#b1c1f2" fill-rule="evenodd" opacity="1" stroke="none"/>
<path d="M426.226 313.339L425.338 327.813L430.653 327.705L431.617 308.095L429.026 308.583L426.682 308.93" fill="#b1c1f2" fill-rule="evenodd" opacity="1" stroke="none"/>
<path d="M465.804 313.081L466.675 327.845L462.513 327.653L461.775 309.764L464.213 310.949L465.563 312.074" fill="#b1c1f2" fill-rule="evenodd" opacity="1" stroke="none"/>
<path d="M458.892 313.231L459.63 327.705L455.204 327.597L454.401 307.988L456.56 308.475L458.513 308.822" fill="#b1c1f2" fill-rule="evenodd" opacity="1" stroke="none"/>
<path d="M450.762 313.118L451.504 327.592L447.077 327.489L446.253 307.421L448.35 307.58L450.348 307.744" fill="#b1c1f2" fill-rule="evenodd" opacity="1" stroke="none"/>
<path d="M441.141 313.662L441.88 328.131L437.453 328.028L436.629 307.96L438.835 307.838L440.909 307.772" fill="#b1c1f2" fill-rule="evenodd" opacity="1" stroke="none"/>
</g>
<path d="M388.152 327.4L388.168 327.4C388.17 327.4 388.176 327.4 388.187 327.41C388.197 327.421 388.207 327.439 388.207 327.466L388.207 368.704L388.113 368.704L388.113 327.466C388.113 327.439 388.123 327.421 388.133 327.41C388.143 327.4 388.149 327.4 388.152 327.4C388.152 327.4 388.152 327.4 388.152 327.4Z" fill="#a2caa1" fill-rule="evenodd" opacity="1" stroke="#a2caa1" stroke-linecap="round" stroke-linejoin="round" stroke-width="3"/>
<path d="M399.235 341.036C399.235 348.759 394.161 355.703 387.902 355.703C381.643 355.703 376.569 348.759 376.569 341.036C376.569 333.313 384.361 310.886 387.902 310.886C391.444 310.886 399.235 333.313 399.235 341.036Z" fill="#a2caa1" fill-rule="evenodd" opacity="1" stroke="#a2caa1" stroke-linecap="round" stroke-linejoin="round" stroke-width="2"/>
</g>
<g id="Layer-2" vectornator:layerName="Layer 2"/>
<g id="Layer-1" vectornator:layerName="Layer 1"/>
</svg>
