<?xml version="1.0" encoding="UTF-8" standalone="no"?>
<!DOCTYPE svg PUBLIC "-//W3C//DTD SVG 1.1//EN" "http://www.w3.org/Graphics/SVG/1.1/DTD/svg11.dtd">

<!-- Created with Vectornator (http://vectornator.io/) -->
<svg height="100%" stroke-miterlimit="10" style="fill-rule:nonzero;clip-rule:evenodd;stroke-linecap:round;stroke-linejoin:round;" version="1.1" viewBox="0 0 976.03 688.74" width="100%" xml:space="preserve" xmlns="http://www.w3.org/2000/svg" xmlns:vectornator="http://vectornator.io" xmlns:xlink="http://www.w3.org/1999/xlink">
<metadata>
<vectornator:setting key="IsTimeLapseWatermarkDisabled" value="false"/>
<vectornator:setting key="UndoHistoryDisabled" value="true"/>
<vectornator:setting key="VNDimensionsVisible" value="true"/>
<vectornator:setting key="VNSnapToGuides" value="true"/>
<vectornator:setting key="WDCMYKEnabledKey" value="false"/>
<vectornator:setting key="WDDisplayWhiteBackground" value="false"/>
<vectornator:setting key="WDDynamicGuides" value="false"/>
<vectornator:setting key="WDGuidesVisible" value="true"/>
<vectornator:setting key="WDIsolateActiveLayer" value="false"/>
<vectornator:setting key="WDOutlineMode" value="false"/>
<vectornator:setting key="WDRulersVisible" value="true"/>
<vectornator:setting key="WDSnapToEdges" value="false"/>
<vectornator:setting key="WDSnapToGrid" value="false"/>
<vectornator:setting key="WDSnapToPoints" value="false"/>
<vectornator:setting key="WDUnits" value="Points"/>
</metadata>
<defs>
<linearGradient gradientTransform="matrix(0.386451 0 0 0.386451 172.439 188.907)" gradientUnits="userSpaceOnUse" id="LinearGradient" x1="248.98" x2="404.1" y1="457.81" y2="457.81">
<stop offset="0.000665432" stop-color="#9cd7a8"/>
<stop offset="0.997021" stop-color="#44983b"/>
</linearGradient>
<linearGradient gradientTransform="matrix(0.386451 0 0 0.386451 523.054 141.961)" gradientUnits="userSpaceOnUse" id="LinearGradient_2" x1="248.98" x2="404.1" y1="457.81" y2="457.81">
<stop offset="0" stop-color="#efba94"/>
<stop offset="0.994236" stop-color="#f03333"/>
</linearGradient>
<linearGradient gradientTransform="matrix(0.386451 0 0 0.386451 640.19 221.614)" gradientUnits="userSpaceOnUse" id="LinearGradient_3" x1="248.98" x2="404.1" y1="457.81" y2="457.81">
<stop offset="0" stop-color="#efd594"/>
<stop offset="0.975337" stop-color="#f9941e"/>
</linearGradient>
</defs>
<clipPath id="ArtboardFrame">
<rect height="688.74" width="976.03" x="0" y="0"/>
</clipPath>
<g clip-path="url(#ArtboardFrame)" id="bg" vectornator:layerName="bg">
<path d="M66.4721 246.528C66.0284 245.348 65.6937 244.129 65.4721 242.888C61.9821 221.368 45.5321 100.378 136.912 59.7679C181.912 39.7679 232.912 6.76785 397.912 67.7679C592.652 139.768 719.912 17.7679 749.912 17.7679C779.912 17.7679 847.912-26.2321 927.912 59.7679C1007.91 145.768 947.912 249.768 947.912 249.768C947.912 249.768 909.912 347.768 921.912 397.768C933.912 447.768 947.912 487.768 943.912 503.768C939.912 519.768 937.912 627.768 871.912 651.768C805.912 675.768 827.912 671.768 673.912 663.768C519.912 655.768 439.912 677.768 407.912 689.768C375.912 701.768 327.912 697.768 241.912 639.768C155.912 581.768 135.912 599.768 91.9121 573.768C47.9121 547.768-63.8679 403.968 29.9121 299.768C66.1621 259.488 67.3722 249.058 66.4721 246.528Z" fill="#96c5da" fill-opacity="0.362009" fill-rule="evenodd" opacity="1" stroke="none"/>
<path d="M165.5 162.52C165.5 145.907 178.967 132.44 195.58 132.44C212.193 132.44 225.66 145.907 225.66 162.52C225.66 179.133 212.193 192.6 195.58 192.6C178.967 192.6 165.5 179.133 165.5 162.52Z" fill="#ffffff" fill-rule="evenodd" opacity="1" stroke="none"/>
<path d="M207.77 162.38C207.77 151.069 216.939 141.9 228.25 141.9C239.561 141.9 248.73 151.069 248.73 162.38C248.73 173.691 239.561 182.86 228.25 182.86C216.939 182.86 207.77 173.691 207.77 162.38Z" fill="#ffffff" fill-rule="evenodd" opacity="1" stroke="none"/>
<path d="M144.83 161.96C144.83 152.858 152.208 145.48 161.31 145.48C170.412 145.48 177.79 152.858 177.79 161.96C177.79 171.062 170.412 178.44 161.31 178.44C152.208 178.44 144.83 171.062 144.83 161.96Z" fill="#ffffff" fill-rule="evenodd" opacity="1" stroke="none"/>
<path d="M755.51 114.83C755.51 98.2173 768.977 84.75 785.59 84.75C802.203 84.75 815.67 98.2173 815.67 114.83C815.67 131.443 802.203 144.91 785.59 144.91C768.977 144.91 755.51 131.443 755.51 114.83Z" fill="#ffffff" fill-rule="evenodd" opacity="1" stroke="none"/>
<path d="M797.78 114.69C797.78 103.379 806.949 94.21 818.26 94.21C829.571 94.21 838.74 103.379 838.74 114.69C838.74 126.001 829.571 135.17 818.26 135.17C806.949 135.17 797.78 126.001 797.78 114.69Z" fill="#ffffff" fill-rule="evenodd" opacity="1" stroke="none"/>
<path d="M734.84 114.27C734.84 105.168 742.218 97.79 751.32 97.79C760.422 97.79 767.8 105.168 767.8 114.27C767.8 123.372 760.422 130.75 751.32 130.75C742.218 130.75 734.84 123.372 734.84 114.27Z" fill="#ffffff" fill-rule="evenodd" opacity="1" stroke="none"/>
<path d="M429.08 219.68C429.08 203.067 442.547 189.6 459.16 189.6C475.773 189.6 489.24 203.067 489.24 219.68C489.24 236.293 475.773 249.76 459.16 249.76C442.547 249.76 429.08 236.293 429.08 219.68Z" fill="#ffffff" fill-rule="evenodd" opacity="1" stroke="none"/>
<path d="M471.34 219.54C471.34 208.229 480.509 199.06 491.82 199.06C503.131 199.06 512.3 208.229 512.3 219.54C512.3 230.851 503.131 240.02 491.82 240.02C480.509 240.02 471.34 230.851 471.34 219.54Z" fill="#ffffff" fill-rule="evenodd" opacity="1" stroke="none"/>
<path d="M408.41 219.12C408.41 210.018 415.788 202.64 424.89 202.64C433.992 202.64 441.37 210.018 441.37 219.12C441.37 228.222 433.992 235.6 424.89 235.6C415.788 235.6 408.41 228.222 408.41 219.12Z" fill="#ffffff" fill-rule="evenodd" opacity="1" stroke="none"/>
</g>
<g id="build-1" vectornator:layerName="build 1">
<path d="M23.43 485.25C23.43 485.25 42.43 457.25 44.43 453.25C46.43 449.25 45.43 433.25 45.43 433.25L38.43 433.25C38.43 433.25 44.43 416.25 61.43 416.25C78.43 416.25 83.43 424.25 85.43 428.25C87.43 432.25 86.43 434.25 86.43 434.25L80.43 434.25L80.43 450.25L109.43 498.25L121.43 498.25L121.43 576.25C121.43 576.25 50.43 539.25 23.43 485.25Z" fill="#bac6f2" fill-rule="evenodd" opacity="1" stroke="none"/>
<path d="M90.43 556.25L104.43 556.25L104.43 536.25C104.43 536.25 97.43 525.25 90.43 536.25L90.43 556.25Z" fill="#ffffff" fill-rule="evenodd" opacity="1" stroke="none"/>
<path d="M85.95 506.75C85.95 501.873 89.9033 497.92 94.78 497.92C99.6567 497.92 103.61 501.873 103.61 506.75C103.61 511.627 99.6567 515.58 94.78 515.58C89.9033 515.58 85.95 511.627 85.95 506.75Z" fill="#e9edfa" fill-rule="evenodd" opacity="1" stroke="none"/>
<path d="M29.22 496.08C33.1694 493.299 38.6208 494.207 41.4548 498.119C44.2888 502.031 43.4535 507.494 39.58 510.38" fill="#e9edfa" fill-rule="evenodd" opacity="1" stroke="none"/>
<path d="M54.38 466.71C54.38 461.833 58.3333 457.88 63.21 457.88C68.0867 457.88 72.04 461.833 72.04 466.71C72.04 471.587 68.0867 475.54 63.21 475.54C58.3333 475.54 54.38 471.587 54.38 466.71Z" fill="#e9edfa" fill-rule="evenodd" opacity="1" stroke="none"/>
<path d="M48.53 499.66C48.573 497.375 49.403 495.174 50.88 493.43C53.6895 489.941 57.8561 487.82 62.33 487.6C71.63 487.35 75.71 495.17 76.28 498.37C77.14 503.2 76.95 527.52 76.95 527.52L55.18 527.4L48.36 520.25L48.53 499.66Z" fill="#ffffff" fill-rule="evenodd" opacity="1" stroke="none"/>
</g>
<g id="build-2" vectornator:layerName="build 2">
<path d="M119.15 467.37L121.43 576.25C121.43 576.25 162.65 591.63 180.03 595.3C197.41 598.97 237.85 622.04 237.85 622.04L237.17 467.88L119.17 467.09" fill="#e9edfa" fill-rule="evenodd" opacity="1" stroke="none"/>
<path d="M118.31 467.37L237.17 467.87L236.63 439.46L201.43 439.46C201.43 439.46 197.06 422.46 180.67 422.46C160.56 422.46 157.21 440.36 157.21 440.36L118.21 439.95L118.31 467.37Z" fill="#bac6f2" fill-rule="evenodd" opacity="1" stroke="none"/>
<path d="M130.88 483.52L151.9 483.52L151.9 483.52L151.9 506.32L151.9 506.32L130.88 506.32L130.88 506.32L130.88 483.52L130.88 483.52Z" fill="#bac6f2" fill-rule="evenodd" opacity="1" stroke="none"/>
<path d="M168.86 483.2L189.88 483.2L189.88 483.2L189.88 506L189.88 506L168.86 506L168.86 506L168.86 483.2L168.86 483.2Z" fill="#bac6f2" fill-rule="evenodd" opacity="1" stroke="none"/>
<path d="M206.35 483.53L227.37 483.53L227.37 483.53L227.37 506.33L227.37 506.33L206.35 506.33L206.35 506.33L206.35 483.53L206.35 483.53Z" fill="#ffffff" fill-rule="evenodd" opacity="1" stroke="none"/>
<path d="M206.67 526.42L227.69 526.42L227.69 526.42L227.69 549.22L227.69 549.22L206.67 549.22L206.67 549.22L206.67 526.42L206.67 526.42Z" fill="#bac6f2" fill-rule="evenodd" opacity="1" stroke="none"/>
<path d="M206.97 576.33L227.99 576.33L227.99 576.33L227.99 599.13L227.99 599.13L206.97 599.13L206.97 599.13L206.97 576.33L206.97 576.33Z" fill="#bac6f2" fill-rule="evenodd" opacity="1" stroke="none"/>
<path d="M168.04 525.77L189.06 525.77L189.06 525.77L189.06 548.57L189.06 548.57L168.04 548.57L168.04 548.57L168.04 525.77L168.04 525.77Z" fill="#bac6f2" fill-rule="evenodd" opacity="1" stroke="none"/>
<path d="M168.04 525.77L189.06 525.77L189.06 525.77L189.06 548.57L189.06 548.57L168.04 548.57L168.04 548.57L168.04 525.77L168.04 525.77Z" fill="#ffffff" fill-rule="evenodd" opacity="1" stroke="none"/>
<path d="M131.04 526.75L152.06 526.75L152.06 526.75L152.06 549.55L152.06 549.55L131.04 549.55L131.04 549.55L131.04 526.75L131.04 526.75Z" fill="#bac6f2" fill-rule="evenodd" opacity="1" stroke="none"/>
<path d="M131.51 579.71L131.35 573.05L151.76 573.47L151.82 586.88C151.82 586.88 136.71 581.86 131.51 579.71Z" fill="#bac6f2" fill-rule="evenodd" opacity="1" stroke="none"/>
<path d="M169.17 592.26L168.87 575.28L189.56 575.71L189.1 597.92L169.17 592.26Z" fill="#bac6f2" fill-rule="evenodd" opacity="1" stroke="none"/>
<path d="M167.99 444.38C167.99 437.996 173.166 432.82 179.55 432.82C185.934 432.82 191.11 437.996 191.11 444.38C191.11 450.764 185.934 455.94 179.55 455.94C173.166 455.94 167.99 450.764 167.99 444.38Z" fill="#ffffff" fill-rule="evenodd" opacity="1" stroke="none"/>
</g>
<g id="build-3" vectornator:layerName="build 3">
<path d="M236.82 543.78L237.82 622.05C237.82 622.05 300.1 663.49 304.04 666.45C307.98 669.41 340.55 685.2 355.36 686.19L358.03 528.25L349.28 527.91L306.49 474.77L290.64 474.01L236.83 543.74" fill="#bac6f2" fill-rule="evenodd" opacity="1" stroke="none"/>
<path d="M236.82 543.78L290.69 476.11L296.64 476.33L303.44 476.73L307.19 477.12L349.28 527.96L358.03 528.29L358.03 525.26L349.61 524.92L309.29 475.64L309.55 456.58L290.02 455.57L289.27 475.08L237.49 500.01L236.82 543.78Z" fill="#e9edfa" fill-rule="evenodd" opacity="1" stroke="none"/>
<path d="M271.01 529.1L280.81 529.1L280.81 529.1L280.81 540.56L280.81 540.56L271.01 540.56L271.01 540.56L271.01 529.1L271.01 529.1Z" fill="#ffffff" fill-rule="evenodd" opacity="1" stroke="none"/>
<path d="M314.22 529.19L324.02 529.19L324.02 529.19L324.02 540.65L324.02 540.65L314.22 540.65L314.22 540.65L314.22 529.19L314.22 529.19Z" fill="#ffffff" fill-rule="evenodd" opacity="1" stroke="none"/>
<path d="M298.32 529.16L308.12 529.16L308.12 529.16L308.12 540.62L308.12 540.62L298.32 540.62L298.32 540.62L298.32 529.16L298.32 529.16Z" fill="#ffffff" fill-rule="evenodd" opacity="1" stroke="none"/>
<path d="M285.31 529.07L295.11 529.07L295.11 529.07L295.11 540.53L295.11 540.53L285.31 540.53L285.31 540.53L285.31 529.07L285.31 529.07Z" fill="#ffffff" fill-rule="evenodd" opacity="1" stroke="none"/>
<path d="M271.02 546.62L280.82 546.62L280.82 546.62L280.82 558.08L280.82 558.08L271.02 558.08L271.02 558.08L271.02 546.62L271.02 546.62Z" fill="#ffffff" fill-rule="evenodd" opacity="1" stroke="none"/>
<path d="M314.23 546.71L324.03 546.71L324.03 546.71L324.03 558.17L324.03 558.17L314.23 558.17L314.23 558.17L314.23 546.71L314.23 546.71Z" fill="#ffffff" fill-rule="evenodd" opacity="1" stroke="none"/>
<path d="M298.34 546.69L308.14 546.69L308.14 546.69L308.14 558.15L308.14 558.15L298.34 558.15L298.34 558.15L298.34 546.69L298.34 546.69Z" fill="#ffffff" fill-rule="evenodd" opacity="1" stroke="none"/>
<path d="M285.33 546.6L295.13 546.6L295.13 546.6L295.13 558.06L295.13 558.06L285.33 558.06L285.33 558.06L285.33 546.6L285.33 546.6Z" fill="#ffffff" fill-rule="evenodd" opacity="1" stroke="none"/>
<path d="M247.77 598.39L257.57 598.39L257.57 598.39L257.57 609.85L257.57 609.85L247.77 609.85L247.77 609.85L247.77 598.39L247.77 598.39Z" fill="#ffffff" fill-rule="evenodd" opacity="1" stroke="none"/>
<path d="M260.5 585.21L270.3 585.21L270.3 585.21L270.3 596.67L270.3 596.67L260.5 596.67L260.5 596.67L260.5 585.21L260.5 585.21Z" fill="#ffffff" fill-rule="evenodd" opacity="1" stroke="none"/>
<path d="M247.49 585.12L257.29 585.12L257.29 585.12L257.29 596.58L257.29 596.58L247.49 596.58L247.49 596.58L247.49 585.12L247.49 585.12Z" fill="#ffffff" fill-rule="evenodd" opacity="1" stroke="none"/>
<path d="M260.63 598.5L270.43 598.5L270.43 598.5L270.43 609.96L270.43 609.96L260.63 609.96L260.63 609.96L260.63 598.5L260.63 598.5Z" fill="#ffffff" fill-rule="evenodd" opacity="1" stroke="none"/>
<path d="M286.16 598.66L295.96 598.66L295.96 598.66L295.96 610.12L295.96 610.12L286.16 610.12L286.16 610.12L286.16 598.66L286.16 598.66Z" fill="#ffffff" fill-rule="evenodd" opacity="1" stroke="none"/>
<path d="M298.88 585.48L308.68 585.48L308.68 585.48L308.68 596.94L308.68 596.94L298.88 596.94L298.88 596.94L298.88 585.48L298.88 585.48Z" fill="#ffffff" fill-rule="evenodd" opacity="1" stroke="none"/>
<path d="M285.87 585.39L295.67 585.39L295.67 585.39L295.67 596.85L295.67 596.85L285.87 596.85L285.87 596.85L285.87 585.39L285.87 585.39Z" fill="#ffffff" fill-rule="evenodd" opacity="1" stroke="none"/>
<path d="M299.01 598.77L308.81 598.77L308.81 598.77L308.81 610.23L308.81 610.23L299.01 610.23L299.01 610.23L299.01 598.77L299.01 598.77Z" fill="#ffffff" fill-rule="evenodd" opacity="1" stroke="none"/>
<path d="M323.32 599.04L333.12 599.04L333.12 599.04L333.12 610.5L333.12 610.5L323.32 610.5L323.32 610.5L323.32 599.04L323.32 599.04Z" fill="#ffffff" fill-rule="evenodd" opacity="1" stroke="none"/>
<path d="M336.04 585.85L345.84 585.85L345.84 585.85L345.84 597.31L345.84 597.31L336.04 597.31L336.04 597.31L336.04 585.85L336.04 585.85Z" fill="#ffffff" fill-rule="evenodd" opacity="1" stroke="none"/>
<path d="M323.03 585.76L332.83 585.76L332.83 585.76L332.83 597.22L332.83 597.22L323.03 597.22L323.03 597.22L323.03 585.76L323.03 585.76Z" fill="#ffffff" fill-rule="evenodd" opacity="1" stroke="none"/>
<path d="M336.17 599.15L345.97 599.15L345.97 599.15L345.97 610.61L345.97 610.61L336.17 610.61L336.17 610.61L336.17 599.15L336.17 599.15Z" fill="#ffffff" fill-rule="evenodd" opacity="1" stroke="none"/>
<path d="M322.8 654.99L332.6 654.99L332.6 654.99L332.6 671.34L332.6 671.34L322.8 671.34L322.8 671.34L322.8 654.99L322.8 654.99Z" fill="#ffffff" fill-rule="evenodd" opacity="1" stroke="none"/>
<path d="M335.53 641.8L345.33 641.8L345.33 641.8L345.33 653.26L345.33 653.26L335.53 653.26L335.53 653.26L335.53 641.8L335.53 641.8Z" fill="#ffffff" fill-rule="evenodd" opacity="1" stroke="none"/>
<path d="M322.52 641.72L332.32 641.72L332.32 641.72L332.32 653.18L332.32 653.18L322.52 653.18L322.52 653.18L322.52 641.72L322.52 641.72Z" fill="#ffffff" fill-rule="evenodd" opacity="1" stroke="none"/>
<path d="M296.96 641.48L306.76 641.48L306.76 641.48L306.76 652.94L306.76 652.94L296.96 652.94L296.96 652.94L296.96 641.48L296.96 641.48Z" fill="#ffffff" fill-rule="evenodd" opacity="1" stroke="none"/>
<path d="M306.85 668.15L297.06 661.78L297.01 655.49L306.81 655.49L306.85 668.15Z" fill="#ffffff" fill-rule="evenodd" opacity="1" stroke="none"/>
<path d="M283.95 641.39L293.75 641.39L293.75 641.39L293.75 652.85L293.75 652.85L283.95 652.85L283.95 652.85L283.95 641.39L283.95 641.39Z" fill="#ffffff" fill-rule="evenodd" opacity="1" stroke="none"/>
<path d="M293.7 659.38L291.21 657.66L287.13 654.97L293.68 654.99L293.7 659.38Z" fill="#ffffff" fill-rule="evenodd" opacity="1" stroke="none"/>
<path d="M335.66 655.1L345.46 655.1L345.46 655.1L345.46 671.38L345.46 671.38L335.66 671.38L335.66 671.38L335.66 655.1L335.66 655.1Z" fill="#ffffff" fill-rule="evenodd" opacity="1" stroke="none"/>
</g>
<g id="build-4" vectornator:layerName="build 4">
<path d="M408.75 423.96L427.22 423.96L426.94 414.95L408.45 414.76L408.75 423.96Z" fill="#bac6f2" fill-rule="evenodd" opacity="1" stroke="none"/>
<path d="M357.2 508.49L355.43 686.18C355.43 686.18 387.17 691.07 415.72 683.86C444.27 676.65 477.33 668.86 477.33 668.86L478.43 510.18L459.21 500.74L428.03 445.54L427.26 423.96L408.76 423.96L408.17 445.54L375.32 499.77L357.2 508.49Z" fill="#e9edfa" fill-rule="evenodd" opacity="1" stroke="none"/>
<path d="M404.66 523.73L416.78 523.73L416.78 523.73L416.78 538.81L416.78 538.81L404.66 538.81L404.66 538.81L404.66 523.73L404.66 523.73Z" fill="#bac6f2" fill-rule="evenodd" opacity="1" stroke="none"/>
<path d="M421.09 524L434.02 524L434.02 524L434.02 538.81L434.02 538.81L421.09 538.81L421.09 538.81L421.09 524L421.09 524Z" fill="#bac6f2" fill-rule="evenodd" opacity="1" stroke="none"/>
<path d="M404.39 541.63L416.51 541.63L416.51 541.63L416.51 556.71L416.51 556.71L404.39 556.71L404.39 556.71L404.39 541.63L404.39 541.63Z" fill="#bac6f2" fill-rule="evenodd" opacity="1" stroke="none"/>
<path d="M420.82 541.9L433.75 541.9L433.75 541.9L433.75 556.71L433.75 556.71L420.82 556.71L420.82 556.71L420.82 541.9L420.82 541.9Z" fill="#bac6f2" fill-rule="evenodd" opacity="1" stroke="none"/>
<path d="M404.92 577.56L417.04 577.56L417.04 577.56L417.04 592.64L417.04 592.64L404.92 592.64L404.92 592.64L404.92 577.56L404.92 577.56Z" fill="#bac6f2" fill-rule="evenodd" opacity="1" stroke="none"/>
<path d="M376.36 577.47L388.48 577.47L388.48 577.47L388.48 592.55L388.48 592.55L376.36 592.55L376.36 592.55L376.36 577.47L376.36 577.47Z" fill="#bac6f2" fill-rule="evenodd" opacity="1" stroke="none"/>
<path d="M448.04 578.14L460.16 578.14L460.16 578.14L460.16 593.22L460.16 593.22L448.04 593.22L448.04 593.22L448.04 578.14L448.04 578.14Z" fill="#bac6f2" fill-rule="evenodd" opacity="1" stroke="none"/>
<path d="M448.39 644.57L460.51 644.57L460.51 644.57L460.51 659.65L460.51 659.65L448.39 659.65L448.39 659.65L448.39 644.57L448.39 644.57Z" fill="#bac6f2" fill-rule="evenodd" opacity="1" stroke="none"/>
<path d="M376.5 645L388.62 645L388.62 645L388.62 660.08L388.62 660.08L376.5 660.08L376.5 660.08L376.5 645L376.5 645Z" fill="#bac6f2" fill-rule="evenodd" opacity="1" stroke="none"/>
<path d="M421.35 577.82L434.28 577.82L434.28 577.82L434.28 592.63L434.28 592.63L421.35 592.63L421.35 592.63L421.35 577.82L421.35 577.82Z" fill="#bac6f2" fill-rule="evenodd" opacity="1" stroke="none"/>
<path d="M404.65 595.46L416.77 595.46L416.77 595.46L416.77 610.54L416.77 610.54L404.65 610.54L404.65 610.54L404.65 595.46L404.65 595.46Z" fill="#bac6f2" fill-rule="evenodd" opacity="1" stroke="none"/>
<path d="M421.08 595.73L434.01 595.73L434.01 595.73L434.01 610.54L434.01 610.54L421.08 610.54L421.08 610.54L421.08 595.73L421.08 595.73Z" fill="#bac6f2" fill-rule="evenodd" opacity="1" stroke="none"/>
<path d="M404.7 642.91L416.82 642.91L416.82 642.91L416.82 657.99L416.82 657.99L404.7 657.99L404.7 657.99L404.7 642.91L404.7 642.91Z" fill="#bac6f2" fill-rule="evenodd" opacity="1" stroke="none"/>
<path d="M421.13 643.18L434.06 643.18L434.06 643.18L434.06 657.99L434.06 657.99L421.13 657.99L421.13 657.99L421.13 643.18L421.13 643.18Z" fill="#bac6f2" fill-rule="evenodd" opacity="1" stroke="none"/>
<path d="M404.43 660.82L416.55 660.82L416.55 660.82L416.55 675.9L416.55 675.9L404.43 675.9L404.43 675.9L404.43 660.82L404.43 660.82Z" fill="#bac6f2" fill-rule="evenodd" opacity="1" stroke="none"/>
<path d="M420.86 661.09L433.79 661.09L433.79 661.09L433.79 675.9L433.79 675.9L420.86 675.9L420.86 675.9L420.86 661.09L420.86 661.09Z" fill="#bac6f2" fill-rule="evenodd" opacity="1" stroke="none"/>
<path d="M374.62 540.49C374.62 535.812 378.412 532.02 383.09 532.02C387.768 532.02 391.56 535.812 391.56 540.49C391.56 545.168 387.768 548.96 383.09 548.96C378.412 548.96 374.62 545.168 374.62 540.49Z" fill="#bac6f2" fill-rule="evenodd" opacity="1" stroke="none"/>
<path d="M443.31 542.37C443.31 537.692 447.102 533.9 451.78 533.9C456.458 533.9 460.25 537.692 460.25 542.37C460.25 547.048 456.458 550.84 451.78 550.84C447.102 550.84 443.31 547.048 443.31 542.37Z" fill="#bac6f2" fill-rule="evenodd" opacity="1" stroke="none"/>
<path d="M357.2 508.49L375.67 508.49L375.38 499.48L356.89 499.29L357.2 508.49Z" fill="#bac6f2" fill-rule="evenodd" opacity="1" stroke="none"/>
<path d="M459.93 510.18L478.4 510.18L478.11 501.17L459.63 500.98L459.93 510.18Z" fill="#bac6f2" fill-rule="evenodd" opacity="1" stroke="none"/>
<path d="M404.11 489.57C404.11 481.529 410.629 475.01 418.67 475.01C426.711 475.01 433.23 481.529 433.23 489.57C433.23 497.611 426.711 504.13 418.67 504.13C410.629 504.13 404.11 497.611 404.11 489.57Z" fill="#bac6f2" fill-rule="evenodd" opacity="1" stroke="none"/>
</g>
<g id="build-5" vectornator:layerName="build 5">
<path d="M470.77 510.94L471.84 587.62C471.84 587.62 474.64 669.77 474.91 669.5C481.48 662.71 582.99 655.78 594.72 655.5L591.99 495.5L583.24 495.16L540.43 441.98L524.58 441.22L470.77 510.95" fill="#bac6f2" fill-rule="evenodd" opacity="1" stroke="none"/>
<path d="M470.77 510.94L524.64 443.27L530.59 443.5L537.39 443.9L541.14 444.28L583.23 495.12L591.98 495.46L591.98 492.43L583.56 492.09L543.24 442.8L543.5 423.74L523.97 422.73L523.22 442.25L470.81 501.12L470.77 510.94Z" fill="#e9edfa" fill-rule="evenodd" opacity="1" stroke="none"/>
<path d="M504.95 496.26L514.75 496.26L514.75 496.26L514.75 507.72L514.75 507.72L504.95 507.72L504.95 507.72L504.95 496.26L504.95 496.26Z" fill="#ffffff" fill-rule="evenodd" opacity="1" stroke="none"/>
<path d="M548.17 496.36L557.97 496.36L557.97 496.36L557.97 507.82L557.97 507.82L548.17 507.82L548.17 507.82L548.17 496.36L548.17 496.36Z" fill="#ffffff" fill-rule="evenodd" opacity="1" stroke="none"/>
<path d="M532.27 496.33L542.07 496.33L542.07 496.33L542.07 507.79L542.07 507.79L532.27 507.79L532.27 507.79L532.27 496.33L532.27 496.33Z" fill="#ffffff" fill-rule="evenodd" opacity="1" stroke="none"/>
<path d="M519.26 496.24L529.06 496.24L529.06 496.24L529.06 507.7L529.06 507.7L519.26 507.7L519.26 507.7L519.26 496.24L519.26 496.24Z" fill="#ffffff" fill-rule="evenodd" opacity="1" stroke="none"/>
<path d="M504.97 513.78L514.77 513.78L514.77 513.78L514.77 525.24L514.77 525.24L504.97 525.24L504.97 525.24L504.97 513.78L504.97 513.78Z" fill="#ffffff" fill-rule="evenodd" opacity="1" stroke="none"/>
<path d="M548.18 513.88L557.98 513.88L557.98 513.88L557.98 525.34L557.98 525.34L548.18 525.34L548.18 525.34L548.18 513.88L548.18 513.88Z" fill="#ffffff" fill-rule="evenodd" opacity="1" stroke="none"/>
<path d="M532.29 513.85L542.09 513.85L542.09 513.85L542.09 525.31L542.09 525.31L532.29 525.31L532.29 525.31L532.29 513.85L532.29 513.85Z" fill="#ffffff" fill-rule="evenodd" opacity="1" stroke="none"/>
<path d="M519.28 513.76L529.08 513.76L529.08 513.76L529.08 525.22L529.08 525.22L519.28 525.22L519.28 525.22L519.28 513.76L519.28 513.76Z" fill="#ffffff" fill-rule="evenodd" opacity="1" stroke="none"/>
<path d="M481.95 573.78L491.75 573.78L491.75 573.78L491.75 585.24L491.75 585.24L481.95 585.24L481.95 585.24L481.95 573.78L481.95 573.78Z" fill="#ffffff" fill-rule="evenodd" opacity="1" stroke="none"/>
<path d="M494.67 560.6L504.47 560.6L504.47 560.6L504.47 572.06L504.47 572.06L494.67 572.06L494.67 572.06L494.67 560.6L494.67 560.6Z" fill="#ffffff" fill-rule="evenodd" opacity="1" stroke="none"/>
<path d="M481.66 560.51L491.46 560.51L491.46 560.51L491.46 571.97L491.46 571.97L481.66 571.97L481.66 571.97L481.66 560.51L481.66 560.51Z" fill="#ffffff" fill-rule="evenodd" opacity="1" stroke="none"/>
<path d="M494.8 573.89L504.6 573.89L504.6 573.89L504.6 585.35L504.6 585.35L494.8 585.35L494.8 585.35L494.8 573.89L494.8 573.89Z" fill="#ffffff" fill-rule="evenodd" opacity="1" stroke="none"/>
<path d="M520.33 574.05L530.13 574.05L530.13 574.05L530.13 585.51L530.13 585.51L520.33 585.51L520.33 585.51L520.33 574.05L520.33 574.05Z" fill="#ffffff" fill-rule="evenodd" opacity="1" stroke="none"/>
<path d="M533.06 560.87L542.86 560.87L542.86 560.87L542.86 572.33L542.86 572.33L533.06 572.33L533.06 572.33L533.06 560.87L533.06 560.87Z" fill="#ffffff" fill-rule="evenodd" opacity="1" stroke="none"/>
<path d="M520.05 560.78L529.85 560.78L529.85 560.78L529.85 572.24L529.85 572.24L520.05 572.24L520.05 572.24L520.05 560.78L520.05 560.78Z" fill="#ffffff" fill-rule="evenodd" opacity="1" stroke="none"/>
<path d="M533.19 574.16L542.99 574.16L542.99 574.16L542.99 585.62L542.99 585.62L533.19 585.62L533.19 585.62L533.19 574.16L533.19 574.16Z" fill="#ffffff" fill-rule="evenodd" opacity="1" stroke="none"/>
<path d="M557.49 574.43L567.29 574.43L567.29 574.43L567.29 585.89L567.29 585.89L557.49 585.89L557.49 585.89L557.49 574.43L557.49 574.43Z" fill="#ffffff" fill-rule="evenodd" opacity="1" stroke="none"/>
<path d="M570.22 561.24L580.02 561.24L580.02 561.24L580.02 572.7L580.02 572.7L570.22 572.7L570.22 572.7L570.22 561.24L570.22 561.24Z" fill="#ffffff" fill-rule="evenodd" opacity="1" stroke="none"/>
<path d="M557.21 561.15L567.01 561.15L567.01 561.15L567.01 572.61L567.01 572.61L557.21 572.61L557.21 572.61L557.21 561.15L557.21 561.15Z" fill="#ffffff" fill-rule="evenodd" opacity="1" stroke="none"/>
<path d="M570.35 574.54L580.15 574.54L580.15 574.54L580.15 586L580.15 586L570.35 586L570.35 586L570.35 574.54L570.35 574.54Z" fill="#ffffff" fill-rule="evenodd" opacity="1" stroke="none"/>
<path d="M482.22 624.04L492.02 624.04L492.02 624.04L492.02 635.5L492.02 635.5L482.22 635.5L482.22 635.5L482.22 624.04L482.22 624.04Z" fill="#ffffff" fill-rule="evenodd" opacity="1" stroke="none"/>
<path d="M494.94 610.85L504.74 610.85L504.74 610.85L504.74 622.31L504.74 622.31L494.94 622.31L494.94 622.31L494.94 610.85L494.94 610.85Z" fill="#ffffff" fill-rule="evenodd" opacity="1" stroke="none"/>
<path d="M481.93 610.76L491.73 610.76L491.73 610.76L491.73 622.22L491.73 622.22L481.93 622.22L481.93 622.22L481.93 610.76L481.93 610.76Z" fill="#ffffff" fill-rule="evenodd" opacity="1" stroke="none"/>
<path d="M495.07 624.14L504.87 624.14L504.87 624.14L504.87 635.6L504.87 635.6L495.07 635.6L495.07 635.6L495.07 624.14L495.07 624.14Z" fill="#ffffff" fill-rule="evenodd" opacity="1" stroke="none"/>
<path d="M520.6 624.31L530.4 624.31L530.4 624.31L530.4 635.77L530.4 635.77L520.6 635.77L520.6 635.77L520.6 624.31L520.6 624.31Z" fill="#ffffff" fill-rule="evenodd" opacity="1" stroke="none"/>
<path d="M533.33 611.12L543.13 611.12L543.13 611.12L543.13 622.58L543.13 622.58L533.33 622.58L533.33 622.58L533.33 611.12L533.33 611.12Z" fill="#ffffff" fill-rule="evenodd" opacity="1" stroke="none"/>
<path d="M520.32 611.03L530.12 611.03L530.12 611.03L530.12 622.49L530.12 622.49L520.32 622.49L520.32 622.49L520.32 611.03L520.32 611.03Z" fill="#ffffff" fill-rule="evenodd" opacity="1" stroke="none"/>
<path d="M533.46 624.41L543.26 624.41L543.26 624.41L543.26 635.87L543.26 635.87L533.46 635.87L533.46 635.87L533.46 624.41L533.46 624.41Z" fill="#ffffff" fill-rule="evenodd" opacity="1" stroke="none"/>
<path d="M557.76 624.68L567.56 624.68L567.56 624.68L567.56 636.14L567.56 636.14L557.76 636.14L557.76 636.14L557.76 624.68L557.76 624.68Z" fill="#ffffff" fill-rule="evenodd" opacity="1" stroke="none"/>
<path d="M570.49 611.5L580.29 611.5L580.29 611.5L580.29 622.96L580.29 622.96L570.49 622.96L570.49 622.96L570.49 611.5L570.49 611.5Z" fill="#ffffff" fill-rule="evenodd" opacity="1" stroke="none"/>
<path d="M557.48 611.41L567.28 611.41L567.28 611.41L567.28 622.87L567.28 622.87L557.48 622.87L557.48 622.87L557.48 611.41L557.48 611.41Z" fill="#ffffff" fill-rule="evenodd" opacity="1" stroke="none"/>
<path d="M570.62 624.79L580.42 624.79L580.42 624.79L580.42 636.25L580.42 636.25L570.62 636.25L570.62 636.25L570.62 624.79L570.62 624.79Z" fill="#ffffff" fill-rule="evenodd" opacity="1" stroke="none"/>
</g>
<g id="build-6" vectornator:layerName="build 6">
<path d="M603.43 474.42C603.43 474.42 629.29 433.25 631.29 429.25C633.29 425.25 632.29 409.25 632.29 409.25L625.29 409.25C625.29 409.25 631.29 392.25 648.29 392.25C665.29 392.25 670.29 400.25 672.29 404.25C674.29 408.25 673.29 410.25 673.29 410.25L667.29 410.25L667.29 426.25L696.29 474.25L708.29 474.25L712.23 659.16C712.23 659.16 598.16 653.81 595.75 655.42C595 655.92 595.06 650.69 594.94 649.78C594.44 645.88 590.17 504.43 592.32 474.59C592.32 474.62 603.51 474.41 603.43 474.42Z" fill="#e9edfa" fill-rule="evenodd" opacity="1" stroke="none"/>
<path d="M676.81 532.73L690.81 532.73L690.81 512.73C690.81 512.73 683.81 501.73 676.81 512.73L676.81 532.73Z" fill="#ffffff" fill-rule="evenodd" opacity="1" stroke="none"/>
<path d="M609.58 534.34L623.58 534.34L623.58 514.34C623.58 514.34 616.58 503.34 609.58 514.34L609.58 534.34Z" fill="#ffffff" fill-rule="evenodd" opacity="1" stroke="none"/>
<path d="M609.58 585.97L623.58 585.97L623.58 565.97C623.58 565.97 616.58 554.97 609.58 565.97L609.58 585.97Z" fill="#ffffff" fill-rule="evenodd" opacity="1" stroke="none"/>
<path d="M643.01 586.57L657.01 586.57L657.01 566.57C657.01 566.57 650.01 555.57 643.01 566.57L643.01 586.57Z" fill="#ffffff" fill-rule="evenodd" opacity="1" stroke="none"/>
<path d="M676.43 587.17L690.43 587.17L690.43 567.17C690.43 567.17 683.43 556.17 676.43 567.17L676.43 587.17Z" fill="#ffffff" fill-rule="evenodd" opacity="1" stroke="none"/>
<path d="M610.43 635.37L624.43 635.37L624.43 615.37C624.43 615.37 617.43 604.37 610.43 615.37L610.43 635.37Z" fill="#ffffff" fill-rule="evenodd" opacity="1" stroke="none"/>
<path d="M643.87 635.97L657.87 635.97L657.87 615.97C657.87 615.97 650.87 604.97 643.87 615.97L643.87 635.97Z" fill="#ffffff" fill-rule="evenodd" opacity="1" stroke="none"/>
<path d="M677.31 636.58L691.31 636.58L691.31 616.58C691.31 616.58 684.31 605.58 677.31 616.58L677.31 636.58Z" fill="#ffffff" fill-rule="evenodd" opacity="1" stroke="none"/>
<path d="M672.33 483.22C672.33 478.343 676.283 474.39 681.16 474.39C686.037 474.39 689.99 478.343 689.99 483.22C689.99 488.097 686.037 492.05 681.16 492.05C676.283 492.05 672.33 488.097 672.33 483.22Z" fill="#e9edfa" fill-rule="evenodd" opacity="1" stroke="none"/>
<path d="M609.21 481.88C609.21 477.003 613.163 473.05 618.04 473.05C622.917 473.05 626.87 477.003 626.87 481.88C626.87 486.757 622.917 490.71 618.04 490.71C613.163 490.71 609.21 486.757 609.21 481.88Z" fill="#e9edfa" fill-rule="evenodd" opacity="1" stroke="none"/>
<path d="M641.43 525.45C641.43 520.573 645.383 516.62 650.26 516.62C655.137 516.62 659.09 520.573 659.09 525.45C659.09 530.327 655.137 534.28 650.26 534.28C645.383 534.28 641.43 530.327 641.43 525.45Z" fill="#e9edfa" fill-rule="evenodd" opacity="1" stroke="none"/>
<path d="M640.77 443.19C640.77 438.313 644.723 434.36 649.6 434.36C654.477 434.36 658.43 438.313 658.43 443.19C658.43 448.067 654.477 452.02 649.6 452.02C644.723 452.02 640.77 448.067 640.77 443.19Z" fill="#e9edfa" fill-rule="evenodd" opacity="1" stroke="none"/>
<path d="M634.92 476.14C634.963 473.855 635.793 471.654 637.27 469.91C640.079 466.421 644.246 464.3 648.72 464.08C658.02 463.83 662.1 471.65 662.67 474.85C663.53 479.68 663.34 504 663.34 504L634.6 504L634.75 496.77L634.92 476.14Z" fill="#ffffff" fill-rule="evenodd" opacity="1" stroke="none"/>
</g>
<g id="build-7" vectornator:layerName="build 7">
<path d="M708.79 509.16L711.79 659.35C711.79 659.35 744.71 659.69 764.86 662.2C782.49 664.4 824.86 662.37 824.86 662.37L826.86 509.67L708.86 508.88" fill="#bac6f2" fill-rule="evenodd" opacity="1" stroke="none"/>
<path d="M707.95 509.16L826.81 509.66L826.27 481.25L791.06 481.25C791.06 481.25 786.69 464.25 770.3 464.25C750.19 464.25 746.84 482.15 746.84 482.15L707.84 481.74L707.95 509.16Z" fill="#bac6f2" fill-rule="evenodd" opacity="1" stroke="none"/>
<path d="M720.52 525.31L741.54 525.31L741.54 525.31L741.54 548.11L741.54 548.11L720.52 548.11L720.52 548.11L720.52 525.31L720.52 525.31Z" fill="#ffffff" fill-rule="evenodd" opacity="1" stroke="none"/>
<path d="M758.5 524.98L779.52 524.98L779.52 524.98L779.52 547.78L779.52 547.78L758.5 547.78L758.5 547.78L758.5 524.98L758.5 524.98Z" fill="#ffffff" fill-rule="evenodd" opacity="1" stroke="none"/>
<path d="M795.99 525.31L817.01 525.31L817.01 525.31L817.01 548.11L817.01 548.11L795.99 548.11L795.99 548.11L795.99 525.31L795.99 525.31Z" fill="#ffffff" fill-rule="evenodd" opacity="1" stroke="none"/>
<path d="M796.31 568.2L817.33 568.2L817.33 568.2L817.33 591L817.33 591L796.31 591L796.31 591L796.31 568.2L796.31 568.2Z" fill="#ffffff" fill-rule="evenodd" opacity="1" stroke="none"/>
<path d="M796.61 618.12L817.63 618.12L817.63 618.12L817.63 640.92L817.63 640.92L796.61 640.92L796.61 640.92L796.61 618.12L796.61 618.12Z" fill="#ffffff" fill-rule="evenodd" opacity="1" stroke="none"/>
<path d="M758.53 617.2L779.55 617.2L779.55 617.2L779.55 640L779.55 640L758.53 640L758.53 640L758.53 617.2L758.53 617.2Z" fill="#ffffff" fill-rule="evenodd" opacity="1" stroke="none"/>
<path d="M720.53 616.73L741.55 616.73L741.55 616.73L741.55 639.53L741.55 639.53L720.53 639.53L720.53 639.53L720.53 616.73L720.53 616.73Z" fill="#ffffff" fill-rule="evenodd" opacity="1" stroke="none"/>
<path d="M757.68 567.55L778.7 567.55L778.7 567.55L778.7 590.35L778.7 590.35L757.68 590.35L757.68 590.35L757.68 567.55L757.68 567.55Z" fill="#ffffff" fill-rule="evenodd" opacity="1" stroke="none"/>
<path d="M757.68 567.55L778.7 567.55L778.7 567.55L778.7 590.35L778.7 590.35L757.68 590.35L757.68 590.35L757.68 567.55L757.68 567.55Z" fill="#ffffff" fill-rule="evenodd" opacity="1" stroke="none"/>
<path d="M720.68 568.53L741.7 568.53L741.7 568.53L741.7 591.33L741.7 591.33L720.68 591.33L720.68 591.33L720.68 568.53L720.68 568.53Z" fill="#ffffff" fill-rule="evenodd" opacity="1" stroke="none"/>
<path d="M757.63 486.16C757.63 479.776 762.806 474.6 769.19 474.6C775.574 474.6 780.75 479.776 780.75 486.16C780.75 492.544 775.574 497.72 769.19 497.72C762.806 497.72 757.63 492.544 757.63 486.16Z" fill="#ffffff" fill-rule="evenodd" opacity="1" stroke="none"/>
</g>
<g id="build-8" vectornator:layerName="build 8">
<path d="M877.88 380.45L896.35 380.45L896.06 371.45L877.57 371.25L877.88 380.45Z" fill="#ffffff" fill-rule="evenodd" opacity="1" stroke="none"/>
<path d="M826.33 464.99L824.12 662.6C824.12 662.6 863.66 652.6 888.7 640.16C912.43 628.39 923.7 602.48 926.4 597.42C926.684 596.877 926.925 596.311 927.12 595.73L940.84 554.95C941.222 553.83 941.507 552.679 941.69 551.51L947.95 511.27L950.95 492.85C951.13 491.71 951.13 490.55 950.95 489.41L947.64 467.5C947.561 467.001 947.244 466.572 946.79 466.35L928.25 457.25L897.07 402.05L896.3 380.47L877.83 380.47L877.24 402.05L844.43 456.25L826.33 464.99Z" fill="#e9edfa" fill-rule="evenodd" opacity="1" stroke="none"/>
<path d="M873.79 480.23L885.91 480.23L885.91 480.23L885.91 495.31L885.91 495.31L873.79 495.31L873.79 495.31L873.79 480.23L873.79 480.23Z" fill="#ffffff" fill-rule="evenodd" opacity="1" stroke="none"/>
<path d="M890.21 480.49L903.14 480.49L903.14 480.49L903.14 495.3L903.14 495.3L890.21 495.3L890.21 495.3L890.21 480.49L890.21 480.49Z" fill="#ffffff" fill-rule="evenodd" opacity="1" stroke="none"/>
<path d="M873.52 498.13L885.64 498.13L885.64 498.13L885.64 513.21L885.64 513.21L873.52 513.21L873.52 513.21L873.52 498.13L873.52 498.13Z" fill="#ffffff" fill-rule="evenodd" opacity="1" stroke="none"/>
<path d="M889.94 498.4L902.87 498.4L902.87 498.4L902.87 513.21L902.87 513.21L889.94 513.21L889.94 513.21L889.94 498.4L889.94 498.4Z" fill="#ffffff" fill-rule="evenodd" opacity="1" stroke="none"/>
<path d="M874.05 534.05L886.17 534.05L886.17 534.05L886.17 549.13L886.17 549.13L874.05 549.13L874.05 549.13L874.05 534.05L874.05 534.05Z" fill="#ffffff" fill-rule="evenodd" opacity="1" stroke="none"/>
<path d="M845.49 533.97L857.61 533.97L857.61 533.97L857.61 549.05L857.61 549.05L845.49 549.05L845.49 549.05L845.49 533.97L845.49 533.97Z" fill="#ffffff" fill-rule="evenodd" opacity="1" stroke="none"/>
<path d="M917.17 534.64L929.29 534.64L929.29 534.64L929.29 549.72L929.29 549.72L917.17 549.72L917.17 549.72L917.17 534.64L917.17 534.64Z" fill="#ffffff" fill-rule="evenodd" opacity="1" stroke="none"/>
<path d="M921.07 607.92L917.43 613.16L917.89 599.94L925.25 599.64L921.07 607.92Z" fill="#ffffff" fill-rule="evenodd" opacity="1" stroke="none"/>
<path d="M845.63 601.5L857.75 601.5L857.75 601.5L857.75 616.58L857.75 616.58L845.63 616.58L845.63 616.58L845.63 601.5L845.63 601.5Z" fill="#ffffff" fill-rule="evenodd" opacity="1" stroke="none"/>
<path d="M890.47 534.32L903.4 534.32L903.4 534.32L903.4 549.13L903.4 549.13L890.47 549.13L890.47 549.13L890.47 534.32L890.47 534.32Z" fill="#ffffff" fill-rule="evenodd" opacity="1" stroke="none"/>
<path d="M873.78 551.96L885.9 551.96L885.9 551.96L885.9 567.04L885.9 567.04L873.78 567.04L873.78 567.04L873.78 551.96L873.78 551.96Z" fill="#ffffff" fill-rule="evenodd" opacity="1" stroke="none"/>
<path d="M890.2 552.23L903.13 552.23L903.13 552.23L903.13 567.04L903.13 567.04L890.2 567.04L890.2 567.04L890.2 552.23L890.2 552.23Z" fill="#ffffff" fill-rule="evenodd" opacity="1" stroke="none"/>
<path d="M873.83 599.41L885.95 599.41L885.95 599.41L885.95 614.49L885.95 614.49L873.83 614.49L873.83 614.49L873.83 599.41L873.83 599.41Z" fill="#ffffff" fill-rule="evenodd" opacity="1" stroke="none"/>
<path d="M890.25 599.68L903.18 599.68L903.18 599.68L903.18 614.49L903.18 614.49L890.25 614.49L890.25 614.49L890.25 599.68L890.25 599.68Z" fill="#ffffff" fill-rule="evenodd" opacity="1" stroke="none"/>
<path d="M873.56 617.32L885.68 617.32L885.68 617.32L885.68 632.4L885.68 632.4L873.56 632.4L873.56 632.4L873.56 617.32L873.56 617.32Z" fill="#ffffff" fill-rule="evenodd" opacity="1" stroke="none"/>
<path d="M901.89 631.35L900.52 632.4L889.98 632.4L889.98 617.59L902.91 617.59L902.91 630.37L901.89 631.35Z" fill="#ffffff" fill-rule="evenodd" opacity="1" stroke="none"/>
<path d="M843.75 496.98C843.75 492.302 847.542 488.51 852.22 488.51C856.898 488.51 860.69 492.302 860.69 496.98C860.69 501.658 856.898 505.45 852.22 505.45C847.542 505.45 843.75 501.658 843.75 496.98Z" fill="#ffffff" fill-rule="evenodd" opacity="1" stroke="none"/>
<path d="M912.44 498.87C912.44 494.192 916.232 490.4 920.91 490.4C925.588 490.4 929.38 494.192 929.38 498.87C929.38 503.548 925.588 507.34 920.91 507.34C916.232 507.34 912.44 503.548 912.44 498.87Z" fill="#ffffff" fill-rule="evenodd" opacity="1" stroke="none"/>
<path d="M826.32 464.99L844.79 464.99L844.51 455.98L826.02 455.79L826.32 464.99Z" fill="#ffffff" fill-rule="evenodd" opacity="1" stroke="none"/>
<path d="M929.06 466.68L947.53 466.68L946.33 461.03L945.55 457.65L928.75 457.48L929.06 466.68Z" fill="#ffffff" fill-rule="evenodd" opacity="1" stroke="none"/>
<path d="M873.23 446.07C873.23 438.029 879.749 431.51 887.79 431.51C895.831 431.51 902.35 438.029 902.35 446.07C902.35 454.111 895.831 460.63 887.79 460.63C879.749 460.63 873.23 454.111 873.23 446.07Z" fill="#ffffff" fill-rule="evenodd" opacity="1" stroke="none"/>
<path d="M292.436 409.957L271.131 360.078C262.572 340.033 277.276 317.762 299.072 317.762L299.072 317.762C320.238 317.762 334.517 339.403 326.205 358.853L304.378 409.957C303.357 412.348 301.007 413.9 298.407 413.9C295.807 413.9 293.458 412.348 292.436 409.957Z" fill="url(#LinearGradient)" fill-rule="evenodd" opacity="1" stroke="none"/>
<path d="M282.095 348.141C282.095 338.991 289.512 331.573 298.662 331.573C307.812 331.573 315.229 338.991 315.229 348.141C315.229 357.29 307.812 364.708 298.662 364.708C289.512 364.708 282.095 357.29 282.095 348.141Z" fill="#ffffff" fill-rule="evenodd" opacity="1" stroke="none"/>
<path d="M222.471 347.364L240.37 347.364L240.37 347.364L240.37 353.033L240.37 353.033L222.471 353.033L222.471 353.033L222.471 347.364L222.471 347.364Z" fill="#a2e392" fill-rule="evenodd" opacity="1" stroke="none"/>
<path d="M357.027 347.364L374.926 347.364L374.926 347.364L374.926 353.033L374.926 353.033L357.027 353.033L357.027 353.033L357.027 347.364L357.027 347.364Z" fill="#a2e392" fill-rule="evenodd" opacity="1" stroke="none"/>
<path d="M341.273 387.416L353.929 400.073L353.929 400.073L349.92 404.082L349.92 404.082L337.264 391.425L337.264 391.425L341.273 387.416L341.273 387.416Z" fill="#a2e392" fill-rule="evenodd" opacity="1" stroke="none"/>
<path d="M242.959 401.915L255.615 389.259L255.615 389.259L259.624 393.268L259.624 393.268L246.968 405.924L246.968 405.924L242.959 401.915L242.959 401.915Z" fill="#a2e392" fill-rule="evenodd" opacity="1" stroke="none"/>
<path d="M235.336 289.802L249.834 300.362L249.834 300.362L246.489 304.954L246.489 304.954L231.991 294.394L231.991 294.394L235.336 289.802L235.336 289.802Z" fill="#a2e392" fill-rule="evenodd" opacity="1" stroke="none"/>
<path d="M301.338 257.531L301.338 275.43L301.338 275.43L295.669 275.43L295.669 275.43L295.669 257.531L295.669 257.531L301.338 257.531L301.338 257.531Z" fill="#a2e392" fill-rule="evenodd" opacity="1" stroke="none"/>
<path d="M360.067 294.857L344.565 303.807L344.565 303.807L341.731 298.897L341.731 298.897L357.232 289.947L357.232 289.947L360.067 294.857L360.067 294.857Z" fill="#a2e392" fill-rule="evenodd" opacity="1" stroke="none"/>
<path d="M643.051 363.011L621.746 313.132C613.186 293.086 627.89 270.815 649.686 270.815L649.686 270.815C670.852 270.815 685.131 292.456 676.819 311.906L654.992 363.011C653.971 365.402 651.622 366.953 649.021 366.953C646.421 366.953 644.072 365.402 643.051 363.011Z" fill="url(#LinearGradient_2)" fill-rule="evenodd" opacity="1" stroke="none"/>
<path d="M632.709 301.194C632.709 292.044 640.127 284.627 649.276 284.627C658.426 284.627 665.844 292.044 665.844 301.194C665.844 310.344 658.426 317.761 649.276 317.761C640.127 317.761 632.709 310.344 632.709 301.194Z" fill="#ffffff" fill-rule="evenodd" opacity="1" stroke="none"/>
<path d="M760.187 442.664L738.882 392.784C730.322 372.739 745.026 350.468 766.822 350.468L766.822 350.468C787.988 350.468 802.267 372.109 793.955 391.559L772.128 442.664C771.107 445.055 768.758 446.606 766.157 446.606C763.557 446.606 761.208 445.055 760.187 442.664Z" fill="url(#LinearGradient_3)" fill-rule="evenodd" opacity="1" stroke="none"/>
<path d="M749.845 380.847C749.845 371.697 757.263 364.28 766.413 364.28C775.562 364.28 782.98 371.697 782.98 380.847C782.98 389.997 775.562 397.414 766.413 397.414C757.263 397.414 749.845 389.997 749.845 380.847Z" fill="#ffffff" fill-rule="evenodd" opacity="1" stroke="none"/>
</g>
</svg>
