<?xml version="1.0" encoding="UTF-8" standalone="no"?>
<!DOCTYPE svg PUBLIC "-//W3C//DTD SVG 1.1//EN" "http://www.w3.org/Graphics/SVG/1.1/DTD/svg11.dtd"
[
<!ATTLIST g
  xmlns:vectornator CDATA #FIXED "http://vectornator.io"
  vectornator:layerName CDATA #IMPLIED >
<!ATTLIST g
  xmlns:vectornator CDATA #FIXED "http://vectornator.io"
  vectornator:mask CDATA #IMPLIED >
<!ATTLIST text
  xmlns:vectornator CDATA #FIXED "http://vectornator.io"
  vectornator:width CDATA #IMPLIED >
<!ATTLIST text
  xmlns:vectornator CDATA #FIXED "http://vectornator.io"
  vectornator:text CDATA #IMPLIED >

<!ATTLIST path
  xmlns:vectornator CDATA #FIXED "http://vectornator.io"
  vectornator:blendMode CDATA #IMPLIED >
<!ATTLIST path
  xmlns:vectornator CDATA #FIXED "http://vectornator.io"
  vectornator:shadowColor CDATA #IMPLIED >
<!ATTLIST path
  xmlns:vectornator CDATA #FIXED "http://vectornator.io"
  vectornator:shadowOpacity CDATA #IMPLIED >
<!ATTLIST path
  xmlns:vectornator CDATA #FIXED "http://vectornator.io"
  vectornator:shadowRadius CDATA #IMPLIED >
<!ATTLIST path
  xmlns:vectornator CDATA #FIXED "http://vectornator.io"
  vectornator:shadowOffset CDATA #IMPLIED >
<!ATTLIST path
  xmlns:vectornator CDATA #FIXED "http://vectornator.io"
  vectornator:shadowAngle CDATA #IMPLIED >

<!ATTLIST image
  xmlns:vectornator CDATA #FIXED "http://vectornator.io"
  vectornator:blendMode CDATA #IMPLIED >
<!ATTLIST image
  xmlns:vectornator CDATA #FIXED "http://vectornator.io"
  vectornator:shadowColor CDATA #IMPLIED >
<!ATTLIST image
  xmlns:vectornator CDATA #FIXED "http://vectornator.io"
  vectornator:shadowOpacity CDATA #IMPLIED >
<!ATTLIST image
  xmlns:vectornator CDATA #FIXED "http://vectornator.io"
  vectornator:shadowRadius CDATA #IMPLIED >
<!ATTLIST image
  xmlns:vectornator CDATA #FIXED "http://vectornator.io"
  vectornator:shadowOffset CDATA #IMPLIED >
<!ATTLIST image
  xmlns:vectornator CDATA #FIXED "http://vectornator.io"
  vectornator:shadowAngle CDATA #IMPLIED >

<!ATTLIST g
  xmlns:vectornator CDATA #FIXED "http://vectornator.io"
  vectornator:blendMode CDATA #IMPLIED >
<!ATTLIST g
  xmlns:vectornator CDATA #FIXED "http://vectornator.io"
  vectornator:shadowColor CDATA #IMPLIED >
<!ATTLIST g
  xmlns:vectornator CDATA #FIXED "http://vectornator.io"
  vectornator:shadowOpacity CDATA #IMPLIED >
<!ATTLIST g
  xmlns:vectornator CDATA #FIXED "http://vectornator.io"
  vectornator:shadowRadius CDATA #IMPLIED >
<!ATTLIST g
  xmlns:vectornator CDATA #FIXED "http://vectornator.io"
  vectornator:shadowOffset CDATA #IMPLIED >
<!ATTLIST g
  xmlns:vectornator CDATA #FIXED "http://vectornator.io"
  vectornator:shadowAngle CDATA #IMPLIED >

<!ENTITY % SVG.filter.extra.content  "| feDropShadow" >
<!ELEMENT feDropShadow EMPTY>
<!ATTLIST feDropShadow
  xmlns:svg CDATA #FIXED "http://www.w3.org/Graphics/SVG/1.1/DTD/svg11.dtd"
  dx CDATA #IMPLIED>
<!ATTLIST feDropShadow
  xmlns:svg CDATA #FIXED "http://www.w3.org/Graphics/SVG/1.1/DTD/svg11.dtd"
  dy CDATA #IMPLIED>
<!ATTLIST feDropShadow
  xmlns:svg CDATA #FIXED "http://www.w3.org/Graphics/SVG/1.1/DTD/svg11.dtd"
  stdDeviation CDATA #IMPLIED>
<!ATTLIST feDropShadow
  xmlns:svg CDATA #FIXED "http://www.w3.org/Graphics/SVG/1.1/DTD/svg11.dtd"
  flood-opacity CDATA #IMPLIED>
<!ATTLIST feDropShadow
  xmlns:svg CDATA #FIXED "http://www.w3.org/Graphics/SVG/1.1/DTD/svg11.dtd"
  in CDATA #IMPLIED>
<!ATTLIST feDropShadow
  xmlns:svg CDATA #FIXED "http://www.w3.org/Graphics/SVG/1.1/DTD/svg11.dtd"
  result CDATA #IMPLIED>
<!ATTLIST feDropShadow
  xmlns:svg CDATA #FIXED "http://www.w3.org/Graphics/SVG/1.1/DTD/svg11.dtd"
  flood-color CDATA #IMPLIED>
]
>
<!-- Created with Vectornator (http://vectornator.io/) -->
<svg height="100%" stroke-miterlimit="10" style="fill-rule:nonzero;clip-rule:evenodd;stroke-linecap:round;stroke-linejoin:round;" version="1.1" viewBox="0 0 686.49 794.27" width="100%" xml:space="preserve" xmlns="http://www.w3.org/2000/svg" xmlns:vectornator="http://vectornator.io" xmlns:xlink="http://www.w3.org/1999/xlink">
<defs>
<linearGradient gradientTransform="matrix(0.996095 0.0882849 -0.0882849 0.996095 223.95 -58.8644)" gradientUnits="userSpaceOnUse" id="LinearGradient" x1="89.6233" x2="510.018" y1="622.098" y2="622.098">
<stop offset="0" stop-color="#ead6b6"/>
<stop offset="0.972483" stop-color="#f9941e"/>
</linearGradient>
<linearGradient gradientTransform="matrix(1 0 0 1 0 0)" gradientUnits="userSpaceOnUse" id="LinearGradient_2" x1="301.572" x2="506.594" y1="313.46" y2="313.46">
<stop offset="0" stop-color="#ead6b6" stop-opacity="0.735327"/>
<stop offset="0.972483" stop-color="#f9941e"/>
</linearGradient>
</defs>
<clipPath id="ArtboardFrame">
<rect height="794.27" width="686.49" x="0" y="0"/>
</clipPath>
<g clip-path="url(#ArtboardFrame)" id="Untitled" vectornator:layerName="Untitled">
<path d="M615.691 423.215C613.602 348.878 650.209 301.184 668.46 244.566C685.076 193.066 698.912 108.573 654.105 47.1768C584.508-48.2683 497.013 46.5198 497.013 46.5198C497.013 46.5198 363.481 128.973 339.455 135.109C315.429 141.245 250.156 153.199 175.653 116.549C91.9392 75.3701 43.8616 95.2547 23.2976 154.021C2.7337 212.786 46.2656 384.42 56.5605 419.652C66.8554 454.884 49.7758 564.09 32.0289 607.575C14.2821 651.06-41.6649 785.845 75.5166 783.588C192.698 781.332 544.043 794.271 544.043 794.271C544.043 794.271 626.324 774.117 645.315 755.573C682.559 719.204 679.898 709.247 668.008 587.588C661.594 521.953 618.139 510.291 615.691 423.215Z" fill="#96c5da" fill-opacity="0.362009" fill-rule="evenodd" opacity="1" stroke="none"/>
<path d="M125.18 650.258C128.222 645.86 207.298 586.679 216.465 581.543C238.355 569.278 370.289 525.285 395.43 520.218C422.418 514.779 604.842 478.171 615.757 488.081C688.476 554.104 636.685 569.995 666.273 619.073C679.705 641.353 684.697 662.602 680.633 687.587C677.87 704.571 676.866 723.681 648.385 744.461C639.573 750.891 630.685 753.775 522.941 753.775C443.505 753.775 290.188 752.307 228.672 753.616C171.686 754.828 70.8072 728.861 125.18 650.258Z" fill="url(#LinearGradient)" fill-rule="evenodd" opacity="1" stroke="none"/>
<path d="M556.004 236.64C556.004 236.64 573.807 292.668 581.759 305.011C591.848 320.714 591.269 286.711 588.48 277.342C585.617 267.751 573.422 246.892 556.004 236.64Z" fill="#e9edfb" fill-rule="evenodd" opacity="1" stroke="none"/>
<path d="M587.286 308.66C587.286 308.66 587.041 307.689 587.056 308.082C587.211 312.347 590.023 335.528 589.17 339.897C588.22 344.682 591.581 334.623 591.581 334.623L587.286 308.66Z" fill="#e9edfb" fill-rule="evenodd" opacity="1" stroke="none"/>
<path d="M545.99 263.894C545.99 263.894 563.793 319.921 571.738 332.264C581.834 347.975 581.247 313.964 578.458 304.603C575.603 295.004 563.408 274.153 545.99 263.894Z" fill="#e9edfb" fill-rule="evenodd" opacity="1" stroke="none"/>
<path d="M576.53 335.951C576.53 335.951 576.278 334.979 576.292 335.372C576.448 339.63 579.26 363.56 578.399 367.951C577.45 372.736 581.262 361.743 581.262 361.743L576.53 335.951Z" fill="#e9edfb" fill-rule="evenodd" opacity="1" stroke="none"/>
<path d="M527.683 287.638C527.683 287.638 551.265 345.72 559.194 358.056C569.283 373.767 567.035 335.194 564.246 325.825C561.39 316.234 545.1 297.89 527.683 287.638Z" fill="#e9edfb" fill-rule="evenodd" opacity="1" stroke="none"/>
<path d="M562.851 361.468C562.851 361.468 562.666 360.942 562.681 361.416C562.822 366.542 566.671 395.042 565.781 400.308C564.817 406.072 569.305 392.994 569.305 392.994L562.851 361.468Z" fill="#e9edfb" fill-rule="evenodd" opacity="1" stroke="none"/>
<path d="M504.094 317.369C504.094 317.369 513.671 338.324 525.932 355.942C534.174 367.811 545.219 377.09 549.373 381.452C562.495 395.271 551.331 359.161 546.695 350.416C541.94 341.477 523.344 324.676 504.094 317.369Z" fill="#e9edfb" fill-rule="evenodd" opacity="1" stroke="none"/>
<path d="M554.536 383.885C554.536 383.885 554.35 383.358 554.365 383.833C554.506 388.966 558.593 419.758 557.451 424.995C557.184 426.234 561.234 415.648 561.234 415.648L554.536 383.885Z" fill="#e9edfb" fill-rule="evenodd" opacity="1" stroke="none"/>
<path d="M493.012 346.276C493.012 346.276 503.76 369.865 517.409 389.76C526.578 403.112 538.802 413.668 543.372 418.593C557.911 434.215 545.234 393.632 540.049 383.781C534.752 373.685 514.183 354.651 493.012 346.276Z" fill="#e9edfb" fill-rule="evenodd" opacity="1" stroke="none"/>
<path d="M469.534 394.018C469.534 394.018 494.229 408.557 511.668 422.25C532.134 438.317 535.761 440.142 541.851 442.123C561.138 448.376 532.208 409.336 523.47 403.654C514.524 397.831 491.41 391.57 469.534 394.018Z" fill="#e9edfb" fill-rule="evenodd" opacity="1" stroke="none"/>
<path d="M549.41 422.354C549.323 421.982 549.207 421.617 549.061 421.264C549.247 423.934 553.238 436.137 552.147 438.866C551.888 439.512 554.187 434.126 554.187 434.126L549.41 422.354Z" fill="#e9edfb" fill-rule="evenodd" opacity="1" stroke="none"/>
<path d="M545.731 440.854C545.731 440.854 545.352 440.202 545.375 440.32C545.582 441.641 549.692 447.671 548.624 449.014C548.372 449.333 550.627 446.677 550.627 446.677L545.731 440.854Z" fill="#e9edfb" fill-rule="evenodd" opacity="1" stroke="none"/>
<path d="M593.858 369.717C593.858 369.717 594.251 369.309 593.977 369.717C591.009 374.108 572.761 397.623 570.239 402.43C567.517 407.667 572.465 395.123 572.465 395.123L593.858 369.717Z" fill="#e9edfb" fill-rule="evenodd" opacity="1" stroke="none"/>
<path d="M586.166 391.6C586.166 391.6 586.566 391.199 586.292 391.6C583.325 395.991 563.645 421.427 561.308 426.263C560.759 427.413 564.505 417.139 564.505 417.139L586.166 391.6Z" fill="#e9edfb" fill-rule="evenodd" opacity="1" stroke="none"/>
<path d="M567.243 426.241C567.243 426.241 568.199 425.195 568.044 425.403C566.434 427.628 557.332 437.071 556.39 439.734C556.168 440.357 557.941 435.068 557.941 435.068L567.243 426.241Z" fill="#e9edfb" fill-rule="evenodd" opacity="1" stroke="none"/>
<path d="M559.543 443.25C559.543 443.25 560.121 442.783 560.047 442.887C559.179 443.962 553.505 448.02 553.371 449.481C553.371 449.83 553.594 446.9 553.594 446.9L559.543 443.25Z" fill="#e9edfb" fill-rule="evenodd" opacity="1" stroke="none"/>
<path d="M370.039 355.393C370.039 355.393 345.604 413.468 337.4 425.811C326.941 441.522 329.24 402.949 332.163 393.58C335.108 383.974 351.991 365.63 370.039 355.393Z" fill="#e9edfb" fill-rule="evenodd" opacity="1" stroke="none"/>
<path d="M332.823 429.208C332.823 429.208 333.016 428.682 333.001 429.156C332.86 434.282 328.869 462.774 329.782 468.048C330.783 473.812 326.14 460.734 326.14 460.734L332.823 429.208Z" fill="#e9edfb" fill-rule="evenodd" opacity="1" stroke="none"/>
<path d="M394.488 385.109C394.488 385.109 384.563 406.064 371.849 423.682C363.318 435.551 351.82 444.83 347.562 449.192C333.958 463.011 345.53 426.901 350.337 418.156C355.262 409.217 374.534 392.416 394.488 385.109Z" fill="#e9edfb" fill-rule="evenodd" opacity="1" stroke="none"/>
<path d="M342.214 451.625C342.214 451.625 342.4 451.098 342.385 451.573C342.244 456.706 338.008 487.498 339.188 492.735C339.47 493.974 335.264 483.388 335.264 483.388L342.214 451.625Z" fill="#e9edfb" fill-rule="evenodd" opacity="1" stroke="none"/>
<path d="M405.971 413.994C405.971 413.994 394.844 437.583 380.683 457.478C371.188 470.83 358.519 481.386 353.764 486.311C338.691 501.933 351.828 461.35 357.206 451.499C362.71 441.44 384.029 422.406 405.971 413.994Z" fill="#e9edfb" fill-rule="evenodd" opacity="1" stroke="none"/>
<path d="M430.301 461.758C430.301 461.758 404.717 476.297 386.632 489.99C365.425 506.057 361.671 507.882 355.359 509.863C335.33 516.116 365.365 477.076 374.408 471.394C383.68 465.571 407.625 459.31 430.301 461.758Z" fill="#e9edfb" fill-rule="evenodd" opacity="1" stroke="none"/>
<path d="M347.503 490.087C347.503 490.087 347.881 488.759 347.867 489.004C347.674 491.674 343.535 503.839 344.669 506.606C344.936 507.252 342.548 501.866 342.548 501.866L347.503 490.087Z" fill="#e9edfb" fill-rule="evenodd" opacity="1" stroke="none"/>
<path d="M351.338 508.594C351.338 508.594 351.724 507.942 351.709 508.06C351.486 509.381 347.258 515.411 348.341 516.754C348.601 517.073 346.264 514.417 346.264 514.417L351.338 508.594Z" fill="#e9edfb" fill-rule="evenodd" opacity="1" stroke="none"/>
<path d="M328.276 493.981C328.024 493.688 327.757 493.408 327.475 493.143C329.151 495.368 338.602 504.811 339.559 507.467C339.788 508.097 337.949 502.808 337.949 502.808L328.276 493.981Z" fill="#e9edfb" fill-rule="evenodd" opacity="1" stroke="none"/>
<path d="M337.022 510.983C337.022 510.983 336.421 510.523 336.502 510.619C337.4 511.702 343.275 515.76 343.46 517.221C343.497 517.57 343.23 514.64 343.23 514.64L337.022 510.983Z" fill="#e9edfb" fill-rule="evenodd" opacity="1" stroke="none"/>
<path d="M565.284 382.52C565.284 382.52 579.823 429.653 585.201 439.875C592.048 452.871 592.901 422.48 591.351 414.944C589.763 407.229 578.236 391.741 565.284 382.52Z" fill="#bac5f4" fill-rule="evenodd" opacity="1" stroke="none"/>
<path d="M588.421 442.842C588.421 442.842 588.309 442.419 588.287 442.79C588.05 446.818 589.133 469.421 588.079 473.493C586.937 477.944 591.336 467.996 591.336 467.996L588.421 442.842Z" fill="#bac5f4" fill-rule="evenodd" opacity="1" stroke="none"/>
<path d="M545.508 404.225C545.508 404.225 551.591 421.286 560.01 435.973C565.663 445.817 573.704 453.865 576.656 457.567C586.01 469.287 579.705 440.224 576.656 433.088C573.54 425.7 560.107 411.264 545.508 404.225Z" fill="#bac5f4" fill-rule="evenodd" opacity="1" stroke="none"/>
<path d="M579.794 459.807C579.794 459.807 579.69 459.384 579.668 459.755C579.43 463.783 580.543 488.203 579.297 492.23C579 493.187 582.894 485.161 582.894 485.161L579.794 459.807Z" fill="#bac5f4" fill-rule="evenodd" opacity="1" stroke="none"/>
<path d="M534.856 426.145C534.856 426.145 541.681 445.364 551.035 461.891C557.31 473.018 566.182 482.083 569.446 486.259C579.786 499.493 572.606 466.817 569.201 458.739C565.722 450.46 550.886 434.156 534.856 426.145Z" fill="#bac5f4" fill-rule="evenodd" opacity="1" stroke="none"/>
<path d="M513.211 461.98C513.211 461.98 531.577 475.051 544.329 486.971C559.283 500.954 561.998 502.638 566.642 504.596C581.337 510.812 561.301 478.24 554.84 473.189C548.223 468.019 530.532 461.543 513.211 461.98Z" fill="#bac5f4" fill-rule="evenodd" opacity="1" stroke="none"/>
<path d="M573.169 489.612C573.124 489.316 573.057 489.023 572.969 488.737C572.969 490.843 575.195 500.679 574.193 502.742C573.941 503.231 576.114 499.174 576.114 499.174L573.169 489.612Z" fill="#bac5f4" fill-rule="evenodd" opacity="1" stroke="none"/>
<path d="M569.03 503.869C569.03 503.869 568.778 503.328 568.786 503.424C568.86 504.477 571.671 509.484 570.736 510.464C570.521 510.701 572.465 508.765 572.465 508.765L569.03 503.869Z" fill="#bac5f4" fill-rule="evenodd" opacity="1" stroke="none"/>
<path d="M587.464 493.922C587.683 493.71 587.914 493.509 588.154 493.321C586.737 494.975 578.963 501.74 578.043 503.765C577.828 504.24 579.578 500.212 579.578 500.212L587.464 493.922Z" fill="#bac5f4" fill-rule="evenodd" opacity="1" stroke="none"/>
<path d="M579.682 506.718C579.682 506.718 580.172 506.399 580.105 506.473C579.363 507.259 574.631 510.056 574.393 511.191C574.341 511.458 574.742 509.18 574.742 509.18L579.682 506.718Z" fill="#bac5f4" fill-rule="evenodd" opacity="1" stroke="none"/>
<path d="M365.076 135.045L553.26 135.045C575.153 135.045 592.901 152.793 592.901 174.686L592.901 556.44C592.901 578.333 575.153 596.081 553.26 596.081L365.076 596.081C343.183 596.081 325.435 578.333 325.435 556.44L325.435 174.686C325.435 152.793 343.183 135.045 365.076 135.045Z" fill="#2f4e56" fill-rule="evenodd" opacity="1" stroke="none"/>
<path d="M363.407 153.048L554.217 153.048C568.724 153.048 580.484 164.808 580.484 179.315L580.484 556.506C580.483 571.013 568.724 582.773 554.217 582.773L363.407 582.773C348.9 582.773 337.14 571.013 337.14 556.506L337.14 179.315C337.14 164.808 348.9 153.048 363.407 153.048Z" fill="#fafcfc" fill-rule="evenodd" opacity="1" stroke="none"/>
<path d="M400.66 143.197L512.551 143.197C518.552 143.197 523.418 148.063 523.418 154.065L523.418 154.072C523.418 160.074 518.552 164.939 512.551 164.939L400.66 164.939C394.658 164.939 389.792 160.074 389.792 154.072L389.792 154.065C389.792 148.063 394.658 143.197 400.66 143.197Z" fill="#2f4e56" fill-rule="evenodd" opacity="1" stroke="none"/>
<path d="M431.956 145.074L482.857 145.074C485.135 145.074 486.981 146.921 486.981 149.199L486.981 149.206C486.981 151.484 485.135 153.33 482.857 153.33L431.956 153.33C429.678 153.33 427.831 151.484 427.831 149.206L427.831 149.199C427.831 146.921 429.678 145.074 431.956 145.074Z" fill="#ffffff" fill-rule="evenodd" opacity="1" stroke="none"/>
<path d="M369.326 208.148L552.674 208.148C558.659 208.148 563.511 213 563.511 218.986L563.511 258.686C563.511 264.672 558.659 269.524 552.674 269.524L369.326 269.524C363.341 269.524 358.489 264.672 358.489 258.686L358.489 218.986C358.489 213 363.341 208.148 369.326 208.148Z" fill="#bac6f2" fill-rule="evenodd" opacity="1" stroke="none"/>
<path d="M366.901 238.413C366.901 226.213 376.791 216.323 388.991 216.323C401.191 216.323 411.082 226.213 411.082 238.413C411.082 250.613 401.191 260.504 388.991 260.504C376.791 260.504 366.901 250.613 366.901 238.413Z" fill="#ebf8ff" fill-rule="evenodd" opacity="1" stroke="none"/>
<path d="M427.965 218.259L542.37 218.259C544.96 218.259 547.059 220.358 547.059 222.947L547.059 222.947C547.059 225.536 544.96 227.635 542.37 227.635L427.965 227.635C425.376 227.635 423.277 225.536 423.277 222.947L423.277 222.947C423.277 220.358 425.376 218.259 427.965 218.259Z" fill="#ebf8ff" fill-rule="evenodd" opacity="1" stroke="none"/>
<path d="M427.965 233.836L516.111 233.836C518.7 233.836 520.799 235.935 520.799 238.524L520.799 238.524C520.799 241.114 518.7 243.213 516.111 243.213L427.965 243.213C425.376 243.213 423.277 241.114 423.277 238.524L423.277 238.524C423.277 235.935 425.376 233.836 427.965 233.836Z" fill="#ebf8ff" fill-rule="evenodd" opacity="1" stroke="none"/>
<path d="M427.965 251.12L448.705 251.12C451.294 251.12 453.393 253.219 453.393 255.808L453.393 255.808C453.393 258.397 451.294 260.496 448.705 260.496L427.965 260.496C425.376 260.496 423.277 258.397 423.277 255.808L423.277 255.808C423.277 253.219 425.376 251.12 427.965 251.12Z" fill="#ebf8ff" fill-rule="evenodd" opacity="1" stroke="none"/>
<path d="M369.326 366.49L552.674 366.49C558.659 366.49 563.511 371.342 563.511 377.328L563.511 417.028C563.511 423.013 558.659 427.866 552.674 427.866L369.326 427.866C363.341 427.866 358.489 423.013 358.489 417.028L358.489 377.328C358.489 371.342 363.341 366.49 369.326 366.49Z" fill="#bac6f2" fill-rule="evenodd" opacity="1" stroke="none"/>
<path d="M366.901 396.755C366.901 384.555 376.791 374.665 388.991 374.665C401.191 374.665 411.082 384.555 411.082 396.755C411.082 408.955 401.191 418.845 388.991 418.845C376.791 418.845 366.901 408.955 366.901 396.755Z" fill="#ebf8ff" fill-rule="evenodd" opacity="1" stroke="none"/>
<path d="M427.965 376.608L542.37 376.608C544.96 376.608 547.059 378.707 547.059 381.296L547.059 381.296C547.059 383.885 544.96 385.984 542.37 385.984L427.965 385.984C425.376 385.984 423.277 383.885 423.277 381.296L423.277 381.296C423.277 378.707 425.376 376.608 427.965 376.608Z" fill="#ebf8ff" fill-rule="evenodd" opacity="1" stroke="none"/>
<path d="M427.965 392.186L516.111 392.186C518.7 392.186 520.799 394.285 520.799 396.874L520.799 396.874C520.799 399.463 518.7 401.562 516.111 401.562L427.965 401.562C425.376 401.562 423.277 399.463 423.277 396.874L423.277 396.874C423.277 394.285 425.376 392.186 427.965 392.186Z" fill="#ebf8ff" fill-rule="evenodd" opacity="1" stroke="none"/>
<path d="M427.965 409.469L448.705 409.469C451.294 409.469 453.393 411.568 453.393 414.157L453.393 414.157C453.393 416.747 451.294 418.845 448.705 418.845L427.965 418.845C425.376 418.845 423.277 416.747 423.277 414.157L423.277 414.157C423.277 411.568 425.376 409.469 427.965 409.469Z" fill="#ebf8ff" fill-rule="evenodd" opacity="1" stroke="none"/>
<path d="M369.326 441.589L552.674 441.589C558.659 441.589 563.511 446.441 563.511 452.426L563.511 492.127C563.511 498.112 558.659 502.964 552.674 502.964L369.326 502.964C363.341 502.964 358.489 498.112 358.489 492.127L358.489 452.426C358.489 446.441 363.341 441.589 369.326 441.589Z" fill="#bac6f2" fill-rule="evenodd" opacity="1" stroke="none"/>
<path d="M366.901 471.846C366.901 459.646 376.791 449.756 388.991 449.756C401.191 449.756 411.082 459.646 411.082 471.846C411.082 484.046 401.191 493.937 388.991 493.937C376.791 493.937 366.901 484.046 366.901 471.846Z" fill="#ebf8ff" fill-rule="evenodd" opacity="1" stroke="none"/>
<path d="M427.965 451.699L542.37 451.699C544.96 451.699 547.059 453.798 547.059 456.387L547.059 456.387C547.059 458.976 544.96 461.075 542.37 461.075L427.965 461.075C425.376 461.075 423.277 458.976 423.277 456.387L423.277 456.387C423.277 453.798 425.376 451.699 427.965 451.699Z" fill="#ebf8ff" fill-rule="evenodd" opacity="1" stroke="none"/>
<path d="M427.965 467.277L516.111 467.277C518.7 467.277 520.799 469.376 520.799 471.965L520.799 471.965C520.799 474.554 518.7 476.653 516.111 476.653L427.965 476.653C425.376 476.653 423.277 474.554 423.277 471.965L423.277 471.965C423.277 469.376 425.376 467.277 427.965 467.277Z" fill="#ebf8ff" fill-rule="evenodd" opacity="1" stroke="none"/>
<path d="M427.965 484.56L448.705 484.56C451.294 484.56 453.393 486.659 453.393 489.248L453.393 489.248C453.393 491.838 451.294 493.937 448.705 493.937L427.965 493.937C425.376 493.937 423.277 491.838 423.277 489.248L423.277 489.248C423.277 486.659 425.376 484.56 427.965 484.56Z" fill="#ebf8ff" fill-rule="evenodd" opacity="1" stroke="none"/>
<path d="M321.311 293.157L504.658 293.157C510.643 293.157 515.496 298.009 515.496 303.995L515.496 343.695C515.496 349.68 510.643 354.533 504.658 354.533L321.311 354.533C315.325 354.533 310.473 349.68 310.473 343.695L310.473 303.995C310.473 298.009 315.325 293.157 321.311 293.157Z" fill="#fae0c2" fill-rule="evenodd" opacity="1" stroke="none"/>
<path d="M312.409 282.772L495.757 282.772C501.742 282.772 506.594 287.624 506.594 293.61L506.594 333.31C506.594 339.295 501.742 344.148 495.757 344.148L312.409 344.148C306.424 344.148 301.572 339.295 301.572 333.31L301.572 293.61C301.572 287.624 306.424 282.772 312.409 282.772Z" fill="url(#LinearGradient_2)" fill-rule="evenodd" opacity="1" stroke="none"/>
<path d="M309.983 313.037C309.983 300.837 319.874 290.947 332.074 290.947C344.274 290.947 354.164 300.837 354.164 313.037C354.164 325.237 344.274 335.127 332.074 335.127C319.874 335.127 309.983 325.237 309.983 313.037Z" fill="#ffffff" fill-rule="evenodd" opacity="1" stroke="none"/>
<path d="M371.047 292.883L485.453 292.883C488.042 292.883 490.141 294.982 490.141 297.571L490.141 297.571C490.141 300.16 488.042 302.259 485.453 302.259L371.047 302.259C368.458 302.259 366.359 300.16 366.359 297.571L366.359 297.571C366.359 294.982 368.458 292.883 371.047 292.883Z" fill="#ffffff" fill-rule="evenodd" opacity="1" stroke="none"/>
<path d="M371.047 308.46L459.194 308.46C461.783 308.46 463.882 310.559 463.882 313.148L463.882 313.148C463.882 315.737 461.783 317.836 459.194 317.836L371.047 317.836C368.458 317.836 366.359 315.737 366.359 313.148L366.359 313.148C366.359 310.559 368.458 308.46 371.047 308.46Z" fill="#ffffff" fill-rule="evenodd" opacity="1" stroke="none"/>
<path d="M370.306 325.744L391.046 325.744C393.635 325.744 395.734 327.843 395.734 330.432L395.734 330.432C395.734 333.021 393.635 335.12 391.046 335.12L370.306 335.12C367.716 335.12 365.618 333.021 365.618 330.432L365.618 330.432C365.618 327.843 367.716 325.744 370.306 325.744Z" fill="#ffffff" fill-rule="evenodd" opacity="1" stroke="none"/>
<path d="M432.267 724.224C428.799 724.335 425.67 722.158 424.567 718.869C423.633 715.892 423.674 712.695 424.686 709.745C426.808 703.232 432.734 688.403 436.451 678.894C437.831 675.569 441.077 673.402 444.677 673.404L646.636 671.179C646.636 671.179 658.082 670.007 658.579 681.193C659.076 692.379 658.913 712.348 658.913 712.348C658.913 712.348 660.441 719.989 649.729 720.167C642.66 720.271 463.415 723.638 432.267 724.224Z" fill="#e9edfa" fill-rule="evenodd" opacity="1" stroke="none"/>
<path d="M433.55 716.05C431.679 716.103 429.822 715.706 428.135 714.893C425.591 713.617 422.943 711.05 424.604 706.036C426.711 699.523 434.144 680.236 437.838 670.727C439.19 667.408 442.414 665.236 445.998 665.23L646.673 663.049C646.673 663.049 658.045 661.877 658.542 673.063C659.039 684.249 658.883 704.218 658.883 704.218C658.883 704.218 660.367 711.859 649.752 712.037C642.452 712.118 453.223 715.679 433.55 716.05Z" fill="#bac6f2" fill-rule="evenodd" opacity="1" stroke="none"/>
<path d="M438.436 690.314C438.319 679.527 450.502 670.651 465.647 670.487C480.792 670.323 493.164 678.934 493.281 689.72C493.397 700.506 481.215 709.383 466.07 709.547C450.925 709.711 438.553 701.1 438.436 690.314Z" fill="#ebf8ff" fill-rule="evenodd" opacity="1" stroke="none"/>
<path d="M508.111 672.514L639.207 671.095C641.317 671.072 643.045 672.764 643.068 674.874L643.068 674.874C643.091 676.984 641.399 678.712 639.29 678.735L508.194 680.154C506.084 680.177 504.355 678.485 504.333 676.375L504.333 676.375C504.31 674.266 506.001 672.537 508.111 672.514Z" fill="#ffffff" fill-rule="evenodd" opacity="1" stroke="none"/>
<path d="M505.357 685.843L604.758 684.768C606.556 684.748 608.03 686.19 608.05 687.989L608.05 687.989C608.069 689.787 606.627 691.261 604.829 691.28L505.428 692.356C503.629 692.375 502.155 690.933 502.136 689.135L502.136 689.135C502.117 687.336 503.559 685.863 505.357 685.843Z" fill="#ffffff" fill-rule="evenodd" opacity="1" stroke="none"/>
<path d="M502.931 701.854L539.261 701.461C540.732 701.445 541.937 702.624 541.953 704.095L541.953 704.095C541.969 705.566 540.789 706.771 539.319 706.787L502.988 707.18C501.517 707.196 500.312 706.016 500.296 704.546L500.296 704.546C500.281 703.075 501.46 701.87 502.931 701.854Z" fill="#ebf8ff" fill-rule="evenodd" opacity="1" stroke="none"/>
<path d="M422.624 703.454C419.156 703.565 416.026 701.388 414.924 698.099C413.989 695.122 414.031 691.925 415.043 688.975C417.164 682.462 423.091 667.633 426.808 658.124C428.187 654.799 431.434 652.632 435.034 652.634L636.993 650.409C636.993 650.409 648.439 649.237 648.936 660.423C649.433 671.609 649.269 691.578 649.269 691.578C649.269 691.578 650.797 699.219 640.086 699.397L520.845 701.622L422.624 703.454Z" fill="#e9edfa" fill-rule="evenodd" opacity="1" stroke="none"/>
<path d="M423.907 695.28C422.035 695.333 420.178 694.936 418.492 694.123C415.948 692.847 413.3 690.28 414.961 685.266C417.068 678.753 424.501 659.466 428.195 649.957C429.547 646.638 432.771 644.466 436.354 644.46L637.03 642.279C637.03 642.279 648.401 641.107 648.898 652.293C649.395 663.479 649.24 683.448 649.24 683.448C649.24 683.448 650.723 691.089 640.108 691.267C632.809 691.348 443.579 694.909 423.907 695.28Z" fill="#bac6f2" fill-rule="evenodd" opacity="1" stroke="none"/>
<path d="M428.799 669.545C428.682 658.759 440.865 649.882 456.01 649.718C471.154 649.554 483.526 658.166 483.643 668.952C483.76 679.738 471.577 688.615 456.432 688.779C441.287 688.942 428.915 680.331 428.799 669.545Z" fill="#ffffff" fill-rule="evenodd" opacity="1" stroke="none"/>
<path d="M498.474 651.746L629.569 650.327C631.679 650.304 633.408 651.996 633.431 654.106L633.431 654.106C633.454 656.215 631.762 657.944 629.652 657.967L498.556 659.386C496.447 659.408 494.718 657.717 494.695 655.607L494.695 655.607C494.672 653.497 496.364 651.768 498.474 651.746Z" fill="#ffffff" fill-rule="evenodd" opacity="1" stroke="none"/>
<path d="M495.72 665.075L595.121 663.999C596.919 663.98 598.393 665.422 598.412 667.22L598.412 667.22C598.432 669.019 596.99 670.492 595.191 670.512L495.79 671.587C493.992 671.607 492.518 670.165 492.499 668.366L492.499 668.366C492.479 666.568 493.921 665.094 495.72 665.075Z" fill="#ffffff" fill-rule="evenodd" opacity="1" stroke="none"/>
<path d="M493.286 681.086L529.616 680.693C531.087 680.677 532.292 681.856 532.308 683.327L532.308 683.327C532.324 684.797 531.144 686.002 529.674 686.018L493.343 686.412C491.873 686.427 490.667 685.248 490.652 683.777L490.652 683.777C490.636 682.307 491.815 681.102 493.286 681.086Z" fill="#ebf8ff" fill-rule="evenodd" opacity="1" stroke="none"/>
<path d="M442.348 685.533C438.978 685.595 435.979 683.405 435.012 680.177C434.123 677.197 434.161 674.018 435.123 671.06C437.141 664.548 442.778 649.719 446.309 640.21C447.54 636.937 450.654 634.757 454.15 634.72L646.488 632.628C646.488 632.628 657.385 631.456 657.859 642.65C658.334 653.844 658.2 673.805 658.2 673.805C658.2 673.805 659.684 681.453 649.455 681.616C642.734 681.69 472.005 684.962 442.348 685.533Z" fill="#e9edfa" fill-rule="evenodd" opacity="1" stroke="none"/>
<path d="M443.564 677.329C441.762 677.391 439.975 676.99 438.372 676.164C435.954 674.888 433.461 672.329 435.004 667.314C437.007 660.802 444.076 641.515 447.615 632.005C448.821 628.739 451.921 626.557 455.403 626.524L646.503 624.439C646.503 624.439 657.333 623.267 657.807 634.461C658.282 645.654 658.149 665.616 658.149 665.616C658.149 665.616 659.632 673.264 649.462 673.427C642.504 673.531 462.302 676.995 443.564 677.329Z" fill="#bac6f2" fill-rule="evenodd" opacity="1" stroke="none"/>
<path d="M448.209 651.63C448.093 640.844 459.691 631.973 474.115 631.817C488.539 631.661 500.326 640.278 500.443 651.064C500.56 661.851 488.961 670.721 474.537 670.877C460.113 671.033 448.326 662.416 448.209 651.63Z" fill="#ebf8ff" fill-rule="evenodd" opacity="1" stroke="none"/>
<path d="M514.74 633.864L639.219 632.517C641.329 632.494 643.058 634.186 643.081 636.296L643.081 636.296C643.103 638.405 641.412 640.134 639.302 640.157L514.823 641.504C512.713 641.527 510.984 639.835 510.961 637.725L510.961 637.726C510.938 635.616 512.63 633.887 514.74 633.864Z" fill="#ebf8ff" fill-rule="evenodd" opacity="1" stroke="none"/>
<path d="M511.635 647.858L605.99 646.914C607.789 646.896 609.262 648.339 609.279 650.138L609.279 650.138C609.297 651.936 607.854 653.409 606.056 653.427L511.7 654.37C509.902 654.388 508.429 652.945 508.411 651.147L508.411 651.147C508.393 649.348 509.837 647.875 511.635 647.858Z" fill="#ffffff" fill-rule="evenodd" opacity="1" stroke="none"/>
<path d="M509.759 663.195L544.109 662.823C545.58 662.807 546.785 663.986 546.801 665.457L546.801 665.457C546.817 666.928 545.638 668.133 544.167 668.149L509.817 668.521C508.346 668.536 507.141 667.357 507.125 665.886L507.125 665.886C507.109 664.416 508.288 663.211 509.759 663.195Z" fill="#ebf8ff" fill-rule="evenodd" opacity="1" stroke="none"/>
<path d="M416.059 665.853C412.69 665.881 409.714 663.661 408.782 660.423C407.927 657.431 408 654.25 408.99 651.299C411.082 644.816 416.875 630.047 420.517 620.582C421.777 617.317 424.918 615.167 428.417 615.174L620.762 615.174C620.762 615.174 631.674 614.128 632.023 625.322C632.371 636.515 632.023 656.477 632.023 656.477C632.023 656.477 633.403 664.132 623.196 664.192C618.248 664.197 525.008 664.957 463.992 665.458C441.853 665.64 423.957 665.788 416.059 665.853Z" fill="#e9edfa" fill-rule="evenodd" opacity="1" stroke="none"/>
<path d="M417.365 657.693C415.573 657.73 413.802 657.312 412.217 656.477C409.806 655.171 407.343 652.583 408.938 647.575C411.015 641.092 418.299 621.88 421.912 612.415C423.154 609.16 426.276 607.009 429.76 607.007L620.874 607.007C620.874 607.007 631.719 605.961 632.067 617.155C632.416 628.348 632.067 648.31 632.067 648.31C632.067 648.31 633.432 655.965 623.299 656.024C616.334 656.039 436.102 657.538 417.365 657.693Z" fill="#bac6f2" fill-rule="evenodd" opacity="1" stroke="none"/>
<path d="M422.335 631.961C422.335 621.174 434.028 612.43 448.453 612.43C462.878 612.43 474.571 621.174 474.571 631.961C474.571 642.748 462.878 651.492 448.453 651.492C434.028 651.492 422.335 642.748 422.335 631.961Z" fill="#ebf8ff" fill-rule="evenodd" opacity="1" stroke="none"/>
<path d="M489.051 614.915L613.538 614.915C615.647 614.915 617.358 616.625 617.358 618.735L617.358 618.735C617.358 620.845 615.647 622.555 613.538 622.555L489.051 622.555C486.941 622.555 485.231 620.845 485.231 618.735L485.231 618.735C485.231 616.625 486.941 614.915 489.051 614.915Z" fill="#ebf8ff" fill-rule="evenodd" opacity="1" stroke="none"/>
<path d="M486.262 628.215L580.617 628.215C582.416 628.215 583.873 629.673 583.873 631.471L583.873 631.471C583.873 633.27 582.416 634.728 580.617 634.728L486.262 634.728C484.463 634.728 483.005 633.27 483.005 631.471L483.005 631.471C483.005 629.673 484.463 628.215 486.262 628.215Z" fill="#ebf8ff" fill-rule="evenodd" opacity="1" stroke="none"/>
<path d="M483.754 644.2L518.107 644.2C519.577 644.2 520.77 645.393 520.77 646.863L520.77 646.863C520.77 648.334 519.577 649.526 518.107 649.526L483.754 649.526C482.284 649.526 481.091 648.334 481.091 646.863L481.091 646.863C481.091 645.393 482.284 644.2 483.754 644.2Z" fill="#ebf8ff" fill-rule="evenodd" opacity="1" stroke="none"/>
<path d="M225.667 697.359L229.41 697.359C230.315 697.359 231.052 696.623 231.052 695.725L231.052 691.982C231.052 691.077 230.315 690.348 229.41 690.348L225.667 690.348C224.766 690.351 224.036 691.081 224.033 691.982L224.033 695.725C224.036 696.626 224.766 697.356 225.667 697.359Z" fill="none" fill-rule="evenodd" opacity="1" stroke="none"/>
<path d="M627.596 544.897L621.313 538.613L620.572 537.873L609.369 526.669C608.705 526.005 607.628 526.005 606.964 526.669L606.965 526.668C606.301 527.332 606.301 528.408 606.965 529.072L625.193 547.3C625.857 547.964 626.933 547.964 627.597 547.3L627.596 547.301C628.26 546.637 628.26 545.561 627.596 544.897Z" fill="#fbfbfb" fill-rule="evenodd" opacity="1" stroke="none"/>
<path d="M616.41 544.976L611.153 539.719C610.489 539.055 609.413 539.055 608.749 539.719L608.75 539.719C608.086 540.382 608.086 541.459 608.75 542.123L614.006 547.379C614.67 548.043 615.746 548.043 616.41 547.379L616.41 547.38C616.41 547.38 617.074 545.64 616.41 544.976Z" fill="#fbfbfb" fill-rule="evenodd" opacity="1" stroke="none"/>
</g>
<g id="Layer-1" vectornator:layerName="Layer 1">
<path d="M334.886 336.965C321.371 336.965 310.414 325.853 310.414 312.148C310.414 298.443 321.371 287.331 334.886 287.331C348.4 287.331 359.358 298.443 359.358 312.148C359.358 325.853 348.4 336.965 334.886 336.965Z" fill="#3dafcd" fill-rule="evenodd" opacity="1" stroke="none"/>
<path d="M343.502 308.012L333.164 319.041L326.958 312.425" fill="none" fill-rule="evenodd" opacity="1" stroke="#ffffff" stroke-linecap="round" stroke-linejoin="round" stroke-width="6.288"/>
</g>
<g id="Layer-2" vectornator:layerName="Layer 2">
<path d="M255.13 303.413C254.29 309.9 252.043 317.719 248.405 320.374C244.28 323.389 243.006 326.589 243.006 326.589L238.813 325.296L233.802 323.751C233.802 323.751 233.793 323.24 233.825 322.388C233.85 321.544 233.928 320.361 234.094 319.03C234.094 319.03 235.049 316.976 233.71 314.979C232.372 312.987 231.756 309.567 232.699 307.178C233.636 304.797 233.832 299.403 234.718 299.361C236.868 299.24 235.396 306.925 236.583 308.01C237.649 308.998 238.562 308.364 238.725 308.228C238.737 308.219 238.748 308.21 238.759 308.201C243.963 304.312 247.813 288.953 251.352 290.091C252.672 290.515 255.492 300.652 255.13 303.413ZM43.5427 463.024C43.5427 463.024 47.9862 470.713 45.9967 475.148C44.0129 479.586 37.124 485.502 35.3469 487.823C33.5769 490.139 27.5687 496.261 25.1474 492.322C22.7288 488.392 27.0009 477.941 29.9632 474.001C32.9227 470.055 33.203 463.282 33.203 463.282L43.5427 463.024Z" fill="#f8ae9d" fill-rule="evenodd" opacity="1" stroke="none"/>
<path d="M124.112 302.489C124.112 302.489 175.944 358.357 192.079 367.112L232.733 319.125C232.733 319.125 240.364 319.661 245.141 326.096C245.141 326.096 229.368 393.774 200.591 403.148C171.813 412.521 113.144 346.624 113.144 346.624L124.112 302.489ZM172.438 712.024L119.213 712.024C116.656 709.009 117.597 697.879 117.981 694.24C118.062 693.507 118.115 693.085 118.115 693.085C118.115 693.085 136.29 679.049 138.786 689.797C138.861 690.134 138.955 690.465 139.055 690.791C142.199 700.842 156.309 705.41 164.45 706.683C169.753 707.508 171.711 710.166 172.438 712.024Z" fill="#2f4e56" fill-rule="evenodd" opacity="1" stroke="none"/>
<path d="M136.603 712.024L83.3779 712.024C80.8206 709.009 81.7636 697.879 82.146 694.24C82.2267 693.507 82.2805 693.085 82.2805 693.085C82.2805 693.085 100.456 679.049 102.953 689.797C103.026 690.134 103.12 690.465 103.222 690.791C106.364 700.842 120.474 705.41 128.617 706.683C133.918 707.508 135.876 710.166 136.603 712.024Z" fill="#2f4e56" fill-rule="evenodd" opacity="1" stroke="none"/>
<path d="M157.898 472.708C157.898 472.708 155.354 500.25 152.363 533.352C148.298 578.32 143.408 633.558 142.924 644.021C142.086 662.193 138.735 691.257 138.735 691.257C138.735 691.257 130.779 698.162 114.854 695.251C114.854 695.251 100.662 653.758 96.6105 609.855L96.4236 607.687C92.6499 562.997 86.7919 468.888 86.7919 468.888L157.898 472.708Z" fill="#4288c3" fill-rule="evenodd" opacity="1" stroke="none"/>
<path d="M143.463 474.593C143.463 474.593 138.665 501.86 132.965 534.636C125.22 579.164 115.812 633.866 114.479 644.254C112.168 662.294 106.426 691.029 106.426 691.029C106.426 691.029 97.773 697.435 81.7948 693.596C81.7948 693.596 70.672 651.453 70.0688 607.508L70.0532 605.337C69.7955 560.626 71.3786 466.594 71.3786 466.594L143.463 474.593Z" fill="#4288c3" fill-rule="evenodd" opacity="1" stroke="none"/>
<path d="M135.219 312.549C116.93 318.325 86.7494 302.043 86.7494 302.043C86.7494 302.043 102.144 290.08 101.264 263.762L115.404 275.161L125.011 282.9C125.011 282.9 124.973 287.465 123.921 295.464C123.644 297.567 123.137 300.853 124.713 302.537C130.837 309.073 135.219 312.549 135.219 312.549Z" fill="#f8ae9d" fill-rule="evenodd" opacity="1" stroke="none"/>
<path d="M130.603 282.468C130.603 282.468 100.39 287.49 97.5521 268.625C94.7159 249.759 88.9088 237.702 108.077 233.7C127.246 229.697 132.091 236.328 134.567 242.395C137.043 248.462 138.386 280.676 130.603 282.468Z" fill="#f8ae9d" fill-rule="evenodd" opacity="1" stroke="none"/>
<path d="M160.753 482.468C160.202 482.924 159.562 483.202 158.827 483.202C151.957 483.108 131.926 486.927 114.98 485.185C100.693 483.81 88.0408 479.58 74.4627 473.494C72.6587 472.684 68.5112 470.467 68.599 468.453C68.6627 466.243 68.878 463.046 69.1569 459.011C70.1198 444.991 71.7907 420.883 70.1566 393.064C69.8671 387.943 69.7109 382.816 69.6879 377.687C69.5491 339.982 77.0214 306.824 92.0495 295.603C93.3353 294.685 101.213 298.535 108.451 302.101C115.138 305.4 120.381 305.748 126.702 304.468L134.459 310.067C142.154 317.209 150.582 326.925 154.249 341.667C157.364 354.218 159.195 376.845 160.202 400.295C160.658 410.921 161.025 421.643 161.12 431.807L161.12 432.167C161.209 433.175 161.209 434.277 161.209 435.283C161.576 461.399 161.209 482.101 160.753 482.468Z" fill="#2f4e56" fill-rule="evenodd" opacity="1" stroke="none"/>
<path d="M39.0143 466.94C44.7492 467.718 50.8678 466.914 50.8678 466.914C50.8678 466.914 64.6979 413.934 66.5911 409.062C68.4857 404.188 113.069 345.194 113.069 345.194L90.2569 296.471C90.2569 296.471 43.513 385.892 38.962 398.34C31.4415 418.909 31.0281 464.078 31.0281 464.078C31.0281 464.078 34.5072 466.331 39.0143 466.94ZM94.1537 261.868C95.7977 265.267 100.57 265.772 100.129 262.021C99.6294 257.751 99.6351 252.167 103.106 253.204C106.576 254.244 106.753 257.023 108.178 255.402C109.604 253.781 109.629 246.941 119.963 246.46C130.299 245.986 134.497 249.582 139.297 247.467C142.175 246.201 143.419 243.088 143.956 240.793C144.109 240.143 143.635 239.236 143.201 239.742C142.791 240.222 141.758 240.191 142.053 239.633C143.873 236.18 146.596 228.64 139.659 223.024C130.375 215.506 120.913 220.427 115.544 220.75C103.708 221.465 96.0639 222.174 92.201 229.951C88.9994 236.402 89.5474 252.339 94.1537 261.868Z" fill="#2f4e56" fill-rule="evenodd" opacity="1" stroke="none"/>
</g>
<g id="Layer-4" vectornator:layerName="Layer 4">
<path d="M153.742 677.359L157.485 677.359C158.39 677.359 159.119 676.623 159.119 675.725L159.119 671.982C159.119 671.077 158.383 670.348 157.485 670.348L153.742 670.348C152.841 670.351 152.111 671.081 152.108 671.982L152.108 675.725C152.107 676.159 152.279 676.575 152.585 676.882C152.892 677.188 153.308 677.36 153.742 677.359ZM166.721 677.359L170.464 677.359C171.365 677.356 172.095 676.626 172.098 675.725L172.098 671.982C172.098 671.077 171.362 670.348 170.464 670.348L166.721 670.348C165.82 670.351 165.09 671.081 165.087 671.982L165.087 675.725C165.09 676.626 165.82 677.356 166.721 677.359ZM179.708 677.359L183.451 677.359C184.352 677.356 185.082 676.626 185.085 675.725L185.085 671.982C185.085 671.077 184.349 670.348 183.451 670.348L179.708 670.348C178.807 670.351 178.077 671.081 178.074 671.982L178.074 675.725C178.073 676.159 178.245 676.575 178.551 676.882C178.858 677.188 179.274 677.36 179.708 677.359ZM192.687 677.359L196.43 677.359C197.331 677.356 198.061 676.626 198.064 675.725L198.064 671.982C198.064 671.077 197.328 670.348 196.43 670.348L192.687 670.348C191.782 670.348 191.045 671.084 191.045 671.982L191.045 675.725C191.055 676.626 191.785 677.354 192.687 677.359ZM205.667 677.359L209.41 677.359C210.315 677.359 211.052 676.623 211.052 675.725L211.052 671.982C211.052 671.077 210.315 670.348 209.41 670.348L205.667 670.348C204.766 670.351 204.036 671.081 204.033 671.982L204.033 675.725C204.036 676.626 204.766 677.356 205.667 677.359ZM167.197 663.207L170.94 663.207C171.837 663.207 172.574 662.47 172.574 661.573L172.574 657.821C172.57 656.92 171.841 656.191 170.94 656.188L167.197 656.188C166.291 656.188 165.563 656.924 165.563 657.821L165.563 661.565C165.56 662 165.731 662.418 166.038 662.726C166.345 663.034 166.762 663.208 167.197 663.207ZM180.176 663.207L183.919 663.207C184.82 663.204 185.55 662.474 185.553 661.573L185.553 657.821C185.549 656.92 184.82 656.191 183.919 656.188L180.176 656.188C179.275 656.191 178.546 656.92 178.542 657.821L178.542 661.565C178.539 662 178.71 662.418 179.017 662.726C179.324 663.034 179.741 663.208 180.176 663.207ZM193.155 663.207L196.898 663.207C197.804 663.207 198.54 662.47 198.54 661.573L198.54 657.821C198.54 656.924 197.804 656.188 196.898 656.188L193.155 656.188C192.254 656.191 191.525 656.92 191.521 657.821L191.521 661.565C191.521 662.47 192.258 663.207 193.155 663.207ZM179.708 692.564L183.451 692.564C184.352 692.561 185.082 691.831 185.085 690.93L185.085 687.186C185.085 686.281 184.349 685.552 183.451 685.552L179.708 685.552C178.807 685.555 178.077 686.285 178.074 687.186L178.074 690.93C178.073 691.364 178.245 691.78 178.551 692.087C178.858 692.393 179.274 692.565 179.708 692.564ZM192.687 692.564L196.43 692.564C197.331 692.561 198.061 691.831 198.064 690.93L198.064 687.186C198.064 686.281 197.328 685.552 196.43 685.552L192.687 685.552C191.782 685.552 191.045 686.289 191.045 687.186L191.045 690.93C191.055 691.831 191.785 692.559 192.687 692.564Z" fill="#f8fcfd" fill-rule="evenodd" opacity="1" stroke="none"/>
<path d="M608.251 522.922L611.994 522.922C612.899 522.922 613.636 522.186 613.636 521.288L613.636 517.545C613.636 516.64 612.899 515.911 611.994 515.911L608.251 515.911C607.35 515.914 606.62 516.644 606.617 517.545L606.617 521.288C606.62 522.189 607.35 522.919 608.251 522.922Z" fill="none" fill-rule="evenodd" opacity="1" stroke="none"/>
<path d="M225.667 697.359L229.41 697.359C230.315 697.359 231.052 696.623 231.052 695.725L231.052 691.982C231.052 691.077 230.315 690.348 229.41 690.348L225.667 690.348C224.766 690.351 224.036 691.081 224.033 691.982L224.033 695.725C224.036 696.626 224.766 697.356 225.667 697.359Z" fill="none" fill-rule="evenodd" opacity="1" stroke="none"/>
<path d="M364.315 81.9264C370.515 82.5172 375.061 88.0213 374.47 94.2212C373.879 100.421 368.375 104.967 362.175 104.377C355.975 103.786 351.429 98.2817 352.02 92.0818C352.611 85.8819 358.115 81.3356 364.315 81.9264Z" fill="#3dafcd" fill-rule="evenodd" opacity="1" stroke="none"/>
<path d="M472.164 115.253C475.476 115.568 477.905 118.509 477.589 121.821C477.274 125.133 474.333 127.562 471.021 127.246C467.709 126.931 465.28 123.99 465.596 120.678C465.911 117.366 468.852 114.937 472.164 115.253Z" fill="#3dafcd" fill-rule="evenodd" opacity="1" stroke="none"/>
<path d="M305.571 407.291C302.859 407.033 300.45 409.022 300.192 411.734C299.933 414.445 301.923 416.854 304.635 417.112C307.346 417.371 309.755 415.381 310.013 412.67C310.272 409.958 308.282 407.549 305.571 407.291Z" fill="#3dafcd" fill-rule="evenodd" opacity="1" stroke="none"/>
<path d="M633.175 292.294C628.084 291.808 623.563 295.542 623.078 300.634C622.592 305.726 626.327 310.247 631.418 310.732C636.51 311.217 641.031 307.483 641.516 302.391C642.001 297.299 638.267 292.779 633.175 292.294Z" fill="#3dafcd" fill-rule="evenodd" opacity="1" stroke="none"/>
<path d="M612.254 138.634C613.327 145.009 619.365 149.307 625.74 148.234C632.115 147.161 636.412 141.123 635.339 134.748C634.266 128.374 628.228 124.076 621.853 125.149C615.479 126.222 611.181 132.26 612.254 138.634Z" fill="#3dafcd" fill-rule="evenodd" opacity="1" stroke="none"/>
</g>
</svg>
