<?xml version="1.0" encoding="UTF-8" standalone="no"?>
<!DOCTYPE svg PUBLIC "-//W3C//DTD SVG 1.1//EN" "http://www.w3.org/Graphics/SVG/1.1/DTD/svg11.dtd">

<!-- Created with Vectornator (http://vectornator.io/) -->
<svg height="100%" stroke-miterlimit="10" style="fill-rule:nonzero;clip-rule:evenodd;stroke-linecap:round;stroke-linejoin:round;" version="1.1" viewBox="0 0 900 600" width="100%" xml:space="preserve" xmlns="http://www.w3.org/2000/svg" xmlns:vectornator="http://vectornator.io" xmlns:xlink="http://www.w3.org/1999/xlink">
<metadata>
<vectornator:setting key="IsTimeLapseWatermarkDisabled" value="false"/>
<vectornator:setting key="UndoHistoryDisabled" value="true"/>
<vectornator:setting key="VNDimensionsVisible" value="true"/>
<vectornator:setting key="VNSnapToGuides" value="true"/>
<vectornator:setting key="WDCMYKEnabledKey" value="false"/>
<vectornator:setting key="WDDisplayWhiteBackground" value="false"/>
<vectornator:setting key="WDDynamicGuides" value="false"/>
<vectornator:setting key="WDGuidesVisible" value="true"/>
<vectornator:setting key="WDIsolateActiveLayer" value="false"/>
<vectornator:setting key="WDOutlineMode" value="false"/>
<vectornator:setting key="WDRulersVisible" value="true"/>
<vectornator:setting key="WDSnapToEdges" value="false"/>
<vectornator:setting key="WDSnapToGrid" value="false"/>
<vectornator:setting key="WDSnapToPoints" value="false"/>
<vectornator:setting key="WDUnits" value="Points"/>
</metadata>
<defs>
<linearGradient gradientTransform="matrix(1 0 0 1 -2.84217e-14 -2.84217e-14)" gradientUnits="userSpaceOnUse" id="LinearGradient" x1="526.424" x2="502.103" y1="279.963" y2="170.673">
<stop offset="0" stop-color="#efcb94"/>
<stop offset="0.972483" stop-color="#f9941e"/>
</linearGradient>
<linearGradient gradientTransform="matrix(1 0 0 1 -2.84217e-14 -2.84217e-14)" gradientUnits="userSpaceOnUse" id="LinearGradient_2" x1="572.565" x2="687.539" y1="285.546" y2="194.601">
<stop offset="0" stop-color="#efcb94"/>
<stop offset="0.972483" stop-color="#f9941e"/>
</linearGradient>
<linearGradient gradientTransform="matrix(1 0 0 1 -2.84217e-14 -2.84217e-14)" gradientUnits="userSpaceOnUse" id="LinearGradient_3" x1="306.985" x2="218.03" y1="249.926" y2="167.276">
<stop offset="0" stop-color="#efcb94"/>
<stop offset="0.972483" stop-color="#f9941e"/>
</linearGradient>
<linearGradient gradientTransform="matrix(1 0 0 1 -2.84217e-14 -2.84217e-14)" gradientUnits="userSpaceOnUse" id="LinearGradient_4" x1="461.927" x2="456.491" y1="708.362" y2="-77.043">
<stop offset="0" stop-color="#efcb94"/>
<stop offset="0.972483" stop-color="#f9941e"/>
</linearGradient>
</defs>
<g id="Untitled" vectornator:layerName="Untitled">
<path d="M95.627 468.837C95.627 468.837 38.2755 561.508 174.805 572.754C311.334 584 347.957 569.938 371.266 567.131C394.576 564.324 449.659 552.771 579.914 573.089C660.31 585.63 737.554 569.955 775.844 539.007C814.134 508.058 837.443 474.329 819.128 468.706C800.812 463.083 95.627 468.837 95.627 468.837Z" fill="#4288c3" fill-opacity="0.486799" fill-rule="evenodd" opacity="1" stroke="none"/>
<path d="M95.6765 470.414C95.6765 470.414 34.0368 379.492 49.6714 325.166C52.0089 317.044 56.0736 309.74 62.3297 303.68C111.001 256.533 46.9047 197.523 68.4125 128.776C86.6109 70.5955 197.694-24.8368 299.595 19.2681C440.297 80.1722 439.635 93.5696 526.211 78.5803C612.787 63.591 713.188-17.9999 761.951 84.6631C790.849 145.5 870.295 158.847 889.708 215.462C909.122 272.076 879.88 342.934 863.844 358.426C806.986 413.398 826.4 472.752 826.4 472.752L95.6765 470.414Z" fill="#96c5da" fill-opacity="0.362009" fill-rule="evenodd" opacity="1" stroke="none"/>
<path d="M544.807 248.402C542.078 253.272 536.102 253.941 526.528 253.015C519.327 252.318 512.761 251.779 505.56 247.853C500.52 245.106 496.53 241.391 493.618 237.783C490.463 233.874 486.058 229.412 488.217 224.98C491.185 218.891 508.344 213.763 525.006 222.149C543.309 231.364 547.476 243.642 544.807 248.402Z" fill="url(#LinearGradient)" fill-rule="evenodd" opacity="1" stroke="none"/>
<path d="M626.094 263.977C612.155 270.892 593.653 262.001 593.653 262.001C593.653 262.001 597.765 241.902 611.712 234.997C625.652 228.082 644.146 236.964 644.146 236.964C644.146 236.964 640.034 257.062 626.094 263.977Z" fill="url(#LinearGradient_2)" fill-rule="evenodd" opacity="1" stroke="none"/>
<path d="M264.204 228.598C275.259 235.224 291.12 229.099 291.12 229.099C291.12 229.099 289.046 212.233 277.984 205.615C266.929 198.989 251.075 205.107 251.075 205.107C251.075 205.107 253.148 221.972 264.204 228.598Z" fill="url(#LinearGradient_3)" fill-rule="evenodd" opacity="1" stroke="none"/>
<path d="M726.446 185.583C726.446 191.811 721.398 196.859 715.17 196.859C708.942 196.859 703.894 191.811 703.894 185.583C703.894 179.355 708.942 174.307 715.17 174.307C721.398 174.307 726.446 179.355 726.446 185.583Z" fill="#3dafcd" fill-rule="evenodd" opacity="1" stroke="none"/>
<path d="M265.5 301.898C265.5 308.904 259.821 314.583 252.815 314.583C245.809 314.583 240.13 308.904 240.13 301.898C240.13 294.892 245.809 289.213 252.815 289.213C259.821 289.213 265.5 294.892 265.5 301.898Z" fill="#3dafcd" fill-rule="evenodd" opacity="1" stroke="none"/>
<path d="M590.298 202.994C590.298 200.27 588.089 198.061 585.365 198.061C582.641 198.061 580.432 200.27 580.432 202.994C580.432 205.718 582.641 207.927 585.365 207.927C588.089 207.927 590.298 205.718 590.298 202.994Z" fill="#3dafcd" fill-rule="evenodd" opacity="1" stroke="none"/>
<path d="M540.163 407.542C540.163 404.039 537.323 401.199 533.82 401.199C530.317 401.199 527.477 404.039 527.477 407.542C527.477 411.045 530.317 413.885 533.82 413.885C537.323 413.885 540.163 411.045 540.163 407.542Z" fill="#e1e4e5" fill-rule="evenodd" opacity="1" stroke="none"/>
<path d="M216.542 340.564C216.542 335.505 212.44 331.403 207.381 331.403C202.322 331.403 198.22 335.505 198.22 340.564C198.22 345.623 202.322 349.725 207.381 349.725C212.44 349.725 216.542 345.623 216.542 340.564Z" fill="#e1e4e5" fill-rule="evenodd" opacity="1" stroke="none"/>
<path d="M283.385 123.666C283.385 119.815 280.263 116.693 276.412 116.693C272.561 116.693 269.439 119.815 269.439 123.666C269.439 127.517 272.561 130.639 276.412 130.639C280.263 130.639 283.385 127.517 283.385 123.666Z" fill="#e1e4e5" fill-rule="evenodd" opacity="1" stroke="none"/>
<path d="M621.979 170.22C621.979 165.939 618.508 162.468 614.227 162.468C609.946 162.468 606.475 165.939 606.475 170.22C606.475 174.501 609.946 177.972 614.227 177.972C618.508 177.972 621.979 174.501 621.979 170.22Z" fill="#e1e4e5" fill-rule="evenodd" opacity="1" stroke="none"/>
<path d="M205.186 176.425C201.473 177.42 199.269 181.237 200.264 184.95C201.259 188.664 205.076 190.867 208.789 189.872C212.503 188.877 214.706 185.06 213.711 181.347C212.716 177.633 208.899 175.43 205.186 176.425Z" fill="#e1e4e5" fill-rule="evenodd" opacity="1" stroke="none"/>
<path d="M377.485 65.17C377.485 60.0553 373.339 55.909 368.224 55.909C363.109 55.909 358.963 60.0553 358.963 65.17C358.963 70.2847 363.109 74.431 368.224 74.431C373.339 74.431 377.485 70.2847 377.485 65.17Z" fill="#3dafcd" fill-rule="evenodd" opacity="1" stroke="none"/>
<path d="M637.247 303.462C637.247 300.315 634.057 297.763 630.123 297.763C626.189 297.763 622.999 300.315 622.999 303.462C622.999 306.609 626.189 309.161 630.123 309.161C634.057 309.161 637.247 306.609 637.247 303.462Z" fill="#e1e4e5" fill-rule="evenodd" opacity="1" stroke="none"/>
<path d="M525.438 50.7492C517.709 52.8201 513.122 60.7644 515.193 68.4933C517.264 76.2221 525.208 80.8088 532.937 78.7378C540.666 76.6669 545.253 68.7226 543.182 60.9937C541.111 53.2649 533.166 48.6782 525.438 50.7492Z" fill="#3dafcd" fill-rule="evenodd" opacity="1" stroke="none"/>
<path d="M634.68 357.149L634.866 357.149C635.97 372.785 647.598 373.025 647.598 373.025C647.598 373.025 634.775 373.276 634.775 391.342C634.775 373.276 621.953 373.025 621.953 373.025C621.953 373.025 633.576 372.785 634.68 357.149ZM310.455 391.651L310.62 391.651C311.6 405.802 321.917 406.02 321.917 406.02C321.917 406.02 310.54 406.246 310.54 422.598C310.54 406.246 299.162 406.02 299.162 406.02C299.162 406.02 309.476 405.802 310.455 391.651Z" fill="#e1e4e5" fill-rule="evenodd" opacity="1" stroke="none"/>
<path d="M349.718 246.131C427.186 241.746 508.406 264.588 496.468 297.701C484.528 330.814 560.297 285.94 590.532 297.879C612.059 306.378 603.454 332.252 613.868 342.678C637.745 366.582 662.167 336.481 692.557 354.542C722.946 372.604 660.727 541.173 628.979 542.115L266.87 539.968L240.883 537.69C240.883 537.69 169.003 499.345 220.422 463.972C255.19 440.055 230.174 422.686 226.392 411.737C222.051 399.164 211.921 377.207 256.059 361.094C300.197 344.982 288.802 309.92 287.715 302.661C286.631 295.399 272.252 250.517 349.718 246.131Z" fill="url(#LinearGradient_4)" fill-rule="evenodd" opacity="1" stroke="none"/>
<path d="M414.687 379.003L481.585 379.003C483.794 379.003 485.585 380.794 485.585 383.003L485.585 446.535C485.585 448.744 483.794 450.535 481.585 450.535L414.687 450.535C412.478 450.535 410.687 448.744 410.687 446.535L410.687 383.003C410.687 380.794 412.478 379.003 414.687 379.003Z" fill="#ffffff" fill-rule="evenodd" opacity="1" stroke="#e1e4e5" stroke-linecap="butt" stroke-linejoin="miter" stroke-width="7"/>
<path d="M429.636 390.668L486.314 390.668M451.215 261.186L451.215 379.003" fill="none" fill-rule="evenodd" opacity="1" stroke="#e1e4e5" stroke-linecap="butt" stroke-linejoin="miter" stroke-width="7"/>
<path d="M487.514 331.408C463.315 328.022 453.195 346.027 450.753 357.627C450.354 359.52 451.596 361.32 453.483 361.748C482 368.215 489.974 348.471 490.595 335.067C490.68 333.231 489.335 331.662 487.514 331.408Z" fill="#ffffff" fill-rule="evenodd" opacity="1" stroke="#e1e4e5" stroke-linecap="butt" stroke-linejoin="miter" stroke-width="7"/>
<path d="M450.003 358.405L476.933 340.732" fill="none" fill-rule="evenodd" opacity="1" stroke="#e1e4e5" stroke-linecap="butt" stroke-linejoin="miter" stroke-width="2.12065"/>
<path d="M475.733 296.333C459.882 294.574 452.851 306.012 450.823 314.068C450.351 315.944 451.606 317.762 453.503 318.145C472.294 321.943 478.026 309.241 478.767 299.952C478.913 298.119 477.56 296.536 475.733 296.333Z" fill="#ffffff" fill-rule="evenodd" opacity="1" stroke="#e1e4e5" stroke-linecap="butt" stroke-linejoin="miter" stroke-width="7"/>
<path d="M449.512 314.716L468.588 302.198" fill="none" fill-rule="evenodd" opacity="1" stroke="#e1e4e5" stroke-linecap="butt" stroke-linejoin="miter" stroke-width="2.12065"/>
<path d="M468.161 264.621C457.033 263.738 451.803 271.53 450.051 277.493C449.506 279.349 450.748 281.18 452.653 281.514C465.941 283.845 470.351 275.079 471.141 268.192C471.351 266.365 469.995 264.766 468.161 264.621Z" fill="#ffffff" fill-rule="evenodd" opacity="1" stroke="#e1e4e5" stroke-linecap="butt" stroke-linejoin="miter" stroke-width="7"/>
<path d="M448.389 278.06L462.976 268.487" fill="none" fill-rule="evenodd" opacity="1" stroke="#e1e4e5" stroke-linecap="butt" stroke-linejoin="miter" stroke-width="2.12065"/>
<path d="M412.966 331.408C437.166 328.022 447.285 346.027 449.728 357.627C450.126 359.52 448.884 361.32 446.997 361.748C418.481 368.215 410.506 348.471 409.886 335.067C409.801 333.231 411.145 331.662 412.966 331.408Z" fill="#ffffff" fill-rule="evenodd" opacity="1" stroke="#e1e4e5" stroke-linecap="butt" stroke-linejoin="miter" stroke-width="7"/>
<path d="M450.477 358.405L423.547 340.732" fill="none" fill-rule="evenodd" opacity="1" stroke="#e1e4e5" stroke-linecap="butt" stroke-linejoin="miter" stroke-width="2.12065"/>
<path d="M424.748 296.333C440.599 294.574 447.629 306.012 449.657 314.068C450.13 315.944 448.874 317.762 446.978 318.145C428.186 321.943 422.454 309.241 421.713 299.952C421.567 298.119 422.92 296.536 424.748 296.333Z" fill="#ffffff" fill-rule="evenodd" opacity="1" stroke="#e1e4e5" stroke-linecap="butt" stroke-linejoin="miter" stroke-width="7"/>
<path d="M450.968 314.717L431.893 302.199" fill="none" fill-rule="evenodd" opacity="1" stroke="#e1e4e5" stroke-linecap="butt" stroke-linejoin="miter" stroke-width="2.12065"/>
<path d="M430.635 264.621C441.763 263.738 446.993 271.53 448.745 277.493C449.29 279.349 448.048 281.18 446.143 281.514C432.855 283.845 428.445 275.079 427.655 268.192C427.445 266.365 428.801 264.766 430.635 264.621Z" fill="#ffffff" fill-rule="evenodd" opacity="1" stroke="#e1e4e5" stroke-linecap="butt" stroke-linejoin="miter" stroke-width="7"/>
<path d="M450.407 278.06L435.82 268.487M124.223 401.785L122.576 373.787C122.576 373.787 129.765 349.142 142.403 346.801C180.979 339.656 236.68 339.575 272.151 346.558C284.156 348.922 291.365 360.279 290.646 372.493L288.923 401.785M149.722 458.636C149.722 442.937 162.449 430.21 178.148 430.21L234.998 430.21C250.697 430.21 263.424 442.937 263.424 458.636L263.424 472.848L149.722 472.848C149.722 472.848 149.722 458.636 149.722 458.636Z" fill="none" fill-rule="evenodd" opacity="1" stroke="#efefef" stroke-linecap="butt" stroke-linejoin="miter" stroke-width="6.75735"/>
<path d="M108.028 416.884C107.517 408.702 114.015 401.785 122.213 401.785L135.51 401.785C143.359 401.785 149.723 408.148 149.723 415.997L149.723 515.486L127.543 515.486C120.038 515.486 113.826 509.651 113.358 502.16C113.358 502.16 108.028 416.884 108.028 416.884ZM305.118 416.884C305.63 408.702 299.131 401.785 290.933 401.785L277.637 401.785C269.787 401.785 263.424 408.148 263.424 415.997L263.424 515.486L285.603 515.486C293.109 515.486 299.32 509.651 299.788 502.16C299.788 502.16 305.118 416.884 305.118 416.884ZM149.722 515.486L149.722 536.805M263.424 515.486L263.424 536.805M263.424 515.486L149.722 515.486M366.407 515.486L366.407 536.805M534.593 515.486L534.593 536.805M349.699 493.974C349.699 470.599 372.264 451.649 400.1 451.649L500.9 451.649C528.736 451.649 551.301 470.599 551.301 493.974L551.301 515.137L349.699 515.137L349.699 493.974ZM612.077 401.785L610.43 373.787C609.676 360.957 617.619 349.142 630.257 346.801C668.833 339.656 724.534 339.575 760.005 346.558C772.01 348.922 779.219 360.279 778.5 372.493L776.777 401.785M637.576 458.636C637.576 442.937 650.302 430.21 666.001 430.21L722.852 430.21C738.551 430.21 751.278 442.937 751.278 458.636L751.278 472.848L637.576 472.848C637.576 472.848 637.576 458.636 637.576 458.636ZM595.882 416.884C595.371 408.702 601.869 401.785 610.067 401.785L623.364 401.785C631.213 401.785 637.576 408.148 637.576 415.997L637.576 515.486L615.397 515.486C607.892 515.486 601.68 509.651 601.212 502.16C601.212 502.16 595.882 416.884 595.882 416.884ZM792.972 416.884C793.483 408.702 786.985 401.785 778.787 401.785L765.49 401.785C757.641 401.785 751.278 408.148 751.278 415.997L751.278 515.486L773.457 515.486C780.962 515.486 787.174 509.651 787.642 502.16C787.642 502.16 792.972 416.884 792.972 416.884ZM637.576 515.486L637.576 536.805M751.278 515.486L751.278 536.805M751.278 515.486L637.576 515.486" fill="none" fill-rule="evenodd" opacity="1" stroke="#ececec" stroke-linecap="butt" stroke-linejoin="miter" stroke-width="7"/>
<path d="M231.179 150.024L499.421 150.024C501.63 150.024 503.421 151.815 503.421 154.024L503.421 170.176C503.421 172.385 501.63 174.176 499.421 174.176L231.179 174.176C228.97 174.176 227.179 172.385 227.179 170.176L227.179 154.024C227.179 151.815 228.97 150.024 231.179 150.024Z" fill="#ffffff" fill-rule="evenodd" opacity="1" stroke="#e1e4e5" stroke-linecap="butt" stroke-linejoin="miter" stroke-width="7"/>
<path d="M267.407 125.871L291.107 125.871C293.316 125.871 295.107 127.662 295.107 129.871L295.107 146.023C295.107 148.232 293.316 150.023 291.107 150.023L267.407 150.023C265.198 150.023 263.407 148.232 263.407 146.023L263.407 129.871C263.407 127.662 265.198 125.871 267.407 125.871Z" fill="#ffffff" fill-rule="evenodd" opacity="1" stroke="#e1e4e5" stroke-linecap="butt" stroke-linejoin="miter" stroke-width="7"/>
<path d="M267.407 79.076L291.107 79.076C293.316 79.076 295.107 80.8669 295.107 83.076L295.107 121.871C295.107 124.08 293.316 125.871 291.107 125.871L267.407 125.871C265.198 125.871 263.407 124.08 263.407 121.871L263.407 83.076C263.407 80.8669 265.198 79.076 267.407 79.076Z" fill="#ffffff" fill-rule="evenodd" opacity="1" stroke="#e1e4e5" stroke-linecap="butt" stroke-linejoin="miter" stroke-width="7"/>
<path d="M299.107 80.586L319.788 80.586C321.997 80.586 323.788 82.3769 323.788 84.586L323.788 143.005C323.788 145.214 321.997 147.005 319.788 147.005L299.107 147.005C296.898 147.005 295.107 145.214 295.107 143.005L295.107 84.586C295.107 82.3769 296.898 80.586 299.107 80.586Z" fill="#ffffff" fill-rule="evenodd" opacity="1" stroke="#e1e4e5" stroke-linecap="butt" stroke-linejoin="miter" stroke-width="7"/>
<path d="M327.788 80.586L348.469 80.586C350.678 80.586 352.469 82.3769 352.469 84.586L352.469 143.005C352.469 145.214 350.678 147.005 348.469 147.005L327.788 147.005C325.579 147.005 323.788 145.214 323.788 143.005L323.788 84.586C323.788 82.3769 325.579 80.586 327.788 80.586Z" fill="#ffffff" fill-rule="evenodd" opacity="1" stroke="#e1e4e5" stroke-linecap="butt" stroke-linejoin="miter" stroke-width="7"/>
<path d="M470.211 135.909L470.211 146.023C470.211 148.232 468.42 150.023 466.211 150.023L383.64 150.023C381.431 150.023 379.64 148.232 379.64 146.023L379.64 135.909C379.64 133.7 381.431 131.909 383.64 131.909L466.211 131.909C468.42 131.909 470.211 133.7 470.211 135.909Z" fill="#ffffff" fill-rule="evenodd" opacity="1" stroke="#e1e4e5" stroke-linecap="butt" stroke-linejoin="miter" stroke-width="7"/>
<path d="M471.721 119.304L471.721 126.399C471.721 128.608 469.93 130.399 467.721 130.399L397.226 130.399C395.017 130.399 393.226 128.608 393.226 126.399L393.226 119.304C393.226 117.095 395.017 115.304 397.226 115.304L467.721 115.304C469.93 115.304 471.721 117.095 471.721 119.304Z" fill="#ffffff" fill-rule="evenodd" opacity="1" stroke="#e1e4e5" stroke-linecap="butt" stroke-linejoin="miter" stroke-width="7"/>
<path d="M267.407 51.905L291.107 51.905C293.316 51.905 295.107 53.6959 295.107 55.905L295.107 75.076C295.107 77.2851 293.316 79.076 291.107 79.076L267.407 79.076C265.198 79.076 263.407 77.2851 263.407 75.076L263.407 55.905C263.407 53.6959 265.198 51.905 267.407 51.905Z" fill="#ffffff" fill-rule="evenodd" opacity="1" stroke="#e1e4e5" stroke-linecap="butt" stroke-linejoin="miter" stroke-width="7"/>
<path d="M561.7 129.519C561.7 98.865 586.55 74.015 617.204 74.015C647.858 74.015 672.708 98.865 672.708 129.519C672.708 160.173 647.858 185.023 617.204 185.023C586.55 185.023 561.7 160.173 561.7 129.519Z" fill="#ffffff" fill-rule="evenodd" opacity="1" stroke="#e1e4e5" stroke-linecap="butt" stroke-linejoin="miter" stroke-width="7"/>
<path d="M616.346 133.484L616.346 101.768M639.603 160.809L615.816 131.736" fill="none" fill-rule="evenodd" opacity="1" stroke="#e1e4e5" stroke-linecap="butt" stroke-linejoin="miter" stroke-width="7"/>
<path d="M642.289 514.897C642.289 514.897 648.191 526.818 643.352 530.575C638.507 534.332 625.707 541.373 625.707 541.373L659.618 539.242L652.08 513.243C652.08 513.243 642.289 514.897 642.289 514.897Z" fill="#f8ae9d" fill-rule="evenodd" opacity="1" stroke="none"/>
<path d="M656.259 525.685C655.192 526.194 656.947 530.984 653.192 530.647C649.439 530.311 647.082 525.36 644.314 525.682C641.545 526.003 639.787 530.988 634.517 534.461C629.247 537.935 621.433 542.077 621.957 545.568C622.48 549.06 634.776 549.995 641.006 548.839C647.235 547.684 650.143 545.18 654.185 545.38C658.226 545.579 660.766 545.085 662.033 542.489C663.299 539.894 657.491 525.097 656.259 525.685ZM693.373 409.83C683.106 410.288 625.967 422.926 615.586 425.073C605.204 427.22 596.428 438.839 604.344 452.292C613.235 467.394 636.176 510.283 641.746 519.951C644.503 524.736 658.411 522.053 655.144 514.021C649.054 499.048 646.225 461.435 630.699 447.721C630.699 447.721 682.915 456.808 705.47 446.399C721.863 438.832 718.155 408.722 693.373 409.83Z" fill="#2f4e56" fill-rule="evenodd" opacity="1" stroke="none"/>
<path d="M621.754 345.746C621.754 345.746 621.87 339.643 618.948 335.278C616.026 330.912 615.91 326.275 613.699 326.427C611.487 326.579 613.677 337.357 613.677 337.357C613.677 337.357 610.871 336.285 608.855 334.929C606.84 333.573 600.728 326.889 599.299 328.073C596.877 330.092 600.778 341.476 602.903 343.752C605.034 346.029 615.554 352.391 615.554 352.391L646.533 383.601L651.166 367.033C651.166 367.033 621.754 345.746 621.754 345.746Z" fill="#f8ae9d" fill-rule="evenodd" opacity="1" stroke="none"/>
<path d="M683.72 342.991C678.945 354.068 670.2 374.416 666.595 380.487C662.078 388.089 654.954 391.439 646.613 385.798C644.868 384.618 639.856 380.49 639.856 380.49C640.598 373.264 643.298 367.225 647.951 362.369L651.111 364.984C651.111 364.984 660.074 342.009 667.283 328.7C673.527 317.185 690.99 326.152 683.72 342.991ZM704.36 299.996L704.36 309.797L711.558 304.002C711.558 304.002 713.77 294.611 715.569 287.637C716.698 283.263 719.447 268.461 708.38 269.155C699.314 253.174 672.912 263.065 672.702 282.589C672.449 306.071 672.655 315.213 672.655 315.213C687.585 316.07 695.989 313.912 704.36 299.996Z" fill="#2f4e56" fill-rule="evenodd" opacity="1" stroke="none"/>
<path d="M711.713 318.657C711.713 318.657 705.017 317.085 704.785 306.114C704.553 295.143 704.716 291.399 704.716 291.399L689.968 291.132C689.968 291.132 689.807 303.359 689.805 307.782C689.798 318.535 681.891 319.416 681.891 319.416C681.891 319.416 683.242 328.288 696.606 329.04C707.04 329.627 711.713 318.657 711.713 318.657Z" fill="#f8ae9d" fill-rule="evenodd" opacity="1" stroke="none"/>
<path d="M708.154 285.92C714.733 285.666 713.66 295.297 706.826 295.284C706.826 295.284 702.856 308.966 689.074 308.966C677.882 308.966 677.154 293.019 677.052 289.838C676.943 286.446 676.929 275.303 676.929 275.303L708.41 275.289C708.41 275.289 708.154 285.92 708.154 285.92Z" fill="#f8ae9d" fill-rule="evenodd" opacity="1" stroke="none"/>
<path d="M708.663 285.857C705.937 286.307 706.267 288.112 705.526 287.954C701.761 287.154 686.523 288.209 684.56 279.83C682.119 285.065 681.522 286.352 676.146 287.757L676.146 272.416L710.149 269.155C710.149 269.155 709.621 285.698 708.663 285.857Z" fill="#2f4e56" fill-rule="evenodd" opacity="1" stroke="none"/>
<path d="M710.217 317.535C701.814 322.681 692.1 324.568 683.058 318.979C668.301 348.077 664.624 382.794 668.173 421.165C689.691 429.684 707.777 428.009 723.174 418.272C723.174 418.272 710.217 317.535 710.217 317.535Z" fill="#4288c3" fill-rule="evenodd" opacity="1" stroke="none"/>
<path d="M605.505 515.376C605.505 515.376 605.683 529.407 594.121 534.653C582.567 539.898 574.335 539.582 575.383 543.638C576.431 547.693 606.505 547.529 609.314 544.358C611.707 541.66 616.913 516.537 618.346 518.458C618.346 518.458 605.505 515.376 605.505 515.376Z" fill="#f8ae9d" fill-rule="evenodd" opacity="1" stroke="none"/>
<path d="M614.859 530.03C612.931 529.007 612.45 536.493 607.405 535.119C602.359 533.745 605.205 526.536 602.035 525.711C598.866 524.886 593.978 532.317 586.502 534.982C579.026 537.646 572.97 539.912 571.604 543.15C570.426 545.934 572.068 546.548 572.068 546.548C572.068 546.548 579.983 549.236 584.698 549.421C591.547 549.69 610.985 547.837 612.808 545.391C613.928 543.89 615.823 530.543 614.859 530.03ZM725.539 405.493C725.539 405.493 740.464 437.013 719.489 447.837C699.205 458.304 638.48 445.924 638.48 445.924C638.48 445.924 639.565 454.661 638.48 462.452C635.646 482.802 622.167 516.707 619.316 520.967C615.372 526.858 603.359 522.415 603.133 517.51C602.907 512.604 612.189 449.954 613.6 438.007C615.005 426.059 619.438 424.323 632.387 421.057C635.362 420.307 670.541 411.565 673.763 411.819C701.454 414.009 725.539 405.493 725.539 405.493Z" fill="#2f4e56" fill-rule="evenodd" opacity="1" stroke="none"/>
<path d="M709.85 317.558C695.934 363.144 687.589 427.773 731.05 416.529C707.963 374.022 739.349 354.89 732.235 332.922C729.803 325.411 710.032 316.969 709.85 317.558ZM683.795 318.66C678.485 331.979 675.932 342.43 673.55 361.981C671.564 378.264 672.558 411.865 672.558 411.865L665.996 413.155C665.996 413.155 661.304 361.243 662.873 354.559C665.505 343.343 667.288 336.789 670.764 326.536C672.679 320.908 683.795 318.66 683.795 318.66Z" fill="#2f4e56" fill-rule="evenodd" opacity="1" stroke="none"/>
<path d="M706.928 369.31C706.928 369.31 698.359 360.731 695.392 359.735C692.425 358.739 676.17 357.543 676.28 359.793C676.405 362.203 686.864 362.065 687.831 363.251C688.799 364.436 690.144 373.665 693.8 374.575C697.449 375.485 705.012 378.179 705.012 378.179L738.681 395.575L735.094 378.18C735.094 378.18 706.928 369.31 706.928 369.31Z" fill="#f8ae9d" fill-rule="evenodd" opacity="1" stroke="none"/>
<path d="M732.716 332.984C742.929 347.398 751.648 369.353 754.995 377.913C758.342 386.473 754.966 399.384 740.249 396.849C738.496 396.548 735.646 395.438 735.646 395.438C730.235 388.02 729.285 381.652 731.305 375.981L733.208 376.785C733.208 376.785 718.581 350.857 715.009 343.907C709.043 332.299 723.72 320.285 732.716 332.984Z" fill="#2f4e56" fill-rule="evenodd" opacity="1" stroke="none"/>
<path d="M317.403 467.355C324.463 464.97 330.582 459.889 334.155 453.373C335.164 451.576 335.988 449.512 335.717 447.468C335.648 447.052 335.542 446.559 335.167 446.365C334.83 446.171 334.376 446.277 333.996 446.385C322.204 449.566 309.737 454.928 297.36 454.362C296.793 454.354 296.228 454.307 295.733 454.527C295.125 454.782 294.739 455.342 294.466 455.942C293.53 457.892 292.719 461.58 293.025 463.775C293.401 466.386 295.925 466.764 298.145 467.327C304.464 468.933 311.102 469.487 317.403 467.355Z" fill="#f8ae9d" fill-rule="evenodd" opacity="1" stroke="none"/>
<path d="M318.492 452.72C319.442 452.319 320.43 451.918 321.45 451.896C322.47 451.874 323.594 452.42 323.919 453.406C324.135 454.089 323.936 454.804 323.662 455.442C322.919 457.092 321.615 458.431 320.237 459.619C314.959 464.07 308.196 466.762 301.279 467.185C298.218 467.365 295.012 467.09 292.315 465.652C293.662 464.011 293.395 461.666 293.54 459.591C293.972 453.518 299.148 455.824 303.302 455.812C308.515 455.702 313.704 454.686 318.492 452.72Z" fill="#f8ae9d" fill-rule="evenodd" opacity="1" stroke="none"/>
<path d="M129.354 339.603C128.3 337.437 128.364 334.922 128.744 332.574C130.391 322.499 137.452 314.079 145.546 307.909C153.666 301.723 162.96 297.307 171.503 291.764C173.72 290.32 175.943 288.766 178.488 287.986C181.034 287.205 183.992 287.289 186.094 288.931C187.578 290.083 188.436 291.864 188.935 293.645C190.029 297.545 189.61 301.675 188.943 305.632C188.108 310.622 186.884 315.56 184.873 320.147C183.261 323.847 180.637 327.654 176.694 328.379C175.553 332.8 173.203 336.945 169.908 340.115C166.139 343.751 161.361 346.128 156.402 347.788C151.833 349.321 146.835 350.322 142.239 348.891C139.511 348.058 137.109 346.454 134.759 344.818C132.662 343.425 130.487 341.9 129.354 339.603ZM170.649 332.884L173.346 328.602C172.775 328.652 172.214 328.784 171.68 328.995C170.199 329.636 169.307 331.969 170.649 332.884Z" fill="#2f4e56" fill-rule="evenodd" opacity="1" stroke="none"/>
<path d="M160.499 407.8C160.42 408.025 160.341 408.251 160.262 408.476C158.603 413.284 157.319 418.249 156.789 423.339C155.816 432.689 157.651 443.63 164.685 450.421C174.063 459.475 189.109 460.874 201.339 458.719C206.345 457.843 211.058 455.749 215.063 452.621C219.049 456.231 223.332 460.185 226.896 464.205C234.055 461.701 240.869 458.302 247.176 454.09C262.102 460.925 277.325 465.537 293.399 468.878C295.236 464.308 296.525 459.536 297.24 454.662C297.365 453.871 287.348 447.111 286.192 446.149C282.724 443.226 275.5 436.546 275.5 436.546C275.5 436.546 284.605 428.792 288.588 425.152C292.801 421.368 296.843 417.398 300.701 413.252C303.887 409.827 307.001 406.211 308.954 401.936C310.906 397.698 311.624 392.687 309.992 388.282C304.838 374.572 284.034 379.391 274.37 384.116C266.381 388.035 259.384 393.744 252.65 399.532C249.934 401.832 247.254 404.208 244.613 406.547C242.531 404.401 240.232 401.609 238.265 399.352C236.15 396.903 233.731 394.6 230.807 393.159C227.734 391.601 224.899 391.823 221.621 391.358C220.151 391.146 218.723 390.709 217.292 390.461C212.999 389.678 208.455 390.516 204.683 392.724C201.101 394.822 198.193 397.308 193.99 398.113C189.218 399.022 183.675 398.485 178.889 397.845C174.593 397.251 170.228 396.279 165.948 397.12C164.168 397.471 163.488 399.953 162.9 401.379C162.113 403.444 161.288 405.584 160.499 407.8ZM198.418 249.66C198.418 249.66 186.864 247.823 183.761 268.22C180.314 290.895 171.108 287.165 156.488 305.578C147.944 316.337 156.936 335.337 175.208 334.96C193.48 334.593 209.982 329.31 220.492 331.57C231.003 333.83 231.58 306.91 221.21 298.604C210.839 290.298 232.95 266.447 219.477 255.825C206.003 245.204 198.418 249.66 198.418 249.66Z" fill="#2f4e56" fill-rule="evenodd" opacity="1" stroke="none"/>
<path d="M220.631 267.598C220.771 268.355 220.796 269.149 220.745 270.054C220.439 275.343 219.302 280.55 217.376 285.485C216.199 288.413 214.758 291.298 212.72 293.722C211.874 294.729 210.915 295.658 209.664 296.017C208.374 296.375 206.75 296.426 205.471 296.104C204.343 300.77 204.813 309.575 208.841 312.884C210.072 313.884 211.535 314.511 213 315.062C215.853 316.162 218.823 317 221.797 317.65C225.184 318.381 228.876 318.928 231.255 321.419C231.553 321.725 231.848 322.145 231.729 322.559C231.649 322.822 231.458 323.008 231.229 323.155C229.356 324.675 227.039 325.508 224.724 326.304C220.662 327.677 216.491 328.822 212.25 329.589C207.82 330.39 203.245 330.773 198.759 330.29C195.291 329.897 191.868 329.015 188.719 327.456C185.421 325.82 182.043 324.485 178.63 322.923C175.743 321.595 172.896 320.079 169.77 319.541C171.248 316.731 174.33 315.154 177.4 314.408C180.47 313.699 183.68 313.635 186.786 313.04C187.809 312.829 188.832 312.58 189.71 311.951C192.116 310.213 191.457 306.351 191.495 303.822L191.617 295.818C191.259 291.999 189.684 288.803 188.302 285.308C186.193 279.951 185.757 273.865 187.615 268.38C189.473 262.933 193.699 258.201 199.128 256.282C204.557 254.364 211.073 255.444 215.242 259.435C217.884 262.005 220.039 264.304 220.631 267.598Z" fill="#f8ae9d" fill-rule="evenodd" opacity="1" stroke="none"/>
<path d="M203.935 250.579C209.346 249.975 214.277 252.625 217.933 256.732C221.008 260.175 222.816 264.72 222.725 269.287C222.712 269.939 222.638 270.65 222.271 271.236C221.293 272.64 219.168 272.123 217.578 271.498C214.988 270.497 213.059 269.035 210.711 267.801C208.362 266.568 205.511 266.748 203.409 265.045C201.425 263.403 194.611 259.945 194.428 257.271C194.196 254.003 200.182 251.335 202.685 250.791C203.043 250.68 203.46 250.629 203.935 250.579Z" fill="#2f4e56" fill-rule="evenodd" opacity="1" stroke="none"/>
<path d="M188.347 257.976C183.771 260.927 181.624 266.096 181.386 271.59C181.177 276.202 182.648 280.867 185.604 284.349C186.027 284.846 186.532 285.35 187.188 285.572C188.833 286.043 190.153 284.299 190.99 282.81C192.366 280.398 192.936 278.046 193.977 275.606C195.018 273.166 197.342 271.504 197.895 268.855C198.396 266.329 201.491 259.344 199.945 257.155C198.059 254.476 191.733 256.19 189.45 257.351C189.102 257.49 188.747 257.714 188.347 257.976Z" fill="#2f4e56" fill-rule="evenodd" opacity="1" stroke="none"/>
<path d="M229.045 320.252C229.768 319.923 230.633 320.163 231.114 320.812C236.512 328.371 238.596 337.843 240.421 346.971C242.491 357.35 244.335 367.762 246.102 378.173C246.207 378.704 246.274 379.271 246.04 379.759C245.806 380.246 245.274 380.502 244.78 380.721C241.66 382.222 238.504 383.685 235.385 385.185C232.019 377.527 229.592 369.489 228.158 361.248C226.155 366.315 222.539 370.716 217.926 373.592C221.363 378.515 225.594 388.36 229.72 392.689C230.351 393.379 234.257 392.305 235.13 392.016C235.673 393.573 233.13 391.911 233.144 393.497C230.797 393.839 227.798 392.434 225.386 392.133C222.477 391.793 219.539 391.774 216.626 392.075C211.784 392.606 207.079 394.12 202.777 396.396C200.639 397.534 198.587 398.828 196.639 400.268C194.958 401.526 190.797 404.484 190.797 404.484C190.491 404.706 189.061 404.382 188.723 404.301C187.736 404.134 186.743 404.005 185.746 403.916C183.243 403.722 180.752 403.394 178.284 402.935C173.351 402.029 168.5 400.634 163.847 398.712C163.399 398.366 164.998 395.067 165.083 394.426C164.998 395.029 155.833 394.286 154.93 394.121C151.316 393.387 147.659 392.991 144.045 392.219C145.664 377.667 150.106 363.612 154.472 349.669C156.179 344.181 157.924 338.695 160.344 333.52C162.92 328.008 166.246 322.848 170.243 318.264C170.358 318.152 170.548 318.08 170.698 318.12C172.616 318.602 184.315 321.612 190.135 323.777C193.101 324.917 196.106 325.945 199.149 326.973C200.351 327.369 201.592 327.765 202.838 327.746C203.669 327.721 204.503 327.545 205.298 327.368C213.407 325.566 221.517 323.612 229.045 320.252Z" fill="#4288c3" fill-rule="evenodd" opacity="1" stroke="none"/>
<path d="M176.269 349.244C175.935 351.316 175.488 353.424 175.041 355.494C173.954 360.191 172.559 364.812 170.866 369.327C170.001 371.579 169.099 373.794 168.084 376.006C167.576 377.094 167.069 378.181 166.523 379.268C166.251 379.792 165.978 380.355 165.706 380.879C165.473 381.329 165.202 381.74 164.969 382.152C166.594 382.101 174.611 382.564 176.271 382.702" fill="none" fill-rule="evenodd" opacity="1" stroke="#ffffff" stroke-linecap="round" stroke-linejoin="round" stroke-width="1.376"/>
<path d="M176.53 384.329C176.361 385.39 176.156 386.445 175.915 387.492L175.187 390.652C174.947 391.555 174.401 392.68 174.387 393.623C174.39 393.435 180.818 392.89 181.423 392.824C188.117 392.171 194.844 391.782 201.534 391.355C205.881 391.081 210.147 391.183 214.489 391.212C215.772 391.231 217.285 391.103 217.98 390.056C218.561 389.159 218.087 388.019 218.553 387.195C218.853 387.275 222.352 388.159 222.315 388.083C222.454 388.878 222.731 390.544 223.556 390.934C223.856 391.052 224.158 391.094 224.46 391.099C224.913 391.106 225.367 391.037 225.821 390.968C225.891 390.968 225.959 390.943 226.011 390.896C226.088 390.821 226.014 390.707 225.94 390.593C224.911 389.071 224.371 387.271 224.395 385.434C223.311 384.7 222.228 383.852 221.298 382.932C220.555 382.165 220.003 381.175 219.183 380.521C218.325 379.79 217.488 380.231 216.54 380.481C215.443 380.726 214.355 381.012 213.279 381.337C211.193 381.986 209.104 382.785 207.347 384.08C206.736 384.523 206.162 385.006 205.441 385.221C204.758 385.437 204.003 385.426 203.286 385.415C198.87 385.31 194.455 385.092 190.082 384.61C185.595 384.127 182.536 384.194 176.658 383.311C176.658 383.349 176.653 383.689 176.53 384.329Z" fill="#f8ae9d" fill-rule="evenodd" opacity="1" stroke="none"/>
<path d="M225.168 348.825C226.218 353.4 226.997 358.033 227.5 362.7" fill="none" fill-rule="evenodd" opacity="1" stroke="#ffffff" stroke-linecap="round" stroke-linejoin="round" stroke-width="1.376"/>
<path d="M314.217 341.295L301.255 399.1L202.833 397.605C202.885 394.207 205.683 391.455 209.119 391.508L232.639 391.865L244.36 338.686C244.733 336.963 246.267 335.739 248.03 335.758L310.624 336.709C313.002 336.783 314.744 338.962 314.217 341.295Z" fill="#2f4e56" fill-rule="evenodd" opacity="1" stroke="none"/>
<path d="M185.645 482.535C186.101 479.899 187.388 477.199 188.594 474.839C193.575 465.172 202.477 458.359 212.064 453.671C213.053 453.195 214.042 452.719 215.067 452.357C214.99 452.469 214.912 452.582 214.835 452.731L214.834 452.769L214.796 452.769C214.911 452.695 214.987 452.62 215.102 452.547C218.976 456.042 223.109 459.881 226.638 463.748C224.306 465.639 220.921 467.173 219.241 468.432C215.269 471.355 211.446 474.468 207.326 477.2C201.794 480.93 195.9 483.635 189.311 484.819C186.774 485.271 185.445 485.742 185.475 483.779C185.518 483.477 185.562 483.063 185.645 482.535Z" fill="#f8ae9d" fill-rule="evenodd" opacity="1" stroke="none"/>
<path d="M192.07 474.929C194.635 470.097 198.618 466.419 202.973 463.162C206.029 460.867 209.27 458.802 212.36 456.696C213.238 456.105 214.961 454.508 216.446 453.737C219.537 456.541 222.702 459.496 225.563 462.561C216.111 468.308 207.69 475.808 197.319 479.88C196.369 480.243 195.382 480.606 194.362 480.628C193.342 480.65 192.254 480.218 191.662 479.379C190.738 478.081 191.331 476.315 192.07 474.929Z" fill="#f8ae9d" fill-rule="evenodd" opacity="1" stroke="none"/>
</g>
<g id="Layer-1" vectornator:layerName="Layer 1">
<path d="M699.367 299.115L708.062 295.788" fill="#000000" fill-rule="evenodd" opacity="1" stroke="#3b1534" stroke-linecap="butt" stroke-linejoin="miter" stroke-width="1"/>
<path d="M697.016 289.915L706.296 285.16" fill="#000000" fill-rule="evenodd" opacity="1" stroke="#3b1534" stroke-linecap="butt" stroke-linejoin="miter" stroke-width="1"/>
<path d="M699.888 298.597L697.735 289.758C697.683 289.541 697.545 289.354 697.354 289.239C697.163 289.124 696.933 289.09 696.717 289.146L676.093 294.348L676.093 294.348L677.981 303.952C678.716 307.684 682.337 310.114 686.069 309.38L694.344 307.756L694.344 307.756L699.634 300.031C699.921 299.612 700.014 299.089 699.888 298.597Z" fill="#f2eada" fill-rule="evenodd" opacity="1" stroke="none"/>
<path d="M676.798 297.93L693.294 294.691" fill="#000000" fill-rule="evenodd" opacity="1" stroke="#77c8d6" stroke-linecap="butt" stroke-linejoin="miter" stroke-width="1"/>
<path d="M677.9 303.011L690.701 300.5" fill="#000000" fill-rule="evenodd" opacity="1" stroke="#77c8d6" stroke-linecap="butt" stroke-linejoin="miter" stroke-width="1"/>
<path d="M193.775 288.642L189.572 284.973" fill="#000000" fill-rule="evenodd" opacity="1" stroke="#3b1534" stroke-linecap="butt" stroke-linejoin="miter" stroke-width="1"/>
<path d="M200.108 280.889L193.333 276.14" fill="#000000" fill-rule="evenodd" opacity="1" stroke="#3b1534" stroke-linecap="butt" stroke-linejoin="miter" stroke-width="1"/>
<path d="M149.543 473.435C149.543 473.757 162.269 474.018 177.968 474.018L234.819 474.018C250.518 474.018 263.245 473.757 263.245 473.435L263.245 473.143L149.543 473.143C149.543 473.143 149.543 473.435 149.543 473.435Z" fill="none" fill-rule="evenodd" opacity="1" stroke="#f2f3f4" stroke-linecap="butt" stroke-linejoin="miter" stroke-width="7"/>
<path d="M193.093 286.752L196.308 278.242C196.386 278.032 196.545 277.864 196.749 277.773C196.953 277.682 197.185 277.676 197.393 277.758L217.228 285.437L217.228 285.437L214.183 294.739C212.998 298.353 209.108 300.323 205.493 299.14L197.478 296.518L197.478 296.518L193.17 288.206C192.936 287.755 192.908 287.225 193.093 286.752Z" fill="#f2eada" fill-rule="evenodd" opacity="1" stroke="none"/>
<path d="M215.109 289.923L199.131 284.696" fill="#000000" fill-rule="evenodd" opacity="1" stroke="#77c8d6" stroke-linecap="butt" stroke-linejoin="miter" stroke-width="1"/>
<path d="M213.395 294.831L200.996 290.778" fill="#000000" fill-rule="evenodd" opacity="1" stroke="#77c8d6" stroke-linecap="butt" stroke-linejoin="miter" stroke-width="1"/>
</g>
<g id="Layer-2" vectornator:layerName="Layer 2">
<path d="M192.021 477.465C194.586 472.633 198.569 468.955 202.924 465.698C205.98 463.403 209.221 461.338 212.311 459.232C213.189 458.641 214.912 457.044 216.397 456.273C219.488 459.077 222.653 462.032 225.514 465.097C216.062 470.844 207.641 478.344 197.27 482.416C196.32 482.779 195.333 483.142 194.313 483.164C193.293 483.186 192.205 482.754 191.613 481.915C190.689 480.617 191.282 478.851 192.021 477.465Z" fill="#f8ae9d" fill-rule="evenodd" opacity="1" stroke="none"/>
<path d="M185.949 482.32C186.405 479.684 187.692 476.984 188.898 474.624C193.879 464.957 202.781 458.144 212.368 453.456C213.357 452.98 214.346 452.504 215.371 452.142C215.294 452.254 215.216 452.367 215.139 452.516L215.138 452.554L215.1 452.554C215.215 452.48 215.291 452.405 215.406 452.332C219.28 455.827 223.413 459.666 226.942 463.533C224.61 465.424 221.225 466.958 219.545 468.217C215.573 471.14 211.75 474.253 207.63 476.985C202.098 480.715 196.204 483.42 189.615 484.604C187.078 485.056 185.749 485.527 185.779 483.564C185.822 483.262 185.866 482.848 185.949 482.32Z" fill="#f8ae9d" fill-rule="evenodd" opacity="1" stroke="none"/>
</g>
</svg>
