<?xml version="1.0" encoding="UTF-8" standalone="no"?>
<!DOCTYPE svg PUBLIC "-//W3C//DTD SVG 1.1//EN" "http://www.w3.org/Graphics/SVG/1.1/DTD/svg11.dtd">

<!-- Created with Vectornator (http://vectornator.io/) -->
<svg height="100%" stroke-miterlimit="10" style="fill-rule:nonzero;clip-rule:evenodd;stroke-linecap:round;stroke-linejoin:round;" version="1.1" viewBox="0 0 900 600" width="100%" xml:space="preserve" xmlns="http://www.w3.org/2000/svg" xmlns:vectornator="http://vectornator.io" xmlns:xlink="http://www.w3.org/1999/xlink">
<metadata>
<vectornator:setting key="IsTimeLapseWatermarkDisabled" value="false"/>
<vectornator:setting key="UndoHistoryDisabled" value="true"/>
<vectornator:setting key="VNDimensionsVisible" value="true"/>
<vectornator:setting key="VNSnapToGuides" value="true"/>
<vectornator:setting key="WDCMYKEnabledKey" value="false"/>
<vectornator:setting key="WDDisplayWhiteBackground" value="false"/>
<vectornator:setting key="WDDynamicGuides" value="false"/>
<vectornator:setting key="WDGuidesVisible" value="true"/>
<vectornator:setting key="WDIsolateActiveLayer" value="false"/>
<vectornator:setting key="WDOutlineMode" value="false"/>
<vectornator:setting key="WDRulersVisible" value="true"/>
<vectornator:setting key="WDSnapToEdges" value="false"/>
<vectornator:setting key="WDSnapToGrid" value="false"/>
<vectornator:setting key="WDSnapToPoints" value="false"/>
<vectornator:setting key="WDUnits" value="Points"/>
</metadata>
<defs>
<linearGradient gradientTransform="matrix(1 0 0 1 0 0)" gradientUnits="userSpaceOnUse" id="LinearGradient" x1="425.316" x2="431.256" y1="620.484" y2="-194.429">
<stop offset="0" stop-color="#ead6b6"/>
<stop offset="0.972483" stop-color="#f9941e"/>
</linearGradient>
</defs>
<g id="Untitled" vectornator:layerName="Untitled">
<path d="M752.503 310.337C764.707 229.014 791.973 221.925 812.939 180.876C832.026 143.538 847.42 82.4543 793.551 38.7849C709.875-29.1032 607.254 40.3637 607.254 40.3637C607.254 40.3637 449.892 101.541 421.474 106.278C393.056 111.014 315.795 120.484 227.005 95.0401C127.239 66.4513 70.4641 81.4123 46.7822 124.04C23.1003 166.667 76.7793 289.813 89.4096 315.074C102.04 340.334 83.0944 419.274 62.5701 450.85C42.0458 482.426-22.6847 580.311 116.249 577.153C255.183 573.996 671.984 578.732 671.984 578.732C671.984 578.732 695.806 578.287 722.757 568.502C763.35 553.764 811.042 517.837 795.13 430.326C773.027 308.758 747.766 341.913 752.503 310.337Z" fill="#96c5da" fill-opacity="0.362009" fill-rule="evenodd" opacity="1" stroke="none"/>
<path d="M612.852 140.325C650.175 140.325 680.707 170.624 680.707 207.662C680.707 244.7 650.175 274.999 612.852 274.999C605.365 274.999 599.233 281.085 599.233 288.515C599.233 295.945 605.365 302.03 612.852 302.03L648.358 302.03C666.565 302.03 681.464 316.816 681.464 334.884C681.464 352.952 666.565 367.737 648.358 367.737C632.611 367.737 619.726 380.524 619.726 396.151C619.726 424.662 596.22 447.989 567.489 447.989L260.844 447.989C223.521 447.989 192.989 417.69 192.989 380.652C192.989 343.614 223.521 313.315 260.844 313.315L267.407 313.315C274.895 313.315 281.027 307.237 281.027 299.799C281.027 292.369 274.902 286.284 267.407 286.284L223.226 286.284C205.018 286.284 190.12 271.498 190.12 253.43C190.12 235.384 204.981 220.614 223.157 220.577L258.709 220.577C274.456 220.577 287.341 207.79 287.341 192.163C287.341 163.652 310.847 140.325 339.578 140.325C339.578 140.325 612.852 140.325 612.852 140.325Z" fill="url(#LinearGradient)" fill-rule="evenodd" opacity="1" stroke="none"/>
<path d="M480.803 287.792L468.518 284.055L415.111 282.483L403.066 285.771L404.638 315.12L431.887 332.506L458.317 331.976L474.933 316.836L478.622 301.825C478.622 301.825 480.803 287.792 480.803 287.792Z" fill="#f8ae9d" fill-rule="evenodd" opacity="1" stroke="none"/>
<path d="M326.613 334.991C330.478 327.02 334.183 320.621 337.487 315.569C343.973 305.614 353.894 298.393 365.361 295.281L408.92 283.477C408.92 283.477 411.182 327.004 441.141 327.004C471.1 327.004 476.938 286.187 476.938 286.187L527.345 306.299C529.077 306.972 540.769 311.014 554.369 340.187C567.328 367.965 572.99 382.191 572.99 382.191L521.058 397.186L517.819 443.889L518.925 470.561L361.303 470.208L362.185 439.719L361.528 392.968L359.555 396.16L307.095 375.118C307.095 375.118 313.847 361.261 326.613 334.991Z" fill="#4288c3" fill-rule="evenodd" opacity="1" stroke="none"/>
<path d="M446.231 303.32C433.447 303.084 418.924 278.148 418.924 278.148L418.09 214.094C417.422 195.645 428.898 179.926 449.583 179.84L451.503 179.926C470.755 180.845 486.001 194.789 486.516 211.972C487.003 227.964 487.295 245.631 486.669 254.166C485.361 271.833 465.205 268.851 465.205 268.851C465.163 268.851 465.26 277.751 465.205 282.949C465.052 294.623 451.364 303.717 446.231 303.32Z" fill="#f8ae9d" fill-rule="evenodd" opacity="1" stroke="none"/>
<path d="M424.477 217.608C424.125 217.44 410.355 212.842 410.048 226.443C409.74 240.044 424.155 237.536 424.184 237.145C424.213 236.755 424.477 217.608 424.477 217.608ZM568.515 383.49L589.637 425.879C591.997 430.615 593.102 435.878 592.845 441.163C592.043 457.618 578.459 470.561 561.988 470.561L500.919 469.601L498.766 439.415L544.859 428.301L527.393 395.278C527.393 395.278 568.515 383.49 568.515 383.49ZM309.773 376.193C309.773 376.193 296.67 415.118 282.38 450.498C282.091 451.203 281.771 452.519 281.514 453.24C278.29 462.013 287.993 470.561 297.793 470.561L380.373 470.417L380.373 443.569L329.003 432.663L347.607 391.349C347.607 391.349 309.773 376.193 309.773 376.193Z" fill="#f8ae9d" fill-rule="evenodd" opacity="1" stroke="none"/>
<path d="M475.286 442.334C475.27 442.43 473.393 441.837 470.266 441.644C467.155 441.436 462.744 441.789 458.35 443.665C453.955 445.542 450.635 448.477 448.647 450.866C446.626 453.256 445.76 455.036 445.68 454.972C445.648 454.956 445.84 454.507 446.273 453.737C446.706 452.967 447.396 451.877 448.374 450.642C450.331 448.156 453.667 445.109 458.157 443.2C462.648 441.292 467.155 440.971 470.298 441.292C471.87 441.436 473.137 441.692 473.987 441.917C474.837 442.125 475.302 442.302 475.286 442.334ZM472.463 435.839C472.431 435.967 470.523 435.021 467.235 434.924C463.963 434.78 459.36 435.774 455.062 438.373C450.764 440.987 447.54 444.291 445.263 446.664C444.172 447.819 443.274 448.781 442.568 449.519C441.927 450.193 441.574 450.561 441.542 450.529C441.51 450.513 441.831 450.096 442.424 449.391C443.259 448.385 444.115 447.396 444.99 446.424C447.219 443.986 450.427 440.602 454.805 437.939C459.184 435.293 463.915 434.331 467.251 434.572C468.919 434.668 470.25 434.972 471.132 435.277C471.581 435.405 471.902 435.566 472.127 435.662C472.351 435.758 472.463 435.822 472.463 435.839Z" fill="#eb996e" fill-rule="evenodd" opacity="1" stroke="none"/>
<path d="M363.003 438.645L374.856 438.645C374.856 438.645 401.607 428.974 407.108 429.904C412.064 430.738 430.203 442.783 433.763 445.172C434.164 445.445 434.453 445.814 434.629 446.263C435.354 448.224 434.397 450.407 432.464 451.203L432.095 451.363L432.256 451.908C432.464 452.582 432.561 453.336 432.528 454.074C432.4 456.624 428.968 457.393 427.669 455.196L428.359 456.415C428.631 456.912 428.776 457.474 428.743 458.035L428.679 459.142C428.609 460.368 427.793 461.424 426.626 461.804C425.519 462.172 424.298 461.851 423.515 460.986C421.222 458.452 416.25 453.384 412.882 452.823C409.899 452.325 404.911 452.261 401.896 452.277C400.366 452.28 398.996 453.223 398.448 454.651C400.436 454.795 414.341 462.044 419.265 464.643C420.789 465.445 421.927 466.888 422.12 468.604C422.296 470.144 421.526 471.764 418.479 471.042C411.936 469.518 400.18 464.113 400.18 464.113C400.18 464.113 394.117 462.381 390.188 465.156C384.655 469.053 382.121 470.48 377.374 468.909C372.626 467.337 369.13 465.076 369.13 465.076L359.78 464.145C359.748 464.145 350.911 442.045 363.003 438.645Z" fill="#f8ae9d" fill-rule="evenodd" opacity="1" stroke="none"/>
<path d="M398.335 443.168C398.352 443.264 400.228 442.671 403.355 442.478C406.467 442.27 410.877 442.623 415.272 444.499C419.666 446.376 422.986 449.311 424.975 451.7C426.996 454.09 427.862 455.87 427.942 455.806C427.974 455.79 427.781 455.341 427.348 454.571C426.729 453.486 426.027 452.452 425.247 451.476C423.291 448.99 419.955 445.943 415.464 444.034C410.973 442.126 406.467 441.805 403.323 442.126C402.079 442.234 400.845 442.443 399.635 442.751C398.785 442.976 398.319 443.136 398.335 443.168ZM401.158 436.673C401.19 436.801 403.098 435.855 406.386 435.758C409.658 435.614 414.261 436.608 418.559 439.207C422.857 441.821 426.081 445.125 428.358 447.498C429.449 448.653 430.347 449.615 431.053 450.353C431.694 451.027 432.047 451.395 432.079 451.363C432.111 451.347 431.791 450.93 431.197 450.225C430.362 449.218 429.507 448.229 428.631 447.258C426.402 444.82 423.194 441.436 418.816 438.774C414.437 436.127 409.706 435.165 406.37 435.406C404.702 435.502 403.371 435.806 402.489 436.111C402.04 436.24 401.719 436.4 401.495 436.496C401.27 436.592 401.158 436.657 401.158 436.673Z" fill="#eb996e" fill-rule="evenodd" opacity="1" stroke="none"/>
<path d="M379.042 471.315L503.481 471.315C507.018 471.319 509.927 468.53 510.072 464.996L513.809 379.352C513.97 375.599 510.971 372.456 507.218 372.456L375.545 372.456C371.792 372.456 368.793 375.583 368.938 379.336L372.434 464.996C372.578 468.524 375.497 471.315 379.042 471.315Z" fill="#2f4e56" fill-rule="evenodd" opacity="1" stroke="none"/>
<path d="M428.807 423.47C428.804 426.846 430.144 430.084 432.531 432.472C434.918 434.859 438.156 436.199 441.532 436.196C444.908 436.199 448.147 434.859 450.534 432.472C452.921 430.085 454.261 426.846 454.258 423.47C454.261 420.094 452.921 416.856 450.534 414.469C448.146 412.082 444.908 410.742 441.532 410.745C434.496 410.745 428.807 416.464 428.807 423.47Z" fill="#ffffff" fill-rule="evenodd" opacity="1" stroke="none"/>
<path d="M429.289 242.388L418.062 242.388L418.062 290.502L429.289 290.502L429.289 242.388Z" fill="#f8ae9d" fill-rule="evenodd" opacity="1" stroke="none"/>
<path d="M424.882 199.397C426.905 202.007 430.473 202.582 433.412 203.099C437.362 203.792 439.317 205.237 441.368 209.116C442.666 211.593 443.965 214.307 446.289 215.649C448.178 216.745 448.11 213.951 448.409 211.788C448.437 211.596 448.476 211.406 448.525 211.219C448.982 209.492 450.821 209.786 451.36 211.49C451.852 213.024 452.905 214.322 454.245 215.044C454.463 215.162 454.696 215.265 454.928 215.221C455.242 215.177 455.488 214.882 455.693 214.617C456.123 214.061 456.55 213.354 456.991 212.607C458.44 210.15 461.183 211.028 462.802 213.378C463.813 214.838 465.016 216.342 466.67 216.681C467.203 216.799 467.873 216.711 468.119 216.195C468.434 215.56 467.942 214.926 468.024 214.277C468.092 213.673 468.352 213.407 468.639 212.891C469.765 210.888 472.343 210.816 473.928 212.48C475.031 213.637 476.181 214.748 477.374 215.811C477.879 216.254 478.617 216.696 479.123 216.254C479.397 216.018 479.465 215.619 479.52 215.236C479.807 213.363 480.08 211.49 480.367 209.617C480.531 208.57 481.092 207.198 482.049 207.464C482.513 207.597 482.787 208.083 483.046 208.526C483.361 209.086 488.979 215.472 489.088 214.985C489.963 211.357 491.754 208.054 492.629 204.426C498.288 181.08 473.177 162.306 453.998 162.203C449.734 162.174 445.838 162.243 441.696 163.231C437.28 164.293 432.619 165.979 428.614 168.353C422.996 171.671 418.744 177.703 419.838 184.9" fill="#2f4e56" fill-rule="evenodd" opacity="1" stroke="none"/>
<path d="M434.968 191.505C437.79 194.604 438.537 198.963 438.8 203.081C439.187 209.291 438.662 215.743 435.701 221.256C434.858 222.826 434.235 230.592 432.935 230.163C432.52 230.029 432.589 224.006 431.496 220.76C429.808 215.73 422.034 213.812 418.534 216.991C412.946 222.048 416.224 228.191 418.078 232.014C419.185 234.321 420.941 236.91 421.246 239.351C421.619 242.477 421.73 253.865 419.627 256.521C417.87 258.747 416.003 247.99 414.412 245.87C402.64 230.083 391.352 189.882 411.452 181.163C414.509 179.835 423.943 179.151 426.807 180.841" fill="#2f4e56" fill-rule="evenodd" opacity="1" stroke="none"/>
<path d="M565.563 201.794L569.306 201.794C570.211 201.794 570.94 201.058 570.94 200.16L570.94 196.417C570.94 195.512 570.204 194.783 569.306 194.783L565.563 194.783C564.662 194.786 563.932 195.516 563.929 196.417L563.929 200.16C563.928 200.594 564.1 201.01 564.406 201.317C564.713 201.623 565.129 201.795 565.563 201.794ZM578.542 201.794L582.285 201.794C583.186 201.791 583.916 201.061 583.919 200.16L583.919 196.417C583.919 195.512 583.183 194.783 582.285 194.783L578.542 194.783C577.641 194.786 576.911 195.516 576.908 196.417L576.908 200.16C576.911 201.061 577.641 201.791 578.542 201.794ZM591.529 201.794L595.272 201.794C596.173 201.791 596.903 201.061 596.906 200.16L596.906 196.417C596.906 195.512 596.17 194.783 595.272 194.783L591.529 194.783C590.628 194.786 589.898 195.516 589.895 196.417L589.895 200.16C589.894 200.594 590.066 201.01 590.372 201.317C590.679 201.623 591.095 201.795 591.529 201.794ZM604.508 201.794L608.251 201.794C609.152 201.791 609.882 201.061 609.885 200.16L609.885 196.417C609.885 195.512 609.149 194.783 608.251 194.783L604.508 194.783C603.603 194.783 602.866 195.519 602.866 196.417L602.866 200.16C602.876 201.061 603.606 201.789 604.508 201.794ZM617.488 201.794L621.231 201.794C622.136 201.794 622.873 201.058 622.873 200.16L622.873 196.417C622.873 195.512 622.136 194.783 621.231 194.783L617.488 194.783C616.587 194.786 615.857 195.516 615.854 196.417L615.854 200.16C615.857 201.061 616.587 201.791 617.488 201.794ZM579.018 187.642L582.761 187.642C583.658 187.642 584.395 186.905 584.395 186.008L584.395 182.256C584.391 181.355 583.662 180.626 582.761 180.623L579.018 180.623C578.112 180.623 577.384 181.359 577.384 182.256L577.384 186C577.381 186.435 577.552 186.853 577.859 187.161C578.166 187.469 578.583 187.643 579.018 187.642ZM591.997 187.642L595.74 187.642C596.641 187.639 597.371 186.909 597.374 186.008L597.374 182.256C597.37 181.355 596.641 180.626 595.74 180.623L591.997 180.623C591.096 180.626 590.367 181.355 590.363 182.256L590.363 186C590.36 186.435 590.531 186.853 590.838 187.161C591.145 187.469 591.562 187.643 591.997 187.642ZM604.976 187.642L608.719 187.642C609.625 187.642 610.361 186.905 610.361 186.008L610.361 182.256C610.361 181.359 609.625 180.623 608.719 180.623L604.976 180.623C604.075 180.626 603.346 181.355 603.342 182.256L603.342 186C603.342 186.905 604.079 187.642 604.976 187.642ZM591.529 216.999L595.272 216.999C596.173 216.996 596.903 216.266 596.906 215.365L596.906 211.621C596.906 210.716 596.17 209.987 595.272 209.987L591.529 209.987C590.628 209.99 589.898 210.72 589.895 211.621L589.895 215.365C589.894 215.799 590.066 216.215 590.372 216.522C590.679 216.828 591.095 217 591.529 216.999ZM604.508 216.999L608.251 216.999C609.152 216.996 609.882 216.266 609.885 215.365L609.885 211.621C609.885 210.716 609.149 209.987 608.251 209.987L604.508 209.987C603.603 209.987 602.866 210.724 602.866 211.621L602.866 215.365C602.876 216.266 603.606 216.994 604.508 216.999Z" fill="#e1e4e5" fill-rule="evenodd" opacity="1" stroke="none"/>
<path d="M627.609 289.844C627.839 282.651 629.471 275.297 632.345 268.424C669.77 281.551 658.804 266.133 636.161 260.91C642.253 250.716 651.494 242.446 663.586 238.62C678.23 233.992 695.586 244.531 706.781 260.086C689.172 267.393 692.919 290.646 711.172 266.981C714.827 273.533 717.333 280.589 718.183 287.622C720.321 304.941 712.344 321.939 686.528 329.499C644.92 341.755 626.69 316.945 627.609 289.844ZM653.77 281.001C642.782 281.322 658.161 293.624 666.391 287.668C671.54 283.911 664.781 280.68 653.77 281.001Z" fill="#3dafcd" fill-rule="evenodd" opacity="1" stroke="none"/>
<path d="M696.574 466.745C698.39 326.521 663.609 238.643 663.609 238.643" fill="none" fill-rule="evenodd" opacity="1" stroke="#3dafcd" stroke-linecap="butt" stroke-linejoin="miter" stroke-width="2.5"/>
<path d="M705.878 298.961C711.626 323.222 718.039 309.705 711.097 293.761C722.384 284.093 738.936 279.054 757.303 284.437C772.131 288.79 779.165 299.282 780.315 311.103C756.568 309.957 750.775 325.123 780.43 316.715C779.027 343.152 751.097 372.361 716.292 354.377C690.752 341.182 691.465 315.822 705.878 298.961ZM740.292 331.308C752.89 334.676 753.51 325.398 742.499 324.115C734.66 323.199 727.694 327.941 740.292 331.308Z" fill="#3dafcd" fill-rule="evenodd" opacity="1" stroke="none"/>
<path d="M707.425 422.234C701.654 334.196 752.045 289.867 752.045 289.867" fill="none" fill-rule="evenodd" opacity="1" stroke="#3dafcd" stroke-linecap="butt" stroke-linejoin="miter" stroke-width="2.5"/>
<path d="M606.726 350.769C594.496 334.824 594.197 308.731 603.599 300.942C612.496 293.566 623.852 292.672 634.795 295.696C632.013 312.282 645.576 319.567 642.335 298.445C667.829 309.831 686.886 340.689 658.519 355.946C636.91 367.538 621.461 364.675 611.416 355.855C648.013 353.518 629.277 343.644 606.726 350.769ZM616.289 323.943C605.622 327.081 607.117 330.426 618.933 331.319C630.726 332.213 630.059 319.934 616.289 323.943Z" fill="#3dafcd" fill-rule="evenodd" opacity="1" stroke="none"/>
<path d="M676.252 421.431C679.77 334.194 610.896 302.305 610.896 302.305" fill="none" fill-rule="evenodd" opacity="1" stroke="#3dafcd" stroke-linecap="butt" stroke-linejoin="miter" stroke-width="2.5"/>
<path d="M745.998 411.841L637.359 411.841L652.322 454.097C656.153 464.911 666.431 472.168 677.954 472.168L705.425 472.168C716.95 472.168 727.226 464.932 731.056 454.098L732.942 454.765L731.056 454.098C731.056 454.098 745.998 411.841 745.998 411.841Z" fill="#ffffff" fill-rule="evenodd" opacity="1" stroke="#e1e4e5" stroke-linecap="butt" stroke-linejoin="miter" stroke-width="4"/>
<path d="M761.341 410.361L761.341 403.845L623.366 403.845L623.366 410.361C623.366 410.361 761.341 410.361 761.341 410.361Z" fill="#e1e4e5" fill-rule="evenodd" opacity="1" stroke="#e1e4e5" stroke-linecap="butt" stroke-linejoin="miter" stroke-width="4"/>
<path d="M209.618 412.698L214.193 469.604L245.852 469.604L250.437 412.698L209.618 412.698Z" fill="#3dafcd" fill-rule="evenodd" opacity="1" stroke="none"/>
<path d="M207 407.567L253.54 407.567L253.54 415.861L207 415.861L207 407.567ZM210.189 407.567L250.352 407.567L248.007 398.242L212.544 398.242C212.544 398.242 210.189 407.567 210.189 407.567Z" fill="#2f4e56" fill-rule="evenodd" opacity="1" stroke="none"/>
<path d="M220.962 441.68C220.961 446.821 225.129 450.989 230.27 450.988C235.411 450.989 239.579 446.821 239.578 441.68C239.58 436.539 235.411 432.37 230.27 432.372C225.129 432.371 220.961 436.539 220.962 441.68Z" fill="#ffffff" fill-rule="evenodd" opacity="1" stroke="none"/>
<path d="M304.478 228.214L304.478 180.779C304.478 175.865 300.506 171.885 295.602 171.885L242.35 171.885C237.446 171.885 233.474 175.865 233.474 180.779L233.474 228.214C233.473 231.442 235.221 234.417 238.041 235.988L264.667 250.809C267.347 252.303 270.609 252.303 273.289 250.809L299.916 235.988C302.733 234.414 304.478 231.44 304.478 228.214Z" fill="#e1e4e5" fill-rule="evenodd" opacity="1" stroke="none"/>
<path d="M283.734 211.109L254.216 211.109M283.734 197.28L254.216 197.28M283.734 224.54L254.216 224.54" fill="none" fill-rule="evenodd" opacity="1" stroke="#ffffff" stroke-linecap="round" stroke-linejoin="round" stroke-width="2.677"/>
<path d="M760.493 469.552L122.571 469.552C120.082 469.552 118.064 471.57 118.064 474.059L118.064 474.058C118.064 476.547 120.082 478.565 122.571 478.565L760.493 478.565C762.982 478.565 765 476.547 765 474.058L765 474.059C765 471.57 762.982 469.552 760.493 469.552Z" fill="#e1e4e5" fill-rule="evenodd" opacity="1" stroke="none"/>
<path d="M285.271 375.43L267.044 357.202C266.38 356.538 265.303 356.538 264.639 357.202L264.64 357.201C263.976 357.865 263.976 358.941 264.64 359.605L282.868 377.833C283.532 378.497 284.608 378.497 285.272 377.833L285.271 377.834C285.935 377.17 285.935 376.094 285.271 375.43Z" fill="#e1e4e5" fill-rule="evenodd" opacity="1" stroke="none"/>
<path d="M274.085 375.509L268.828 370.252C268.164 369.588 267.088 369.588 266.424 370.252L266.425 370.252C265.761 370.915 265.761 371.992 266.425 372.656L271.681 377.912C272.345 378.576 273.421 378.576 274.085 377.912L274.085 377.913C274.749 377.249 274.749 376.173 274.085 375.509Z" fill="#e1e4e5" fill-rule="evenodd" opacity="1" stroke="none"/>
<path d="M439.557 251.262L420.163 238.423" fill="#000000" fill-rule="evenodd" opacity="1" stroke="#3b1534" stroke-linecap="butt" stroke-linejoin="miter" stroke-width="1"/>
<path d="M442.895 230.145L432.009 221.403" fill="#000000" fill-rule="evenodd" opacity="1" stroke="#3b1534" stroke-linecap="butt" stroke-linejoin="miter" stroke-width="1"/>
<path d="M438.567 249.483L441.31 229.961C441.376 229.482 441.632 229.049 442.02 228.76C442.407 228.47 442.895 228.348 443.373 228.421L488.963 235.207L488.963 235.207L486.957 256.322C486.173 264.527 478.888 270.545 470.683 269.765L452.49 268.04L452.49 268.04L439.422 252.52C438.714 251.678 438.402 250.571 438.567 249.483Z" fill="#f2eada" fill-rule="evenodd" opacity="1" stroke="none"/>
<path d="M488.213 243.083L451.947 239.644" fill="#000000" fill-rule="evenodd" opacity="1" stroke="#77c8d6" stroke-linecap="butt" stroke-linejoin="miter" stroke-width="1"/>
<path d="M486.929 254.275L458.787 251.613" fill="#000000" fill-rule="evenodd" opacity="1" stroke="#77c8d6" stroke-linecap="butt" stroke-linejoin="miter" stroke-width="1"/>
</g>
</svg>
